<?xml version="1.0" encoding="UTF-8"?>
<svg id="Layer_1" data-name="Layer 1" xmlns="http://www.w3.org/2000/svg" xmlns:xlink="http://www.w3.org/1999/xlink" viewBox="0 0 396 612">
  <defs>
    <clipPath id="clippath">
      <rect width="396" height="612" style="fill: none;"/>
    </clipPath>
  </defs>
  <rect width="396" height="198.72" style="fill: #be9d26;"/>
  <rect y="198.72" width="396" height="413.28" style="fill: #4a5960;"/>
  <g>
    <path d="M52.96,343.82v-41.09h-14.51v-1.94h31.15v1.94h-14.58v41.09h-2.06Z" style="fill: #fff;"/>
    <path d="M109.14,343.82v-21.16h-29.35v21.16h-2.06v-43.02h2.06v19.93h29.35v-19.93h2.06v43.02h-2.06Z" style="fill: #fff;"/>
    <path d="M122.55,343.82v-43.02h26.32v1.94h-24.25v18h23.8v1.94h-23.8v19.22h24.25v1.93h-26.32Z" style="fill: #fff;"/>
  </g>
  <g>
    <path d="M60.64,377.48c12.45,0,20.45,9.8,20.45,22.25s-8,22.25-20.45,22.25-20.45-9.8-20.45-22.25,7.93-22.25,20.45-22.25ZM60.64,379.42c-11.16,0-18.19,8.51-18.19,20.32s7.03,20.32,18.19,20.32,18.19-8.64,18.19-20.32-7.16-20.32-18.19-20.32Z" style="fill: #fff;"/>
    <path d="M90.95,421.21v-43.02h14.9c8,0,12.58,5.61,12.58,12.19s-4.71,12.19-12.58,12.19h-12.84v18.64h-2.06ZM105.78,380.13h-12.77v20.51h12.77c6.32,0,10.38-4.32,10.38-10.25s-4.06-10.26-10.38-10.26Z" style="fill: #fff;"/>
    <path d="M126.74,421.21v-43.02h26.32v1.93h-24.25v18h23.8v1.94h-23.8v19.22h24.25v1.93h-26.32Z" style="fill: #fff;"/>
    <path d="M193.82,421.21l-29.02-39.67v39.67h-2.06v-43.02h2.06l29.02,39.28v-39.28h2.06v43.02h-2.06Z" style="fill: #fff;"/>
  </g>
  <g>
    <path d="M41.68,498.61v-43.02h2.06v43.02h-2.06Z" style="fill: #fff;"/>
    <path d="M86.18,498.61l-29.02-39.67v39.67h-2.06v-43.02h2.06l29.02,39.28v-39.28h2.06v43.02h-2.06Z" style="fill: #fff;"/>
    <path d="M113.2,498.61l-17.93-43.02h2.39l16.77,40.63,16.77-40.63h2.39l-17.93,43.02h-2.45Z" style="fill: #fff;"/>
    <path d="M140.61,498.61v-43.02h2.06v43.02h-2.06Z" style="fill: #fff;"/>
    <path d="M165.31,498.61v-41.09h-14.51v-1.93h31.15v1.93h-14.58v41.09h-2.06Z" style="fill: #fff;"/>
    <path d="M217.23,498.61l-4.77-11.54h-23.99l-4.77,11.54h-2.39l17.93-43.02h2.45l17.93,43.02h-2.39ZM200.46,457.97l-11.22,27.15h22.45l-11.22-27.15Z" style="fill: #fff;"/>
    <path d="M233.41,498.61v-41.09h-14.51v-1.93h31.15v1.93h-14.58v41.09h-2.06Z" style="fill: #fff;"/>
    <path d="M258.18,498.61v-43.02h2.06v43.02h-2.06Z" style="fill: #fff;"/>
    <path d="M290.55,454.88c12.45,0,20.45,9.8,20.45,22.25s-8,22.25-20.45,22.25-20.45-9.8-20.45-22.25,7.93-22.25,20.45-22.25ZM290.55,456.81c-11.16,0-18.19,8.51-18.19,20.32s7.03,20.32,18.19,20.32,18.19-8.64,18.19-20.32-7.16-20.32-18.19-20.32Z" style="fill: #fff;"/>
    <path d="M351.95,498.61l-29.02-39.67v39.67h-2.06v-43.02h2.06l29.02,39.28v-39.28h2.06v43.02h-2.06Z" style="fill: #fff;"/>
  </g>
  <g>
    <path d="M52.96,576v-41.09h-14.51v-1.93h31.15v1.93h-14.58v41.09h-2.06Z" style="fill: #fff;"/>
    <path d="M94.82,532.27c12.45,0,20.45,9.8,20.45,22.25s-8,22.25-20.45,22.25-20.45-9.8-20.45-22.25,7.93-22.25,20.45-22.25ZM94.82,534.21c-11.16,0-18.19,8.51-18.19,20.32s7.03,20.32,18.19,20.32,18.19-8.64,18.19-20.32-7.16-20.32-18.19-20.32Z" style="fill: #fff;"/>
    <path d="M161.89,532.27c6.51,0,11.55,2.32,15.74,6.64l-1.35,1.42c-3.35-3.81-8.64-6.13-14.38-6.13-10.77,0-19.22,8.19-19.22,20.32s8.45,20.38,19.22,20.38c6.32,0,11.16-3.16,13.67-5.8v-11.8h-17.74v-1.93h19.8v14.58c-3.68,4.13-9.29,6.9-15.74,6.9-11.93,0-21.48-9.09-21.48-22.32s9.55-22.25,21.48-22.25Z" style="fill: #fff;"/>
    <path d="M206.52,532.27c12.45,0,20.45,9.8,20.45,22.25s-8,22.25-20.45,22.25-20.45-9.8-20.45-22.25,7.93-22.25,20.45-22.25ZM206.52,534.21c-11.16,0-18.19,8.51-18.19,20.32s7.03,20.32,18.19,20.32,18.19-8.64,18.19-20.32-7.16-20.32-18.19-20.32Z" style="fill: #fff;"/>
    <path d="M236.83,576v-43.02h12.77c13.35,0,21.41,10.06,21.41,21.54s-8.06,21.48-21.41,21.48h-12.77ZM238.9,574.07h10.71c12.19,0,19.16-8.64,19.16-19.54s-6.97-19.61-19.16-19.61h-10.71v39.15Z" style="fill: #fff;"/>
  </g>
  <rect x="38" y="42.89" width="320" height="113.31" style="fill: none; stroke: #4a5960; stroke-width: 4px;"/>
  <rect x="52.56" y="36" width="197.71" height="16.11" style="fill: #4a5960;"/>
  <g>
    <path d="M66.36,46.91l-.38-1.04h-2.68l-.38,1.04h-1.4l2.32-6h1.6l2.31,6h-1.4ZM64.64,42.01l-1,2.75h1.99l-.99-2.75Z" style="fill: #fff;"/>
    <path d="M75.49,46.91l-2.86-4.03v4.03h-1.28v-6h1.31l2.78,3.89v-3.89h1.28v6h-1.23Z" style="fill: #fff;"/>
    <path d="M82.66,46.91l-.38-1.04h-2.68l-.38,1.04h-1.4l2.32-6h1.6l2.31,6h-1.4ZM80.94,42.01l-1,2.75h1.99l-.99-2.75Z" style="fill: #fff;"/>
    <path d="M88.54,46.91l-1.18-2.15h-.94v2.15h-1.28v-6h2.81c1.25,0,2.02.82,2.02,1.94s-.67,1.63-1.31,1.78l1.35,2.29h-1.47ZM87.77,42h-1.34v1.66h1.34c.51,0,.9-.32.9-.83s-.39-.83-.9-.83Z" style="fill: #fff;"/>
    <path d="M94.87,46.91l-1.18-2.15h-.94v2.15h-1.28v-6h2.81c1.25,0,2.02.82,2.02,1.94s-.67,1.63-1.31,1.78l1.35,2.29h-1.47ZM94.1,42h-1.34v1.66h1.34c.51,0,.9-.32.9-.83s-.39-.83-.9-.83Z" style="fill: #fff;"/>
    <path d="M102.01,46.91l-.38-1.04h-2.68l-.38,1.04h-1.4l2.32-6h1.6l2.31,6h-1.4ZM100.29,42.01l-1,2.75h1.99l-.99-2.75Z" style="fill: #fff;"/>
    <path d="M105.32,46.91v-4.88h-1.76v-1.13h4.79v1.13h-1.75v4.88h-1.29Z" style="fill: #fff;"/>
    <path d="M109.71,46.91v-6h1.28v6h-1.28Z" style="fill: #fff;"/>
    <path d="M114.4,46.91l-2.32-6h1.46l1.67,4.62,1.66-4.62h1.46l-2.31,6h-1.6Z" style="fill: #fff;"/>
    <path d="M119.41,46.91v-6h4.25v1.1h-2.97v1.31h2.91v1.1h-2.91v1.4h2.97v1.11h-4.25Z" style="fill: #fff;"/>
    <path d="M127.71,45.45c.23.23.54.43.95.43.57,0,.94-.38.94-.96v-4.02h1.28v4.03c0,1.42-.88,2.08-2.12,2.08-.61,0-1.18-.16-1.61-.58l.56-.98Z" style="fill: #fff;"/>
    <path d="M135.44,40.81c1.82,0,3.14,1.3,3.14,3.11s-1.32,3.11-3.14,3.11-3.13-1.3-3.13-3.11,1.32-3.11,3.13-3.11ZM135.44,41.94c-1.11,0-1.82.85-1.82,1.97s.71,1.97,1.82,1.97,1.83-.85,1.83-1.97-.72-1.97-1.83-1.97Z" style="fill: #fff;"/>
    <path d="M140.02,40.91h1.3v3.56c0,.84.46,1.41,1.4,1.41s1.38-.58,1.38-1.41v-3.56h1.3v3.6c0,1.49-.86,2.51-2.67,2.51s-2.69-1.03-2.69-2.5v-3.61Z" style="fill: #fff;"/>
    <path d="M150.51,46.91l-1.18-2.15h-.94v2.15h-1.28v-6h2.81c1.25,0,2.02.82,2.02,1.94s-.67,1.63-1.31,1.78l1.35,2.29h-1.47ZM149.73,42h-1.34v1.66h1.34c.51,0,.9-.32.9-.83s-.39-.83-.9-.83Z" style="fill: #fff;"/>
    <path d="M157.58,46.91l-2.86-4.03v4.03h-1.28v-6h1.31l2.78,3.89v-3.89h1.28v6h-1.23Z" style="fill: #fff;"/>
    <path d="M160.54,46.91v-6h4.25v1.1h-2.97v1.31h2.91v1.1h-2.91v1.4h2.97v1.11h-4.25Z" style="fill: #fff;"/>
    <path d="M168,46.91v-2.46l-2.31-3.55h1.46l1.49,2.41,1.48-2.41h1.46l-2.3,3.55v2.46h-1.28Z" style="fill: #fff;"/>
    <path d="M178.02,40.81c1.82,0,3.14,1.3,3.14,3.11s-1.32,3.11-3.14,3.11-3.13-1.3-3.13-3.11,1.32-3.11,3.13-3.11ZM178.02,41.94c-1.11,0-1.82.85-1.82,1.97s.71,1.97,1.82,1.97,1.83-.85,1.83-1.97-.72-1.97-1.83-1.97Z" style="fill: #fff;"/>
    <path d="M182.59,46.91v-6h4.25v1.1h-2.97v1.31h2.91v1.1h-2.91v2.5h-1.28Z" style="fill: #fff;"/>
    <path d="M190.47,43.91c0-1.85,1.4-3.11,3.15-3.11,1.37,0,2.13.72,2.56,1.47l-1.1.54c-.25-.49-.79-.87-1.46-.87-1.04,0-1.84.84-1.84,1.97s.79,1.97,1.84,1.97c.67,0,1.21-.38,1.46-.87l1.1.53c-.43.75-1.19,1.48-2.56,1.48-1.76,0-3.15-1.26-3.15-3.11Z" style="fill: #fff;"/>
    <path d="M201.6,46.91v-2.52h-2.84v2.52h-1.28v-6h1.28v2.36h2.84v-2.36h1.29v6h-1.29Z" style="fill: #fff;"/>
    <path d="M208,46.91l-1.18-2.15h-.94v2.15h-1.28v-6h2.81c1.25,0,2.02.82,2.02,1.94s-.67,1.63-1.31,1.78l1.35,2.29h-1.47ZM207.22,42h-1.34v1.66h1.34c.51,0,.9-.32.9-.83s-.39-.83-.9-.83Z" style="fill: #fff;"/>
    <path d="M210.93,46.91v-6h1.28v6h-1.28Z" style="fill: #fff;"/>
    <path d="M214.22,45.09c.42.44,1.08.81,1.91.81.7,0,1.04-.33,1.04-.68,0-.45-.52-.6-1.21-.77-.98-.23-2.24-.5-2.24-1.84,0-1,.86-1.81,2.28-1.81.95,0,1.75.29,2.34.84l-.71.94c-.49-.45-1.13-.66-1.72-.66s-.88.25-.88.61c0,.41.5.53,1.2.69.99.22,2.25.52,2.25,1.85,0,1.1-.78,1.93-2.4,1.93-1.15,0-1.98-.39-2.55-.95l.7-.97Z" style="fill: #fff;"/>
    <path d="M221.15,46.91v-4.88h-1.76v-1.13h4.79v1.13h-1.75v4.88h-1.29Z" style="fill: #fff;"/>
    <path d="M225.54,46.91v-6h1.28v6h-1.28Z" style="fill: #fff;"/>
    <path d="M232.75,46.91l-.38-1.04h-2.68l-.38,1.04h-1.4l2.32-6h1.6l2.31,6h-1.4ZM231.03,42.01l-1,2.75h1.99l-.99-2.75Z" style="fill: #fff;"/>
    <path d="M239.38,46.91l-2.86-4.03v4.03h-1.28v-6h1.31l2.78,3.89v-3.89h1.28v6h-1.23Z" style="fill: #fff;"/>
  </g>
  <g>
    <path d="M58.14,126.6v-54.69h18.7v4.02h-14.35v20.66h13.78v3.94h-13.78v26.08h-4.35Z" style="fill: #fff;"/>
    <path d="M99.87,71.01c9.76,0,13.12,12.96,13.12,28.29s-3.36,28.29-13.12,28.29-13.04-12.87-13.04-28.29,3.36-28.29,13.04-28.29ZM99.87,75.02c-6.23,0-8.36,11.23-8.36,24.27s2.13,24.27,8.36,24.27,8.45-11.4,8.45-24.27-2.13-24.27-8.45-24.27Z" style="fill: #fff;"/>
    <path d="M142.18,126.6l-7.63-22.88h-5.41v22.88h-4.35v-54.69h9.76c6.97,0,11.97,5.82,11.97,15.83s-4.35,13.94-7.79,15.09l8.28,23.78h-4.84ZM134.15,75.93h-5v23.86h5c5.33,0,7.79-5,7.79-11.97s-2.46-11.89-7.79-11.89Z" style="fill: #fff;"/>
    <path d="M187.2,126.6v-46.41l-10.99,46.41h-1.89l-10.99-46.41v46.41h-4.35v-54.69h6.23l10.09,42.15,10.09-42.15h6.23v54.69h-4.43Z" style="fill: #fff;"/>
    <path d="M222.05,126.6l-2.38-13.61h-12.63l-2.38,13.61h-4.43l10.58-54.69h5.08l10.58,54.69h-4.43ZM213.36,77.07l-5.74,31.9h11.4l-5.66-31.9Z" style="fill: #fff;"/>
    <path d="M237.88,126.6v-50.68h-8.77v-4.02h22.06v4.02h-8.86v50.68h-4.43Z" style="fill: #fff;"/>
    <path d="M260.51,126.6v-54.69h4.35v54.69h-4.35Z" style="fill: #fff;"/>
    <path d="M289.78,71.01c9.76,0,13.12,12.96,13.12,28.29s-3.36,28.29-13.12,28.29-13.04-12.87-13.04-28.29,3.36-28.29,13.04-28.29ZM289.78,75.02c-6.23,0-8.36,11.23-8.36,24.27s2.13,24.27,8.36,24.27,8.45-11.4,8.45-24.27-2.13-24.27-8.45-24.27Z" style="fill: #fff;"/>
    <path d="M333.41,126.6l-14.35-43.71v43.71h-4.35v-54.69h4.35l14.19,42.89v-42.89h4.43v54.69h-4.26Z" style="fill: #fff;"/>
  </g>
  <rect x="220.46" y="146.61" width="122.98" height="16.11" style="fill: #4a5960;"/>
  <g>
    <path d="M235.28,157.52v-4.32l-1.69,4.32h-.56l-1.69-4.32v4.32h-1.28v-6h1.79l1.46,3.75,1.46-3.75h1.8v6h-1.29Z" style="fill: #fff;"/>
    <path d="M242.4,157.52l-.38-1.04h-2.68l-.38,1.04h-1.4l2.32-6h1.6l2.31,6h-1.4ZM240.68,152.62l-1,2.75h1.99l-.99-2.75Z" style="fill: #fff;"/>
    <path d="M245.62,157.52v-4.88h-1.76v-1.13h4.79v1.13h-1.75v4.88h-1.29Z" style="fill: #fff;"/>
    <path d="M251.31,157.52v-4.88h-1.76v-1.13h4.79v1.13h-1.75v4.88h-1.29Z" style="fill: #fff;"/>
    <path d="M259.72,157.52v-2.52h-2.83v2.52h-1.28v-6h1.28v2.36h2.83v-2.36h1.29v6h-1.29Z" style="fill: #fff;"/>
    <path d="M262.64,157.52v-6h4.25v1.1h-2.97v1.31h2.91v1.1h-2.91v1.4h2.97v1.11h-4.25Z" style="fill: #fff;"/>
    <path d="M272.92,157.52l-1.05-4.12-1.04,4.12h-1.36l-1.72-6h1.43l1.05,4.34,1.14-4.34h1l1.13,4.34,1.04-4.34h1.44l-1.71,6h-1.36Z" style="fill: #fff;"/>
    <path d="M283.17,157.52l-1.18-2.15h-.94v2.15h-1.28v-6h2.81c1.25,0,2.02.82,2.02,1.94s-.67,1.63-1.31,1.78l1.35,2.29h-1.47ZM282.39,152.61h-1.34v1.66h1.34c.51,0,.9-.32.9-.83s-.39-.83-.9-.83Z" style="fill: #fff;"/>
    <path d="M286.57,156.16c.4,0,.73.33.73.73s-.33.73-.73.73-.73-.33-.73-.73.33-.73.73-.73Z" style="fill: #fff;"/>
    <path d="M291.5,157.52v-6h1.28v4.88h2.54v1.13h-3.82Z" style="fill: #fff;"/>
    <path d="M297.2,157.52v-2.46l-2.31-3.55h1.46l1.5,2.41,1.48-2.41h1.46l-2.3,3.55v2.46h-1.28Z" style="fill: #fff;"/>
    <path d="M305.92,157.52l-2.86-4.03v4.03h-1.28v-6h1.31l2.78,3.89v-3.89h1.28v6h-1.23Z" style="fill: #fff;"/>
    <path d="M309.08,155.7c.42.44,1.08.81,1.91.81.7,0,1.04-.33,1.04-.68,0-.45-.52-.6-1.21-.77-.98-.23-2.24-.5-2.24-1.84,0-1,.86-1.81,2.28-1.81.95,0,1.75.29,2.34.84l-.71.94c-.49-.45-1.13-.66-1.72-.66s-.88.25-.88.61c0,.41.5.53,1.2.69.99.22,2.25.52,2.25,1.85,0,1.1-.78,1.93-2.4,1.93-1.15,0-1.98-.39-2.55-.95l.7-.97Z" style="fill: #fff;"/>
    <path d="M318.21,157.52l-1.82-2.4-.47.56v1.85h-1.28v-6h1.28v2.68l2.12-2.68h1.58l-2.39,2.82,2.55,3.19h-1.58Z" style="fill: #fff;"/>
    <path d="M320.81,157.52v-6h4.25v1.1h-2.97v1.31h2.91v1.1h-2.91v1.4h2.97v1.11h-4.25Z" style="fill: #fff;"/>
    <path d="M328.18,157.52v-2.46l-2.31-3.55h1.46l1.5,2.41,1.48-2.41h1.46l-2.3,3.55v2.46h-1.28Z" style="fill: #fff;"/>
  </g>
  <g style="clip-path: url(#clippath);">
    <path d="M325.83,243.48c3.48-3.49,9.12-4.02,12.17-4.02.74,0,1.36.03,1.78.06.15,2.21.32,9.72-3.94,14-3.48,3.49-9.12,4.02-12.17,4.02-.5,0-.94-.02-1.3-.03,1.06-2.03,3.99-6.75,9.52-9.74l-.74-1.38c-4.82,2.6-7.76,6.36-9.31,8.88.05-3.23.69-8.48,3.99-11.79M312.03,265.2c-1.15,0-2.21-.19-3.15-.56-3.93-1.56-6-6.37-6.62-8.07,1.19-.6,4.13-1.92,7.17-1.92,1.15,0,2.21.19,3.15.56,2.85,1.13,4.71,3.95,5.76,6.07-1.87-1.2-4.77-2.6-8.43-2.9l-.13,1.56c4.31.36,7.53,2.44,8.97,3.56-1.38.65-4.01,1.7-6.73,1.7M321.95,259.06c.44.03,1.02.05,1.72.05,3.29,0,9.39-.58,13.27-4.48,5.54-5.56,4.38-15.51,4.33-15.93l-.07-.6-.6-.08s-1.05-.13-2.59-.13c-3.29,0-9.39.58-13.27,4.48-5.44,5.46-4.42,15.12-4.34,15.87v3.78c-.92-2.28-3.16-6.65-7.24-8.27-1.12-.44-2.38-.67-3.72-.67-4.37,0-8.36,2.34-8.52,2.44l-.52.31.17.59c.09.3,2.25,7.5,7.75,9.68,1.12.44,2.38.67,3.72.67,3.96,0,7.59-1.91,8.36-2.35v19.58h-17.15v1.57h35.86v-1.57h-17.15v-24.94Z" style="fill: #be9d26;"/>
    <path d="M321.45,299.77c21.02,0,38.05-17.03,38.05-38.04s-17.03-38.04-38.05-38.04-38.03,17.03-38.03,38.04,17.03,38.04,38.03,38.04Z" style="fill: none; stroke: #be9d26;"/>
  </g>
</svg>