<svg width="800" height="1280" viewBox="0 0 800 1280" fill="none" xmlns="http://www.w3.org/2000/svg">
<g clip-path="url(#clip0_281_3)">
<path d="M0 0C264 0 528 0 800 0C800 422.4 800 844.8 800 1280C536 1280 272 1280 0 1280C0 857.6 0 435.2 0 0Z" fill="#4E595F"/>
<path d="M0 24.5C265.32 24.5 530.64 24.5 804 24.5C804 162.44 804 300.38 804 442.5C538.68 442.5 273.36 442.5 0 442.5C0 304.56 0 166.62 0 24.5Z" fill="#244961"/>
<path d="M143.182 255.5L117.727 162.409H129.182L148.636 238.227H149.545L169.364 162.409H182.091L201.909 238.227H202.818L222.273 162.409H233.727L208.273 255.5H196.636L176.091 181.318H175.364L154.818 255.5H143.182Z" fill="white"/>
<path d="M259.045 162.409V255.5H247.773V162.409H259.045Z" fill="white"/>
<path d="M276.557 172.409V162.409H346.375V172.409H317.102V255.5H305.83V172.409H276.557Z" fill="white"/>
<path d="M437.591 162.409V255.5H426.682L375.955 182.409H375.045V255.5H363.773V162.409H374.682L425.591 235.682H426.5V162.409H437.591Z" fill="white"/>
<path d="M460.148 255.5V162.409H516.33V172.409H471.42V203.864H513.42V213.864H471.42V245.5H517.057V255.5H460.148Z" fill="white"/>
<path d="M587.557 185.682C587.011 181.076 584.799 177.5 580.92 174.954C577.042 172.409 572.284 171.136 566.648 171.136C562.527 171.136 558.92 171.803 555.83 173.136C552.769 174.47 550.375 176.303 548.648 178.636C546.951 180.97 546.102 183.621 546.102 186.591C546.102 189.076 546.693 191.212 547.875 193C549.087 194.757 550.633 196.227 552.511 197.409C554.39 198.56 556.36 199.515 558.42 200.273C560.481 201 562.375 201.591 564.102 202.045L573.557 204.591C575.981 205.227 578.678 206.106 581.648 207.227C584.648 208.348 587.511 209.879 590.239 211.818C592.996 213.727 595.269 216.182 597.057 219.182C598.845 222.182 599.739 225.864 599.739 230.227C599.739 235.257 598.42 239.803 595.784 243.864C593.178 247.924 589.36 251.151 584.33 253.545C579.33 255.939 573.254 257.136 566.102 257.136C559.436 257.136 553.663 256.06 548.784 253.909C543.936 251.757 540.117 248.757 537.33 244.909C534.572 241.06 533.011 236.591 532.648 231.5H544.284C544.587 235.015 545.769 237.924 547.83 240.227C549.92 242.5 552.557 244.197 555.739 245.318C558.951 246.409 562.405 246.954 566.102 246.954C570.405 246.954 574.269 246.257 577.693 244.864C581.117 243.439 583.83 241.47 585.83 238.954C587.83 236.409 588.83 233.439 588.83 230.045C588.83 226.954 587.966 224.439 586.239 222.5C584.511 220.56 582.239 218.985 579.42 217.773C576.602 216.56 573.557 215.5 570.284 214.591L558.83 211.318C551.557 209.227 545.799 206.242 541.557 202.364C537.314 198.485 535.193 193.409 535.193 187.136C535.193 181.924 536.602 177.379 539.42 173.5C542.269 169.591 546.087 166.56 550.875 164.409C555.693 162.227 561.072 161.136 567.011 161.136C573.011 161.136 578.345 162.212 583.011 164.364C587.678 166.485 591.375 169.394 594.102 173.091C596.86 176.788 598.314 180.985 598.466 185.682H587.557Z" fill="white"/>
<path d="M669.182 185.682C668.636 181.076 666.424 177.5 662.545 174.954C658.667 172.409 653.909 171.136 648.273 171.136C644.152 171.136 640.545 171.803 637.455 173.136C634.394 174.47 632 176.303 630.273 178.636C628.576 180.97 627.727 183.621 627.727 186.591C627.727 189.076 628.318 191.212 629.5 193C630.712 194.757 632.258 196.227 634.136 197.409C636.015 198.56 637.985 199.515 640.045 200.273C642.106 201 644 201.591 645.727 202.045L655.182 204.591C657.606 205.227 660.303 206.106 663.273 207.227C666.273 208.348 669.136 209.879 671.864 211.818C674.621 213.727 676.894 216.182 678.682 219.182C680.47 222.182 681.364 225.864 681.364 230.227C681.364 235.257 680.045 239.803 677.409 243.864C674.803 247.924 670.985 251.151 665.955 253.545C660.955 255.939 654.879 257.136 647.727 257.136C641.061 257.136 635.288 256.06 630.409 253.909C625.561 251.757 621.742 248.757 618.955 244.909C616.197 241.06 614.636 236.591 614.273 231.5H625.909C626.212 235.015 627.394 237.924 629.455 240.227C631.545 242.5 634.182 244.197 637.364 245.318C640.576 246.409 644.03 246.954 647.727 246.954C652.03 246.954 655.894 246.257 659.318 244.864C662.742 243.439 665.455 241.47 667.455 238.954C669.455 236.409 670.455 233.439 670.455 230.045C670.455 226.954 669.591 224.439 667.864 222.5C666.136 220.56 663.864 218.985 661.045 217.773C658.227 216.56 655.182 215.5 651.909 214.591L640.455 211.318C633.182 209.227 627.424 206.242 623.182 202.364C618.939 198.485 616.818 193.409 616.818 187.136C616.818 181.924 618.227 177.379 621.045 173.5C623.894 169.591 627.712 166.56 632.5 164.409C637.318 162.227 642.697 161.136 648.636 161.136C654.636 161.136 659.97 162.212 664.636 164.364C669.303 166.485 673 169.394 675.727 173.091C678.485 176.788 679.939 180.985 680.091 185.682H669.182Z" fill="white"/>
<path d="M0 0C264 0 528 0 800 0C800 137.94 800 275.88 800 418C536 418 272 418 0 418C0 280.06 0 142.12 0 0ZM99 78C99 80.97 99 83.94 99 87C97.7303 86.9884 96.4605 86.9768 95.1523 86.9648C93.4141 86.9554 91.6758 86.9463 89.9375 86.9375C89.1093 86.9291 88.2811 86.9207 87.4277 86.9121C79.5341 86.8823 71.9454 87.4703 64 88C64 168.19 64 248.38 64 331C190.72 331 317.44 331 448 331C448.33 333.97 448.66 336.94 449 340C533.15 340 617.3 340 704 340C704.33 337.36 704.66 334.72 705 332C715.89 331.67 726.78 331.34 738 331C738 250.81 738 170.62 738 88C723.382 87.1634 723.382 87.1634 708.781 86.8797C707.911 86.8789 707.041 86.878 706.145 86.8772C703.316 86.8756 700.487 86.8809 697.657 86.8865C695.596 86.8868 693.534 86.8866 691.472 86.886C685.938 86.8857 680.404 86.8916 674.87 86.8986C669.064 86.9049 663.257 86.9054 657.45 86.9066C646.482 86.9097 635.514 86.9179 624.547 86.928C612.048 86.9392 599.55 86.9447 587.052 86.9497C561.368 86.9601 535.684 86.9777 510 87C510 84.03 510 81.06 510 78C374.37 78 238.74 78 99 78Z" fill="#23475F"/>
<path d="M637.525 497.482C638.171 497.475 638.817 497.468 639.483 497.461C641.613 497.444 643.741 497.455 645.871 497.469C647.356 497.466 648.84 497.462 650.325 497.457C653.434 497.451 656.543 497.46 659.653 497.479C663.632 497.501 667.61 497.488 671.589 497.464C674.655 497.45 677.72 497.454 680.785 497.465C682.252 497.467 683.719 497.464 685.186 497.455C687.239 497.445 689.292 497.46 691.345 497.482C692.513 497.486 693.68 497.489 694.882 497.492C698.658 498.107 700.34 499.29 703 502C703.557 505.345 703.31 507.263 702 510.375C698.877 512.912 695.956 512.104 692 512C692.004 512.943 692.009 513.887 692.013 514.858C692.054 523.746 692.084 532.633 692.104 541.52C692.114 546.089 692.128 550.658 692.151 555.228C692.173 559.637 692.185 564.046 692.19 568.455C692.193 570.137 692.201 571.82 692.211 573.502C692.226 575.858 692.228 578.214 692.227 580.569C692.234 581.266 692.241 581.962 692.249 582.679C692.234 586.275 692.107 589.017 690 592C686.443 594.371 684.886 594.263 680.664 594.291C679.356 594.303 678.048 594.316 676.7 594.329C675.27 594.332 673.84 594.335 672.41 594.336C670.944 594.342 669.478 594.349 668.013 594.356C664.94 594.368 661.868 594.372 658.795 594.371C654.86 594.37 650.925 594.398 646.989 594.432C643.962 594.454 640.934 594.458 637.907 594.457C636.456 594.46 635.005 594.469 633.554 594.484C631.525 594.504 629.495 594.495 627.465 594.486C626.311 594.489 625.156 594.492 623.966 594.495C620.346 593.891 619.164 592.922 617 590C616.575 586.538 616.361 584.165 618.063 581.063C620.971 579.467 623.74 579.936 627 580C626.991 579.032 626.982 578.063 626.973 577.066C626.892 567.943 626.832 558.82 626.793 549.697C626.772 545.007 626.744 540.317 626.698 535.627C626.655 531.101 626.631 526.576 626.621 522.05C626.613 520.323 626.599 518.595 626.577 516.868C626.548 514.45 626.544 512.033 626.546 509.614C626.524 508.542 626.524 508.542 626.502 507.448C626.529 504.216 626.82 502.272 628.621 499.556C631.751 497.509 633.794 497.493 637.525 497.482ZM630 511C630 537.07 630 563.14 630 590C639.549 590.021 649.099 590.041 658.938 590.063C661.956 590.072 664.975 590.081 668.086 590.09C670.462 590.093 672.838 590.096 675.215 590.098C676.462 590.103 677.709 590.108 678.994 590.113C680.76 590.113 680.76 590.113 682.562 590.114C683.59 590.116 684.619 590.118 685.678 590.12C687.961 590.262 687.961 590.262 689 589C689.095 586.597 689.126 584.222 689.114 581.818C689.114 581.067 689.114 580.316 689.114 579.542C689.113 577.047 689.106 574.553 689.098 572.059C689.096 570.334 689.094 568.609 689.093 566.884C689.09 562.335 689.08 557.786 689.069 553.237C689.057 547.784 689.052 542.331 689.046 536.878C689.037 528.585 689.017 520.293 689 512C659.795 511.505 659.795 511.505 630 511Z" fill="#2C4B5E"/>
<rect x="68" y="89.8799" width="665.241" height="237.96" stroke="#525D63" stroke-width="8"/>
<path d="M637.525 497.482C638.171 497.475 638.817 497.468 639.483 497.461C641.613 497.444 643.741 497.455 645.871 497.469C647.356 497.466 648.84 497.462 650.325 497.457C653.434 497.451 656.543 497.46 659.653 497.479C663.632 497.501 667.61 497.488 671.589 497.464C674.655 497.45 677.72 497.454 680.785 497.465C682.252 497.467 683.719 497.464 685.186 497.455C687.239 497.445 689.292 497.46 691.345 497.482C692.513 497.486 693.68 497.489 694.882 497.492C698.66 498.107 700.341 499.286 703 502C703.5 505.063 703.5 505.063 703 508C701.5 509.875 701.5 509.875 700 511C699.01 510.67 698.02 510.34 697 510C697.33 509.67 697.66 509.34 698 509C698.167 506 698.167 506 698 503C696.269 501.269 693.922 501.83 691.562 501.795C690.401 501.775 689.24 501.755 688.044 501.734C686.78 501.718 685.517 501.701 684.215 501.684C682.929 501.663 681.643 501.642 680.318 501.621C676.894 501.565 673.469 501.516 670.045 501.468C666.553 501.418 663.06 501.362 659.568 501.307C652.712 501.199 645.856 501.098 639 501C639 503.97 639 506.94 639 510C637 511 637 511 630 511C630.33 537.07 630.66 563.14 631 590C649.48 590.33 667.96 590.66 687 591C687 591.99 687 592.98 687 594C678.464 594.093 669.928 594.164 661.391 594.207C657.427 594.228 653.464 594.256 649.5 594.302C645.674 594.345 641.849 594.369 638.024 594.38C636.564 594.387 635.105 594.401 633.646 594.423C631.601 594.452 629.558 594.456 627.513 594.454C625.767 594.467 625.767 594.467 623.987 594.481C620.345 593.895 619.17 592.939 617 590C616.575 586.538 616.361 584.165 618.063 581.063C620.971 579.467 623.74 579.936 627 580C626.991 579.032 626.982 578.063 626.973 577.066C626.892 567.943 626.832 558.82 626.793 549.697C626.772 545.007 626.744 540.317 626.698 535.627C626.655 531.101 626.631 526.576 626.621 522.05C626.613 520.323 626.599 518.595 626.577 516.868C626.548 514.45 626.544 512.033 626.546 509.614C626.524 508.542 626.524 508.542 626.502 507.448C626.529 504.216 626.82 502.272 628.621 499.556C631.751 497.509 633.794 497.493 637.525 497.482Z" fill="#28495F"/>
<path d="M640 502C647.545 501.977 655.09 501.959 662.635 501.948C666.138 501.943 669.641 501.936 673.144 501.925C677.168 501.912 681.191 501.907 685.215 501.902C686.478 501.897 687.742 501.892 689.044 501.887C690.205 501.887 691.366 501.887 692.562 501.887C694.104 501.883 694.104 501.883 695.678 501.88C698 502 698 502 699 503C699.125 505.5 699.125 505.5 699 508C698 509 698 509 695.678 509.12C694.65 509.118 693.622 509.116 692.562 509.114C690.821 509.114 690.821 509.114 689.044 509.113C687.148 509.106 687.148 509.106 685.215 509.098C683.929 509.096 682.643 509.095 681.318 509.094C677.894 509.09 674.469 509.08 671.045 509.069C667.553 509.059 664.06 509.054 660.568 509.049C653.712 509.038 646.856 509.021 640 509C640 506.69 640 504.38 640 502Z" fill="#485760"/>
<rect x="107.887" y="72.9902" width="372.039" height="31.104" fill="#525D63"/>
<path d="M620 584C621.65 584 623.3 584 625 584C625 585.98 625 587.96 625 590C623.35 589.67 621.7 589.34 620 589C620 587.35 620 585.7 620 584Z" fill="#3C5461"/>
<path d="M125.22 92.4321H119.14L118.02 95.5321H116.1L121.14 81.6721H123.24L128.26 95.5321H126.34L125.22 92.4321ZM124.7 90.9521L122.18 83.9121L119.66 90.9521H124.7Z" fill="white"/>
<path d="M146.749 95.5321H144.929L137.609 84.4321V95.5321H135.789V81.5721H137.609L144.929 92.6521V81.5721H146.749V95.5321Z" fill="white"/>
<path d="M158.091 92.4321H152.011L150.891 95.5321H148.971L154.011 81.6721H156.111L161.131 95.5321H159.211L158.091 92.4321ZM157.571 90.9521L155.051 83.9121L152.531 90.9521H157.571Z" fill="white"/>
<path d="M170.668 95.5321L167.348 89.8321H165.148V95.5321H163.328V81.5921H167.828C168.881 81.5921 169.768 81.7721 170.488 82.1321C171.221 82.4921 171.768 82.9788 172.128 83.5921C172.488 84.2054 172.668 84.9054 172.668 85.6921C172.668 86.6521 172.388 87.4988 171.828 88.2321C171.281 88.9654 170.454 89.4521 169.348 89.6921L172.848 95.5321H170.668ZM165.148 88.3721H167.828C168.814 88.3721 169.554 88.1321 170.048 87.6521C170.541 87.1588 170.788 86.5054 170.788 85.6921C170.788 84.8654 170.541 84.2254 170.048 83.7721C169.568 83.3188 168.828 83.0921 167.828 83.0921H165.148V88.3721Z" fill="white"/>
<path d="M182.836 95.5321L179.516 89.8321H177.316V95.5321H175.496V81.5921H179.996C181.049 81.5921 181.936 81.7721 182.656 82.1321C183.389 82.4921 183.936 82.9788 184.296 83.5921C184.656 84.2054 184.836 84.9054 184.836 85.6921C184.836 86.6521 184.556 87.4988 183.996 88.2321C183.449 88.9654 182.622 89.4521 181.516 89.6921L185.016 95.5321H182.836ZM177.316 88.3721H179.996C180.982 88.3721 181.722 88.1321 182.216 87.6521C182.709 87.1588 182.956 86.5054 182.956 85.6921C182.956 84.8654 182.709 84.2254 182.216 83.7721C181.736 83.3188 180.996 83.0921 179.996 83.0921H177.316V88.3721Z" fill="white"/>
<path d="M195.904 92.4321H189.824L188.704 95.5321H186.784L191.824 81.6721H193.924L198.944 95.5321H197.024L195.904 92.4321ZM195.384 90.9521L192.864 83.9121L190.344 90.9521H195.384Z" fill="white"/>
<path d="M209.72 81.5921V83.0721H205.92V95.5321H204.1V83.0721H200.28V81.5921H209.72Z" fill="white"/>
<path d="M213.78 81.5921V95.5321H211.96V81.5921H213.78Z" fill="white"/>
<path d="M228.402 81.5921L223.142 95.5321H221.042L215.782 81.5921H217.722L222.102 93.6121L226.482 81.5921H228.402Z" fill="white"/>
<path d="M232.218 83.0721V87.7321H237.298V89.2321H232.218V94.0321H237.898V95.5321H230.398V81.5721H237.898V83.0721H232.218Z" fill="white"/>
<path d="M253.004 81.5921V91.8921C253.004 93.0388 252.651 93.9588 251.944 94.6521C251.237 95.3321 250.304 95.6721 249.144 95.6721C247.971 95.6721 247.031 95.3254 246.324 94.6321C245.617 93.9254 245.264 92.9654 245.264 91.7521H247.084C247.097 92.4321 247.271 92.9854 247.604 93.4121C247.951 93.8388 248.464 94.0521 249.144 94.0521C249.824 94.0521 250.331 93.8521 250.664 93.4521C250.997 93.0388 251.164 92.5188 251.164 91.8921V81.5921H253.004Z" fill="white"/>
<path d="M262.909 95.6721C261.616 95.6721 260.436 95.3721 259.369 94.7721C258.303 94.1588 257.456 93.3121 256.829 92.2321C256.216 91.1388 255.909 89.9121 255.909 88.5521C255.909 87.1921 256.216 85.9721 256.829 84.8921C257.456 83.7988 258.303 82.9521 259.369 82.3521C260.436 81.7388 261.616 81.4321 262.909 81.4321C264.216 81.4321 265.403 81.7388 266.469 82.3521C267.536 82.9521 268.376 83.7921 268.989 84.8721C269.603 85.9521 269.909 87.1788 269.909 88.5521C269.909 89.9254 269.603 91.1521 268.989 92.2321C268.376 93.3121 267.536 94.1588 266.469 94.7721C265.403 95.3721 264.216 95.6721 262.909 95.6721ZM262.909 94.0921C263.883 94.0921 264.756 93.8654 265.529 93.4121C266.316 92.9588 266.929 92.3121 267.369 91.4721C267.823 90.6321 268.049 89.6588 268.049 88.5521C268.049 87.4321 267.823 86.4588 267.369 85.6321C266.929 84.7921 266.323 84.1454 265.549 83.6921C264.776 83.2388 263.896 83.0121 262.909 83.0121C261.923 83.0121 261.043 83.2388 260.269 83.6921C259.496 84.1454 258.883 84.7921 258.429 85.6321C257.989 86.4588 257.769 87.4321 257.769 88.5521C257.769 89.6588 257.989 90.6321 258.429 91.4721C258.883 92.3121 259.496 92.9588 260.269 93.4121C261.056 93.8654 261.936 94.0921 262.909 94.0921Z" fill="white"/>
<path d="M274.092 81.5921V90.4121C274.092 91.6521 274.392 92.5721 274.992 93.1721C275.605 93.7721 276.452 94.0721 277.532 94.0721C278.599 94.0721 279.432 93.7721 280.032 93.1721C280.645 92.5721 280.952 91.6521 280.952 90.4121V81.5921H282.772V90.3921C282.772 91.5521 282.539 92.5321 282.072 93.3321C281.605 94.1188 280.972 94.7054 280.172 95.0921C279.385 95.4788 278.499 95.6721 277.512 95.6721C276.525 95.6721 275.632 95.4788 274.832 95.0921C274.045 94.7054 273.419 94.1188 272.952 93.3321C272.499 92.5321 272.272 91.5521 272.272 90.3921V81.5921H274.092Z" fill="white"/>
<path d="M293.148 95.5321L289.828 89.8321H287.628V95.5321H285.808V81.5921H290.308C291.361 81.5921 292.248 81.7721 292.968 82.1321C293.701 82.4921 294.248 82.9788 294.608 83.5921C294.968 84.2054 295.148 84.9054 295.148 85.6921C295.148 86.6521 294.868 87.4988 294.308 88.2321C293.761 88.9654 292.935 89.4521 291.828 89.6921L295.328 95.5321H293.148ZM287.628 88.3721H290.308C291.295 88.3721 292.035 88.1321 292.528 87.6521C293.021 87.1588 293.268 86.5054 293.268 85.6921C293.268 84.8654 293.021 84.2254 292.528 83.7721C292.048 83.3188 291.308 83.0921 290.308 83.0921H287.628V88.3721Z" fill="white"/>
<path d="M308.936 95.5321H307.116L299.796 84.4321V95.5321H297.976V81.5721H299.796L307.116 92.6521V81.5721H308.936V95.5321Z" fill="white"/>
<path d="M313.859 83.0721V87.7321H318.939V89.2321H313.859V94.0321H319.539V95.5321H312.039V81.5721H319.539V83.0721H313.859Z" fill="white"/>
<path d="M332.053 81.5921L327.513 90.2721V95.5321H325.693V90.2721L321.133 81.5921H323.153L326.593 88.6521L330.033 81.5921H332.053Z" fill="white"/>
<path d="M345.624 95.6721C344.331 95.6721 343.151 95.3721 342.084 94.7721C341.018 94.1588 340.171 93.3121 339.544 92.2321C338.931 91.1388 338.624 89.9121 338.624 88.5521C338.624 87.1921 338.931 85.9721 339.544 84.8921C340.171 83.7988 341.018 82.9521 342.084 82.3521C343.151 81.7388 344.331 81.4321 345.624 81.4321C346.931 81.4321 348.118 81.7388 349.184 82.3521C350.251 82.9521 351.091 83.7921 351.704 84.8721C352.318 85.9521 352.624 87.1788 352.624 88.5521C352.624 89.9254 352.318 91.1521 351.704 92.2321C351.091 93.3121 350.251 94.1588 349.184 94.7721C348.118 95.3721 346.931 95.6721 345.624 95.6721ZM345.624 94.0921C346.598 94.0921 347.471 93.8654 348.244 93.4121C349.031 92.9588 349.644 92.3121 350.084 91.4721C350.538 90.6321 350.764 89.6588 350.764 88.5521C350.764 87.4321 350.538 86.4588 350.084 85.6321C349.644 84.7921 349.038 84.1454 348.264 83.6921C347.491 83.2388 346.611 83.0121 345.624 83.0121C344.638 83.0121 343.758 83.2388 342.984 83.6921C342.211 84.1454 341.598 84.7921 341.144 85.6321C340.704 86.4588 340.484 87.4321 340.484 88.5521C340.484 89.6588 340.704 90.6321 341.144 91.4721C341.598 92.3121 342.211 92.9588 342.984 93.4121C343.771 93.8654 344.651 94.0921 345.624 94.0921Z" fill="white"/>
<path d="M362.907 81.5921V83.0721H356.847V87.7721H361.767V89.2521H356.847V95.5321H355.027V81.5921H362.907Z" fill="white"/>
<path d="M369.757 88.5521C369.757 87.1921 370.064 85.9721 370.677 84.8921C371.29 83.7988 372.124 82.9454 373.177 82.3321C374.244 81.7188 375.424 81.4121 376.717 81.4121C378.237 81.4121 379.564 81.7788 380.697 82.5121C381.83 83.2454 382.657 84.2854 383.177 85.6321H380.997C380.61 84.7921 380.05 84.1454 379.317 83.6921C378.597 83.2388 377.73 83.0121 376.717 83.0121C375.744 83.0121 374.87 83.2388 374.097 83.6921C373.324 84.1454 372.717 84.7921 372.277 85.6321C371.837 86.4588 371.617 87.4321 371.617 88.5521C371.617 89.6588 371.837 90.6321 372.277 91.4721C372.717 92.2988 373.324 92.9388 374.097 93.3921C374.87 93.8454 375.744 94.0721 376.717 94.0721C377.73 94.0721 378.597 93.8521 379.317 93.4121C380.05 92.9588 380.61 92.3121 380.997 91.4721H383.177C382.657 92.8054 381.83 93.8388 380.697 94.5721C379.564 95.2921 378.237 95.6521 376.717 95.6521C375.424 95.6521 374.244 95.3521 373.177 94.7521C372.124 94.1388 371.29 93.2921 370.677 92.2121C370.064 91.1321 369.757 89.9121 369.757 88.5521Z" fill="white"/>
<path d="M396.626 81.5921V95.5321H394.806V89.2121H387.706V95.5321H385.886V81.5921H387.706V87.7121H394.806V81.5921H396.626Z" fill="white"/>
<path d="M407.074 95.5321L403.754 89.8321H401.554V95.5321H399.734V81.5921H404.234C405.287 81.5921 406.174 81.7721 406.894 82.1321C407.627 82.4921 408.174 82.9788 408.534 83.5921C408.894 84.2054 409.074 84.9054 409.074 85.6921C409.074 86.6521 408.794 87.4988 408.234 88.2321C407.687 88.9654 406.861 89.4521 405.754 89.6921L409.254 95.5321H407.074ZM401.554 88.3721H404.234C405.221 88.3721 405.961 88.1321 406.454 87.6521C406.947 87.1588 407.194 86.5054 407.194 85.6921C407.194 84.8654 406.947 84.2254 406.454 83.7721C405.974 83.3188 405.234 83.0921 404.234 83.0921H401.554V88.3721Z" fill="white"/>
<path d="M413.722 81.5921V95.5321H411.902V81.5921H413.722Z" fill="white"/>
<path d="M421.244 95.6721C420.324 95.6721 419.497 95.5121 418.764 95.1921C418.044 94.8588 417.477 94.4054 417.064 93.8321C416.65 93.2454 416.437 92.5721 416.424 91.8121H418.364C418.43 92.4654 418.697 93.0188 419.164 93.4721C419.644 93.9121 420.337 94.1321 421.244 94.1321C422.11 94.1321 422.79 93.9188 423.284 93.4921C423.79 93.0521 424.044 92.4921 424.044 91.8121C424.044 91.2788 423.897 90.8454 423.604 90.5121C423.31 90.1788 422.944 89.9254 422.504 89.7521C422.064 89.5788 421.47 89.3921 420.724 89.1921C419.804 88.9521 419.064 88.7121 418.504 88.4721C417.957 88.2321 417.484 87.8588 417.084 87.3521C416.697 86.8321 416.504 86.1388 416.504 85.2721C416.504 84.5121 416.697 83.8388 417.084 83.2521C417.47 82.6654 418.01 82.2121 418.704 81.8921C419.41 81.5721 420.217 81.4121 421.124 81.4121C422.43 81.4121 423.497 81.7388 424.324 82.3921C425.164 83.0454 425.637 83.9121 425.744 84.9921H423.744C423.677 84.4588 423.397 83.9921 422.904 83.5921C422.41 83.1788 421.757 82.9721 420.944 82.9721C420.184 82.9721 419.564 83.1721 419.084 83.5721C418.604 83.9588 418.364 84.5054 418.364 85.2121C418.364 85.7188 418.504 86.1321 418.784 86.4521C419.077 86.7721 419.43 87.0188 419.844 87.1921C420.27 87.3521 420.864 87.5388 421.624 87.7521C422.544 88.0054 423.284 88.2588 423.844 88.5121C424.404 88.7521 424.884 89.1321 425.284 89.6521C425.684 90.1588 425.884 90.8521 425.884 91.7321C425.884 92.4121 425.704 93.0521 425.344 93.6521C424.984 94.2521 424.45 94.7388 423.744 95.1121C423.037 95.4854 422.204 95.6721 421.244 95.6721Z" fill="white"/>
<path d="M437.142 81.5921V83.0721H433.342V95.5321H431.522V83.0721H427.702V81.5921H437.142Z" fill="white"/>
<path d="M441.202 81.5921V95.5321H439.382V81.5921H441.202Z" fill="white"/>
<path d="M452.544 92.4321H446.464L445.344 95.5321H443.424L448.464 81.6721H450.564L455.584 95.5321H453.664L452.544 92.4321ZM452.024 90.9521L449.504 83.9121L446.984 90.9521H452.024Z" fill="white"/>
<path d="M468.741 95.5321H466.921L459.601 84.4321V95.5321H457.781V81.5721H459.601L466.921 92.6521V81.5721H468.741V95.5321Z" fill="white"/>
<rect x="447.16" y="308.788" width="258.682" height="31.104" fill="#525D63"/>
<path d="M468.603 317.039H470.705L475.648 329.113H475.819L480.762 317.039H482.864V331.584H481.216V320.533H481.074L476.529 331.584H474.938L470.392 320.533H470.25V331.584H468.603V317.039Z" fill="white"/>
<path d="M486.992 331.584H485.146L490.487 317.039H492.305L497.646 331.584H495.799L491.452 319.34H491.339L486.992 331.584ZM487.674 325.902H495.117V327.465H487.674V325.902Z" fill="white"/>
<path d="M497.417 318.601V317.039H508.326V318.601H503.752V331.584H501.99V318.601H497.417Z" fill="white"/>
<path d="M510.249 318.601V317.039H521.158V318.601H516.584V331.584H514.822V318.601H510.249Z" fill="white"/>
<path d="M523.876 331.584V317.039H525.637V323.516H533.393V317.039H535.154V331.584H533.393V325.078H525.637V331.584H523.876Z" fill="white"/>
<path d="M538.681 331.584V317.039H547.459V318.601H540.442V323.516H547.005V325.078H540.442V330.022H547.573V331.584H538.681Z" fill="white"/>
<path d="M553.276 331.584L549.299 317.039H551.088L554.128 328.885H554.27L557.367 317.039H559.355L562.452 328.885H562.594L565.634 317.039H567.424L563.446 331.584H561.628L558.418 319.993H558.304L555.094 331.584H553.276Z" fill="white"/>
<path d="M575.243 331.584V317.039H580.158C581.294 317.039 582.227 317.233 582.956 317.621C583.685 318.005 584.225 318.533 584.576 319.205C584.926 319.877 585.101 320.642 585.101 321.499C585.101 322.356 584.926 323.116 584.576 323.779C584.225 324.442 583.688 324.962 582.963 325.341C582.239 325.715 581.313 325.902 580.186 325.902H576.209V324.311H580.13C580.906 324.311 581.531 324.198 582.005 323.971C582.483 323.743 582.828 323.421 583.042 323.005C583.259 322.583 583.368 322.081 583.368 321.499C583.368 320.917 583.259 320.408 583.042 319.972C582.824 319.536 582.476 319.2 581.998 318.963C581.519 318.722 580.887 318.601 580.101 318.601H577.005V331.584H575.243ZM582.09 325.05L585.669 331.584H583.624L580.101 325.05H582.09Z" fill="white"/>
<path d="M593.661 331.584V317.039H595.423V330.022H602.184V331.584H593.661Z" fill="white"/>
<path d="M602.978 317.039H604.995L609.029 323.828H609.199L613.233 317.039H615.25L609.995 325.59V331.584H608.233V325.59L602.978 317.039Z" fill="white"/>
<path d="M629.062 317.039V331.584H627.358L619.432 320.164H619.29V331.584H617.528V317.039H619.233L627.188 328.488H627.33V317.039H629.062Z" fill="white"/>
<path d="M640.542 320.675C640.456 319.955 640.111 319.397 639.505 318.999C638.899 318.601 638.155 318.402 637.275 318.402C636.631 318.402 636.067 318.507 635.584 318.715C635.106 318.923 634.732 319.21 634.462 319.574C634.197 319.939 634.064 320.353 634.064 320.817C634.064 321.205 634.157 321.539 634.341 321.819C634.531 322.093 634.772 322.323 635.066 322.507C635.359 322.687 635.667 322.837 635.989 322.955C636.311 323.069 636.607 323.161 636.877 323.232L638.354 323.63C638.733 323.729 639.154 323.866 639.618 324.042C640.087 324.217 640.534 324.456 640.961 324.759C641.391 325.057 641.747 325.441 642.026 325.909C642.305 326.378 642.445 326.953 642.445 327.635C642.445 328.421 642.239 329.132 641.827 329.766C641.42 330.4 640.823 330.905 640.037 331.279C639.256 331.653 638.307 331.84 637.189 331.84C636.148 331.84 635.246 331.672 634.483 331.336C633.726 330.999 633.129 330.531 632.694 329.929C632.263 329.328 632.019 328.63 631.962 327.834H633.78C633.828 328.383 634.012 328.838 634.334 329.198C634.661 329.553 635.073 329.818 635.57 329.993C636.072 330.164 636.612 330.249 637.189 330.249C637.862 330.249 638.465 330.14 639 329.922C639.535 329.7 639.959 329.392 640.272 328.999C640.584 328.601 640.74 328.137 640.74 327.607C640.74 327.124 640.605 326.731 640.336 326.428C640.066 326.125 639.711 325.879 639.27 325.689C638.83 325.5 638.354 325.334 637.843 325.192L636.053 324.681C634.917 324.354 634.017 323.888 633.354 323.282C632.691 322.676 632.36 321.882 632.36 320.902C632.36 320.088 632.58 319.378 633.02 318.772C633.465 318.161 634.062 317.687 634.81 317.351C635.563 317.01 636.403 316.84 637.331 316.84C638.269 316.84 639.102 317.008 639.831 317.344C640.56 317.676 641.138 318.13 641.564 318.708C641.995 319.285 642.222 319.941 642.246 320.675H640.542Z" fill="white"/>
<path d="M645.341 331.584V317.039H647.102V324.255H647.273L653.807 317.039H656.108L650 323.601L656.108 331.584H653.977L648.92 324.823L647.102 326.868V331.584H645.341Z" fill="white"/>
<path d="M658.388 331.584V317.039H667.166V318.601H660.149V323.516H666.712V325.078H660.149V330.022H667.28V331.584H658.388Z" fill="white"/>
<path d="M669.091 317.039H671.108L675.142 323.828H675.312L679.347 317.039H681.364L676.108 325.59V331.584H674.347V325.59L669.091 317.039Z" fill="white"/>
<path d="M131.592 796.528V803.952H106.76V886H97.8V803.952H72.84V796.528H131.592Z" fill="white"/>
<path d="M217.292 796.528V886H208.332V844.144H159.82V886H150.86V796.528H159.82V836.72H208.332V796.528H217.292Z" fill="white"/>
<path d="M251.815 803.824V837.232H285.735V844.656H251.815V878.576H289.575V886H242.855V796.4H289.575V803.824H251.815Z" fill="white"/>
<path d="M123.874 1044.84L85.09 1003.5V1044.84H76.13V955.371H85.09V997.227L123.874 955.371H135.266L93.41 1000.04L135.65 1044.84H123.874Z" fill="white"/>
<path d="M162.96 955.371V1044.84H154V955.371H162.96Z" fill="white"/>
<path d="M255.826 1044.84H246.866L197.33 969.579V1044.84H188.37V955.371H197.33L246.866 1030.51V955.371H255.826V1044.84Z" fill="white"/>
<path d="M351.64 981.483C349.08 975.595 345.155 970.987 339.864 967.659C334.659 964.245 328.515 962.539 321.432 962.539C314.776 962.539 308.803 964.075 303.512 967.147C298.221 970.219 294.04 974.613 290.968 980.331C287.896 985.963 286.36 992.533 286.36 1000.04C286.36 1007.55 287.896 1014.17 290.968 1019.88C294.04 1025.6 298.221 1029.99 303.512 1033.07C308.803 1036.14 314.776 1037.67 321.432 1037.67C327.661 1037.67 333.251 1036.35 338.2 1033.71C343.235 1030.98 347.245 1027.14 350.232 1022.19C353.304 1017.15 355.053 1011.31 355.48 1004.65H317.848V997.355H364.952V1003.88C364.525 1011.73 362.392 1018.86 358.552 1025.26C354.712 1031.57 349.549 1036.57 343.064 1040.23C336.664 1043.9 329.453 1045.74 321.432 1045.74C313.155 1045.74 305.645 1043.82 298.904 1039.98C292.163 1036.05 286.829 1030.63 282.904 1023.72C279.064 1016.73 277.144 1008.83 277.144 1000.04C277.144 991.253 279.064 983.403 282.904 976.491C286.829 969.493 292.163 964.075 298.904 960.235C305.645 956.309 313.155 954.347 321.432 954.347C330.989 954.347 339.352 956.736 346.52 961.515C353.688 966.293 358.893 972.949 362.136 981.483H351.64Z" fill="white"/>
<path d="M412.981 955.371C422.88 955.371 431.37 957.163 438.453 960.747C445.536 964.331 450.954 969.493 454.709 976.235C458.464 982.976 460.341 990.997 460.341 1000.3C460.341 1009.51 458.464 1017.49 454.709 1024.23C450.954 1030.89 445.536 1036.01 438.453 1039.59C431.37 1043.09 422.88 1044.84 412.981 1044.84H386.485V955.371H412.981ZM412.981 1037.42C425.44 1037.42 434.912 1034.18 441.397 1027.69C447.968 1021.12 451.253 1011.99 451.253 1000.3C451.253 988.523 447.968 979.349 441.397 972.779C434.912 966.123 425.44 962.795 412.981 962.795H395.445V1037.42H412.981Z" fill="white"/>
<path d="M522.172 1045.74C513.895 1045.74 506.385 1043.82 499.644 1039.98C492.903 1036.05 487.569 1030.63 483.644 1023.72C479.804 1016.73 477.884 1008.83 477.884 1000.04C477.884 991.253 479.804 983.403 483.644 976.491C487.569 969.493 492.903 964.075 499.644 960.235C506.385 956.309 513.895 954.347 522.172 954.347C530.535 954.347 538.087 956.309 544.828 960.235C551.569 964.075 556.86 969.493 560.7 976.491C564.54 983.403 566.46 991.253 566.46 1000.04C566.46 1008.83 564.54 1016.73 560.7 1023.72C556.86 1030.63 551.569 1036.05 544.828 1039.98C538.087 1043.82 530.535 1045.74 522.172 1045.74ZM522.172 1037.93C528.828 1037.93 534.801 1036.39 540.092 1033.32C545.383 1030.25 549.564 1025.86 552.636 1020.14C555.708 1014.34 557.244 1007.64 557.244 1000.04C557.244 992.448 555.708 985.792 552.636 980.075C549.564 974.357 545.383 969.963 540.092 966.891C534.801 963.819 528.828 962.283 522.172 962.283C515.516 962.283 509.543 963.819 504.252 966.891C498.961 969.963 494.78 974.357 491.708 980.075C488.636 985.792 487.1 992.448 487.1 1000.04C487.1 1007.64 488.636 1014.34 491.708 1020.14C494.78 1025.86 498.961 1030.25 504.252 1033.32C509.543 1036.39 515.516 1037.93 522.172 1037.93Z" fill="white"/>
<path d="M675.399 956.523V1044.84H666.439V974.315L634.951 1044.84H628.423L596.935 974.571V1044.84H587.975V956.523H597.447L631.623 1033.07L665.799 956.523H675.399Z" fill="white"/>
<path d="M72.034 1154.63C72.034 1145.84 73.954 1137.99 77.794 1131.08C81.634 1124.08 86.882 1118.66 93.538 1114.82C100.194 1110.89 107.618 1108.93 115.81 1108.93C125.794 1108.93 134.327 1111.32 141.41 1116.1C148.578 1120.79 153.783 1127.45 157.026 1136.07H146.53C143.97 1130.01 140.045 1125.27 134.754 1121.86C129.549 1118.45 123.234 1116.74 115.81 1116.74C109.239 1116.74 103.309 1118.28 98.018 1121.35C92.8126 1124.42 88.7166 1128.86 85.73 1134.66C82.7433 1140.38 81.25 1147.03 81.25 1154.63C81.25 1162.22 82.7433 1168.88 85.73 1174.6C88.7166 1180.31 92.8126 1184.71 98.018 1187.78C103.309 1190.85 109.239 1192.39 115.81 1192.39C123.234 1192.39 129.549 1190.72 134.754 1187.4C140.045 1183.98 143.97 1179.29 146.53 1173.32H157.026C153.783 1181.85 148.578 1188.46 141.41 1193.16C134.242 1197.85 125.709 1200.2 115.81 1200.2C107.618 1200.2 100.194 1198.28 93.538 1194.44C86.882 1190.51 81.634 1185.09 77.794 1178.18C73.954 1171.27 72.034 1163.42 72.034 1154.63Z" fill="white"/>
<path d="M220.192 1200.32C211.915 1200.32 204.405 1198.4 197.664 1194.56C190.923 1190.64 185.589 1185.22 181.664 1178.31C177.824 1171.31 175.904 1163.42 175.904 1154.63C175.904 1145.84 177.824 1137.99 181.664 1131.08C185.589 1124.08 190.923 1118.66 197.664 1114.82C204.405 1110.89 211.915 1108.93 220.192 1108.93C228.555 1108.93 236.107 1110.89 242.848 1114.82C249.589 1118.66 254.88 1124.08 258.72 1131.08C262.56 1137.99 264.48 1145.84 264.48 1154.63C264.48 1163.42 262.56 1171.31 258.72 1178.31C254.88 1185.22 249.589 1190.64 242.848 1194.56C236.107 1198.4 228.555 1200.32 220.192 1200.32ZM220.192 1192.52C226.848 1192.52 232.821 1190.98 238.112 1187.91C243.403 1184.84 247.584 1180.44 250.656 1174.72C253.728 1168.92 255.264 1162.22 255.264 1154.63C255.264 1147.03 253.728 1140.38 250.656 1134.66C247.584 1128.94 243.403 1124.55 238.112 1121.48C232.821 1118.4 226.848 1116.87 220.192 1116.87C213.536 1116.87 207.563 1118.4 202.272 1121.48C196.981 1124.55 192.8 1128.94 189.728 1134.66C186.656 1140.38 185.12 1147.03 185.12 1154.63C185.12 1162.22 186.656 1168.92 189.728 1174.72C192.8 1180.44 196.981 1184.84 202.272 1187.91C207.563 1190.98 213.536 1192.52 220.192 1192.52Z" fill="white"/>
<path d="M373.419 1111.11V1199.43H364.459V1128.9L332.971 1199.43H326.443L294.955 1129.16V1199.43H285.995V1111.11H295.467L329.643 1187.65L363.819 1111.11H373.419Z" fill="white"/>
<path d="M407.825 1117.25V1150.66H441.745V1158.08H407.825V1192H445.585V1199.43H398.865V1109.83H445.585V1117.25H407.825Z" fill="white"/>
<circle cx="656.956" cy="547.893" r="82.2848" stroke="#28495F" stroke-width="4"/>
</g>
<defs>
<clipPath id="clip0_281_3">
<rect width="800" height="1280" fill="white"/>
</clipPath>
</defs>
</svg>
