<?xml version="1.0" encoding="UTF-8"?>
<svg id="Layer_1" data-name="Layer 1" xmlns="http://www.w3.org/2000/svg" xmlns:xlink="http://www.w3.org/1999/xlink" viewBox="0 0 396 612">
  <defs>
    <clipPath id="clippath">
      <rect width="396" height="612" style="fill: none;"/>
    </clipPath>
    <clipPath id="clippath-1">
      <rect width="396" height="612" style="fill: none;"/>
    </clipPath>
  </defs>
  <rect width="396" height="198.72" style="fill: #8d9d7b;"/>
  <rect y="198.72" width="396" height="413.28" style="fill: #4a5960;"/>
  <g>
    <path d="M52.96,343.82v-41.09h-14.51v-1.94h31.15v1.94h-14.58v41.09h-2.06Z" style="fill: #fff;"/>
    <path d="M109.14,343.82v-21.16h-29.35v21.16h-2.06v-43.02h2.06v19.93h29.35v-19.93h2.06v43.02h-2.06Z" style="fill: #fff;"/>
    <path d="M122.55,343.82v-43.02h26.32v1.94h-24.25v18h23.8v1.94h-23.8v19.22h24.25v1.93h-26.32Z" style="fill: #fff;"/>
  </g>
  <g>
    <path d="M73.28,421.21l-4.77-11.54h-23.99l-4.77,11.54h-2.39l17.93-43.02h2.45l17.93,43.02h-2.39ZM56.51,380.58l-11.22,27.15h22.45l-11.22-27.15Z" style="fill: #fff;"/>
    <path d="M82.69,421.21v-43.02h2.06v43.02h-2.06Z" style="fill: #fff;"/>
    <path d="M132.36,421.21v-40.57l-16.77,40.57h-.65l-16.77-40.57v40.57h-2.06v-43.02h3.29l15.87,38.51,15.87-38.51h3.29v43.02h-2.06Z" style="fill: #fff;"/>
  </g>
  <g>
    <path d="M60.64,454.88c12.45,0,20.45,9.8,20.45,22.25s-8,22.25-20.45,22.25-20.45-9.8-20.45-22.25,7.93-22.25,20.45-22.25ZM60.64,456.81c-11.16,0-18.19,8.51-18.19,20.32s7.03,20.32,18.19,20.32,18.19-8.64,18.19-20.32-7.16-20.32-18.19-20.32Z" style="fill: #fff;"/>
    <path d="M90.95,498.61v-43.02h26.32v1.93h-24.25v18h23.8v1.94h-23.8v21.16h-2.06Z" style="fill: #fff;"/>
    <path d="M161.05,454.88c12.45,0,20.45,9.8,20.45,22.25s-8,22.25-20.45,22.25-20.45-9.8-20.45-22.25,7.93-22.25,20.45-22.25ZM161.05,456.81c-11.16,0-18.19,8.51-18.19,20.32s7.03,20.32,18.19,20.32,18.19-8.64,18.19-20.32-7.16-20.32-18.19-20.32Z" style="fill: #fff;"/>
    <path d="M191.36,455.59h2.06v26.7c0,9.55,4.9,15.16,13.93,15.16s13.93-5.61,13.93-15.16v-26.7h2.06v26.7c0,10.64-5.55,17.09-16,17.09s-16-6.51-16-17.09v-26.7Z" style="fill: #fff;"/>
    <path d="M260.18,498.61l-13.09-18.58h-10.32v18.58h-2.06v-43.02h14.83c6.97,0,12.71,4.32,12.71,12.19s-5.74,12.25-12.71,12.25l13.29,18.58h-2.64ZM249.54,457.52h-12.77v20.58h12.77c6.32,0,10.45-4.39,10.45-10.32s-4.13-10.26-10.45-10.26Z" style="fill: #fff;"/>
  </g>
  <g>
    <path d="M40.19,554.52c0-13.22,9.55-22.25,21.48-22.25,6.06,0,11.16,2.39,14.96,6.77l-1.61,1.42c-3.03-3.81-8-6.26-13.35-6.26-10.77,0-19.22,8.19-19.22,20.32s8.45,20.32,19.22,20.32c5.35,0,10.32-2.45,13.35-6.26l1.68,1.35c-4.06,4.58-8.97,6.84-15.03,6.84-11.93,0-21.48-9.03-21.48-22.25Z" style="fill: #fff;"/>
    <path d="M116.1,576v-21.16h-29.35v21.16h-2.06v-43.02h2.06v19.93h29.35v-19.93h2.06v43.02h-2.06Z" style="fill: #fff;"/>
    <path d="M161.12,576l-4.77-11.54h-23.99l-4.77,11.54h-2.39l17.93-43.02h2.45l17.93,43.02h-2.39ZM144.35,535.37l-11.22,27.15h22.45l-11.22-27.15Z" style="fill: #fff;"/>
    <path d="M196.01,576l-13.09-18.58h-10.32v18.58h-2.06v-43.02h14.83c6.97,0,12.71,4.32,12.71,12.19s-5.74,12.25-12.71,12.25l13.29,18.58h-2.64ZM185.37,534.91h-12.77v20.58h12.77c6.32,0,10.45-4.39,10.45-10.32s-4.13-10.26-10.45-10.26Z" style="fill: #fff;"/>
    <path d="M227.87,532.27c6.51,0,11.54,2.32,15.74,6.64l-1.35,1.42c-3.35-3.81-8.64-6.13-14.38-6.13-10.77,0-19.22,8.19-19.22,20.32s8.45,20.38,19.22,20.38c6.32,0,11.16-3.16,13.67-5.8v-11.8h-17.74v-1.93h19.8v14.58c-3.68,4.13-9.29,6.9-15.74,6.9-11.93,0-21.48-9.09-21.48-22.32s9.55-22.25,21.48-22.25Z" style="fill: #fff;"/>
    <path d="M253.54,576v-43.02h26.32v1.93h-24.25v18h23.8v1.94h-23.8v19.22h24.25v1.93h-26.32Z" style="fill: #fff;"/>
  </g>
  <rect x="38" y="42.89" width="320" height="113.31" style="fill: none; stroke: #4a5960; stroke-width: 4px;"/>
  <rect x="52.56" y="36" width="197.71" height="16.11" style="fill: #4a5960;"/>
  <g>
    <path d="M66.36,46.91l-.38-1.04h-2.68l-.38,1.04h-1.4l2.32-6h1.6l2.31,6h-1.4ZM64.64,42.01l-1,2.75h1.99l-.99-2.75Z" style="fill: #fff;"/>
    <path d="M75.49,46.91l-2.86-4.03v4.03h-1.28v-6h1.31l2.78,3.89v-3.89h1.28v6h-1.23Z" style="fill: #fff;"/>
    <path d="M82.66,46.91l-.38-1.04h-2.68l-.38,1.04h-1.4l2.32-6h1.6l2.31,6h-1.4ZM80.94,42.01l-1,2.75h1.99l-.99-2.75Z" style="fill: #fff;"/>
    <path d="M88.54,46.91l-1.18-2.15h-.94v2.15h-1.28v-6h2.81c1.25,0,2.02.82,2.02,1.94s-.67,1.63-1.31,1.78l1.35,2.29h-1.47ZM87.77,42h-1.34v1.66h1.34c.51,0,.9-.32.9-.83s-.39-.83-.9-.83Z" style="fill: #fff;"/>
    <path d="M94.87,46.91l-1.18-2.15h-.94v2.15h-1.28v-6h2.81c1.25,0,2.02.82,2.02,1.94s-.67,1.63-1.31,1.78l1.35,2.29h-1.47ZM94.1,42h-1.34v1.66h1.34c.51,0,.9-.32.9-.83s-.39-.83-.9-.83Z" style="fill: #fff;"/>
    <path d="M102.01,46.91l-.38-1.04h-2.68l-.38,1.04h-1.4l2.32-6h1.6l2.31,6h-1.4ZM100.29,42.01l-1,2.75h1.99l-.99-2.75Z" style="fill: #fff;"/>
    <path d="M105.32,46.91v-4.88h-1.76v-1.13h4.79v1.13h-1.75v4.88h-1.29Z" style="fill: #fff;"/>
    <path d="M109.71,46.91v-6h1.28v6h-1.28Z" style="fill: #fff;"/>
    <path d="M114.4,46.91l-2.32-6h1.46l1.67,4.62,1.66-4.62h1.46l-2.31,6h-1.6Z" style="fill: #fff;"/>
    <path d="M119.41,46.91v-6h4.25v1.1h-2.97v1.31h2.91v1.1h-2.91v1.4h2.97v1.11h-4.25Z" style="fill: #fff;"/>
    <path d="M127.71,45.45c.23.23.54.43.95.43.57,0,.94-.38.94-.96v-4.02h1.28v4.03c0,1.42-.88,2.08-2.12,2.08-.61,0-1.18-.16-1.61-.58l.56-.98Z" style="fill: #fff;"/>
    <path d="M135.44,40.81c1.82,0,3.14,1.3,3.14,3.11s-1.32,3.11-3.14,3.11-3.13-1.3-3.13-3.11,1.32-3.11,3.13-3.11ZM135.44,41.94c-1.11,0-1.82.85-1.82,1.97s.71,1.97,1.82,1.97,1.83-.85,1.83-1.97-.72-1.97-1.83-1.97Z" style="fill: #fff;"/>
    <path d="M140.02,40.91h1.3v3.56c0,.84.46,1.41,1.4,1.41s1.38-.58,1.38-1.41v-3.56h1.3v3.6c0,1.49-.86,2.51-2.67,2.51s-2.69-1.03-2.69-2.5v-3.61Z" style="fill: #fff;"/>
    <path d="M150.51,46.91l-1.18-2.15h-.94v2.15h-1.28v-6h2.81c1.25,0,2.02.82,2.02,1.94s-.67,1.63-1.31,1.78l1.35,2.29h-1.47ZM149.73,42h-1.34v1.66h1.34c.51,0,.9-.32.9-.83s-.39-.83-.9-.83Z" style="fill: #fff;"/>
    <path d="M157.58,46.91l-2.86-4.03v4.03h-1.28v-6h1.31l2.78,3.89v-3.89h1.28v6h-1.23Z" style="fill: #fff;"/>
    <path d="M160.54,46.91v-6h4.25v1.1h-2.97v1.31h2.91v1.1h-2.91v1.4h2.97v1.11h-4.25Z" style="fill: #fff;"/>
    <path d="M168,46.91v-2.46l-2.31-3.55h1.46l1.49,2.41,1.48-2.41h1.46l-2.3,3.55v2.46h-1.28Z" style="fill: #fff;"/>
    <path d="M178.02,40.81c1.82,0,3.14,1.3,3.14,3.11s-1.32,3.11-3.14,3.11-3.13-1.3-3.13-3.11,1.32-3.11,3.13-3.11ZM178.02,41.94c-1.11,0-1.82.85-1.82,1.97s.71,1.97,1.82,1.97,1.83-.85,1.83-1.97-.72-1.97-1.83-1.97Z" style="fill: #fff;"/>
    <path d="M182.59,46.91v-6h4.25v1.1h-2.97v1.31h2.91v1.1h-2.91v2.5h-1.28Z" style="fill: #fff;"/>
    <path d="M190.47,43.91c0-1.85,1.4-3.11,3.15-3.11,1.37,0,2.13.72,2.56,1.47l-1.1.54c-.25-.49-.79-.87-1.46-.87-1.04,0-1.84.84-1.84,1.97s.79,1.97,1.84,1.97c.67,0,1.21-.38,1.46-.87l1.1.53c-.43.75-1.19,1.48-2.56,1.48-1.76,0-3.15-1.26-3.15-3.11Z" style="fill: #fff;"/>
    <path d="M201.6,46.91v-2.52h-2.84v2.52h-1.28v-6h1.28v2.36h2.84v-2.36h1.29v6h-1.29Z" style="fill: #fff;"/>
    <path d="M208,46.91l-1.18-2.15h-.94v2.15h-1.28v-6h2.81c1.25,0,2.02.82,2.02,1.94s-.67,1.63-1.31,1.78l1.35,2.29h-1.47ZM207.22,42h-1.34v1.66h1.34c.51,0,.9-.32.9-.83s-.39-.83-.9-.83Z" style="fill: #fff;"/>
    <path d="M210.93,46.91v-6h1.28v6h-1.28Z" style="fill: #fff;"/>
    <path d="M214.22,45.09c.42.44,1.08.81,1.91.81.7,0,1.04-.33,1.04-.68,0-.45-.52-.6-1.21-.77-.98-.23-2.24-.5-2.24-1.84,0-1,.86-1.81,2.28-1.81.95,0,1.75.29,2.34.84l-.71.94c-.49-.45-1.13-.66-1.72-.66s-.88.25-.88.61c0,.41.5.53,1.2.69.99.22,2.25.52,2.25,1.85,0,1.1-.78,1.93-2.4,1.93-1.15,0-1.98-.39-2.55-.95l.7-.97Z" style="fill: #fff;"/>
    <path d="M221.15,46.91v-4.88h-1.76v-1.13h4.79v1.13h-1.75v4.88h-1.29Z" style="fill: #fff;"/>
    <path d="M225.54,46.91v-6h1.28v6h-1.28Z" style="fill: #fff;"/>
    <path d="M232.75,46.91l-.38-1.04h-2.68l-.38,1.04h-1.4l2.32-6h1.6l2.31,6h-1.4ZM231.03,42.01l-1,2.75h1.99l-.99-2.75Z" style="fill: #fff;"/>
    <path d="M239.38,46.91l-2.86-4.03v4.03h-1.28v-6h1.31l2.78,3.89v-3.89h1.28v6h-1.23Z" style="fill: #fff;"/>
  </g>
  <g>
    <path d="M57.93,124.23v-52.69h4.19v52.69h-4.19Z" style="fill: #fff;"/>
    <path d="M90.48,124.23l-13.82-42.1v42.1h-4.19v-52.69h4.19l13.67,41.31v-41.31h4.27v52.69h-4.11Z" style="fill: #fff;"/>
    <path d="M103.75,117.12c1.74,2.61,4.82,4.19,7.66,4.19,4.11,0,7.5-3.55,7.5-9.16,0-6.4-3.79-10.03-7.74-13.67-4.11-3.87-8.45-7.9-8.45-15.56s4.9-12.24,10.98-12.24c3.32,0,6.32,1.11,8.53,3.48l-2.05,3.24c-1.74-1.9-3.87-2.84-6.4-2.84-3.63,0-6.79,3.16-6.79,8.29s3.4,8.53,7.11,12.09c4.34,4.11,9.08,8.61,9.08,17.06,0,7.5-4.58,13.19-11.61,13.19-4.11,0-7.74-1.66-10.27-4.66l2.45-3.4Z" style="fill: #fff;"/>
    <path d="M135.19,124.23v-48.82h-8.45v-3.87h21.25v3.87h-8.53v48.82h-4.27Z" style="fill: #fff;"/>
    <path d="M171.06,124.23l-7.35-22.04h-5.21v22.04h-4.19v-52.69h9.4c6.71,0,11.53,5.61,11.53,15.25s-4.19,13.43-7.5,14.53l7.98,22.91h-4.66ZM163.31,75.41h-4.82v22.99h4.82c5.13,0,7.5-4.82,7.5-11.53s-2.37-11.45-7.5-11.45Z" style="fill: #fff;"/>
    <path d="M184.57,71.54h4.19v39.89c0,7.35,2.76,9.87,6.87,9.87s6.87-2.53,6.87-9.87v-39.89h4.27v39.81c0,9.64-4.5,13.82-11.14,13.82s-11.06-4.19-11.06-13.82v-39.81Z" style="fill: #fff;"/>
    <path d="M215.45,97.93c0-15.17,3.4-27.25,12.64-27.25,5.92,0,8.37,4.5,9.88,9.16l-3.63,1.34c-1.34-4.03-2.84-6.64-6.24-6.64-5.92,0-8.14,10.27-8.14,23.38s2.21,23.38,8.14,23.38c3.87,0,5.37-3.55,6.4-8.14l3.71,1.42c-1.34,5.53-4.03,10.58-10.11,10.58-9.24,0-12.64-12.09-12.64-27.25Z" style="fill: #fff;"/>
    <path d="M250.69,124.23v-48.82h-8.45v-3.87h21.25v3.87h-8.53v48.82h-4.27Z" style="fill: #fff;"/>
    <path d="M269.88,124.23v-52.69h4.19v52.69h-4.19Z" style="fill: #fff;"/>
    <path d="M295.4,70.67c9.4,0,12.64,12.48,12.64,27.25s-3.24,27.25-12.64,27.25-12.56-12.4-12.56-27.25,3.24-27.25,12.56-27.25ZM295.4,74.55c-6,0-8.06,10.82-8.06,23.38s2.05,23.38,8.06,23.38,8.14-10.98,8.14-23.38-2.05-23.38-8.14-23.38Z" style="fill: #fff;"/>
    <path d="M334.82,124.23l-13.82-42.1v42.1h-4.19v-52.69h4.19l13.67,41.31v-41.31h4.27v52.69h-4.11Z" style="fill: #fff;"/>
  </g>
  <rect x="220.46" y="146.61" width="122.98" height="16.11" style="fill: #4a5960;"/>
  <g>
    <path d="M235.28,157.52v-4.32l-1.69,4.32h-.56l-1.69-4.32v4.32h-1.28v-6h1.79l1.46,3.75,1.46-3.75h1.8v6h-1.29Z" style="fill: #fff;"/>
    <path d="M242.4,157.52l-.38-1.04h-2.68l-.38,1.04h-1.4l2.32-6h1.6l2.31,6h-1.4ZM240.68,152.62l-1,2.75h1.99l-.99-2.75Z" style="fill: #fff;"/>
    <path d="M245.62,157.52v-4.88h-1.76v-1.13h4.79v1.13h-1.75v4.88h-1.29Z" style="fill: #fff;"/>
    <path d="M251.31,157.52v-4.88h-1.76v-1.13h4.79v1.13h-1.75v4.88h-1.29Z" style="fill: #fff;"/>
    <path d="M259.72,157.52v-2.52h-2.83v2.52h-1.28v-6h1.28v2.36h2.83v-2.36h1.29v6h-1.29Z" style="fill: #fff;"/>
    <path d="M262.64,157.52v-6h4.25v1.1h-2.97v1.31h2.91v1.1h-2.91v1.4h2.97v1.11h-4.25Z" style="fill: #fff;"/>
    <path d="M272.92,157.52l-1.05-4.12-1.04,4.12h-1.36l-1.72-6h1.43l1.05,4.34,1.14-4.34h1l1.13,4.34,1.04-4.34h1.44l-1.71,6h-1.36Z" style="fill: #fff;"/>
    <path d="M283.17,157.52l-1.18-2.15h-.94v2.15h-1.28v-6h2.81c1.25,0,2.02.82,2.02,1.94s-.67,1.63-1.31,1.78l1.35,2.29h-1.47ZM282.39,152.61h-1.34v1.66h1.34c.51,0,.9-.32.9-.83s-.39-.83-.9-.83Z" style="fill: #fff;"/>
    <path d="M286.57,156.16c.4,0,.73.33.73.73s-.33.73-.73.73-.73-.33-.73-.73.33-.73.73-.73Z" style="fill: #fff;"/>
    <path d="M291.5,157.52v-6h1.28v4.88h2.54v1.13h-3.82Z" style="fill: #fff;"/>
    <path d="M297.2,157.52v-2.46l-2.31-3.55h1.46l1.5,2.41,1.48-2.41h1.46l-2.3,3.55v2.46h-1.28Z" style="fill: #fff;"/>
    <path d="M305.92,157.52l-2.86-4.03v4.03h-1.28v-6h1.31l2.78,3.89v-3.89h1.28v6h-1.23Z" style="fill: #fff;"/>
    <path d="M309.08,155.7c.42.44,1.08.81,1.91.81.7,0,1.04-.33,1.04-.68,0-.45-.52-.6-1.21-.77-.98-.23-2.24-.5-2.24-1.84,0-1,.86-1.81,2.28-1.81.95,0,1.75.29,2.34.84l-.71.94c-.49-.45-1.13-.66-1.72-.66s-.88.25-.88.61c0,.41.5.53,1.2.69.99.22,2.25.52,2.25,1.85,0,1.1-.78,1.93-2.4,1.93-1.15,0-1.98-.39-2.55-.95l.7-.97Z" style="fill: #fff;"/>
    <path d="M318.21,157.52l-1.82-2.4-.47.56v1.85h-1.28v-6h1.28v2.68l2.12-2.68h1.58l-2.39,2.82,2.55,3.19h-1.58Z" style="fill: #fff;"/>
    <path d="M320.81,157.52v-6h4.25v1.1h-2.97v1.31h2.91v1.1h-2.91v1.4h2.97v1.11h-4.25Z" style="fill: #fff;"/>
    <path d="M328.18,157.52v-2.46l-2.31-3.55h1.46l1.5,2.41,1.48-2.41h1.46l-2.3,3.55v2.46h-1.28Z" style="fill: #fff;"/>
  </g>
  <g style="clip-path: url(#clippath);">
    <path d="M344.78,270.16l-.73,2.65h-45.27l-.73-2.65h46.73ZM328.42,268.32h-14l.27-4.27-1.84-.11-.28,4.39h-2.81c.1-2.05.29-4.39.54-6.8v-.17c.01-.92.4-1.78.72-2.34.42-.74,1.12-1.32,1.97-1.62l3.1-1.11,3.72,6.92h3.22l3.72-6.92,3.09,1.1c.85.31,1.55.89,1.98,1.63.47.81.7,1.62.71,2.44,0,.03.37,3.34.55,6.86h-2.81l-.28-4.39-1.84.11.27,4.27ZM334.59,263.57c-.12-1.3-.17-1.92-.24-2.22h.02c0-1.07-.32-2.17-.95-3.26-.64-1.12-1.69-1.99-2.95-2.45l-4.59-1.64-3.95,7.35h-1.01l-3.95-7.35-4.59,1.64c-1.26.46-2.31,1.32-2.95,2.44-.62,1.08-.95,2.18-.95,3.2-.1.89-.42,4.05-.57,7.29h.27s-11.9.01-11.9.01l-.02-.07-.27.07-.27.07,1.65,5.99h3.46v13.32h1.85v-13.32h3.3v8.18h1.85v-8.18h27.17v8.18h1.85v-8.18h3.3v13.32h1.85v-13.32h3.46l1.74-6.34h-12.28c-.09-1.82-.23-3.57-.34-4.75" style="fill: #8d9d7b;"/>
    <path d="M316.81,247.01c0-2.54,2.07-4.61,4.61-4.61s4.61,2.07,4.61,4.61-2.07,4.6-4.61,4.6-4.61-2.07-4.61-4.6M321.42,253.47c3.56,0,6.45-2.89,6.45-6.45s-2.89-6.45-6.45-6.45-6.45,2.89-6.45,6.45,2.89,6.45,6.45,6.45" style="fill: #8d9d7b;"/>
  </g>
  <rect x="305.44" y="240.6" width="1.85" height="4.97" transform="translate(-57.36 386.8) rotate(-59.99)" style="fill: #8d9d7b;"/>
  <rect x="311.8" y="234.24" width="1.85" height="4.97" transform="translate(-76.46 188.07) rotate(-30)" style="fill: #8d9d7b;"/>
  <rect x="320.49" y="231.91" width="1.85" height="4.97" style="fill: #8d9d7b;"/>
  <rect x="327.62" y="235.8" width="4.97" height="1.85" transform="translate(-39.99 404.18) rotate(-59.99)" style="fill: #8d9d7b;"/>
  <rect x="333.99" y="242.17" width="4.97" height="1.85" transform="translate(-76.47 200.88) rotate(-30.01)" style="fill: #8d9d7b;"/>
  <g style="clip-path: url(#clippath-1);">
    <path d="M321.47,299.39c21.01,0,38.03-17.03,38.03-38.03s-17.03-38.04-38.03-38.04-38.03,17.03-38.03,38.04,17.03,38.03,38.03,38.03Z" style="fill: none; stroke: #8d9d7b;"/>
  </g>
</svg>