<svg width="422" height="630" viewBox="0 0 422 630" fill="none" xmlns="http://www.w3.org/2000/svg">
<rect width="422" height="630" fill="#3B3F38"/>
<path d="M42.5705 294.228C42.0665 293.532 41.3825 292.968 40.5185 292.536C39.6545 292.08 38.6825 291.852 37.6025 291.852C37.0265 291.852 36.4385 291.936 35.8385 292.104C35.2625 292.248 34.7345 292.5 34.2545 292.86C33.7745 293.196 33.3785 293.628 33.0665 294.156C32.7785 294.66 32.6345 295.272 32.6345 295.992C32.6345 296.688 32.7665 297.276 33.0305 297.756C33.3185 298.212 33.6905 298.608 34.1465 298.944C34.6265 299.256 35.1785 299.532 35.8025 299.772C36.4505 299.988 37.1345 300.216 37.8545 300.456C38.7185 300.72 39.5945 301.02 40.4825 301.356C41.3705 301.692 42.1745 302.136 42.8945 302.688C43.6145 303.24 44.2025 303.936 44.6585 304.776C45.1145 305.592 45.3425 306.636 45.3425 307.908C45.3425 309.228 45.0905 310.38 44.5865 311.364C44.1065 312.324 43.4585 313.128 42.6425 313.776C41.8265 314.4 40.8785 314.868 39.7985 315.18C38.7425 315.492 37.6505 315.648 36.5225 315.648C34.9145 315.648 33.3545 315.336 31.8425 314.712C30.3545 314.088 29.1185 313.164 28.1345 311.94L30.9065 309.6C31.5065 310.488 32.3105 311.208 33.3185 311.76C34.3265 312.312 35.4185 312.588 36.5945 312.588C37.1945 312.588 37.7945 312.504 38.3945 312.336C38.9945 312.168 39.5345 311.904 40.0145 311.544C40.5185 311.184 40.9265 310.74 41.2385 310.212C41.5505 309.66 41.7065 309 41.7065 308.232C41.7065 307.464 41.5385 306.828 41.2025 306.324C40.8905 305.796 40.4585 305.352 39.9065 304.992C39.3545 304.632 38.7065 304.332 37.9625 304.092C37.2425 303.828 36.4745 303.564 35.6585 303.3C34.8425 303.06 34.0385 302.772 33.2465 302.436C32.4545 302.076 31.7465 301.632 31.1225 301.104C30.4985 300.552 29.9945 299.88 29.6105 299.088C29.2265 298.296 29.0345 297.312 29.0345 296.136C29.0345 294.864 29.2865 293.772 29.7905 292.86C30.3185 291.948 30.9905 291.192 31.8065 290.592C32.6465 289.992 33.5825 289.56 34.6145 289.296C35.6705 289.008 36.7265 288.864 37.7825 288.864C39.2705 288.864 40.6625 289.128 41.9585 289.656C43.2545 290.184 44.2985 290.892 45.0905 291.78L42.5705 294.228Z" fill="#B4B5B4"/>
<path d="M51.4386 315H47.4786L58.5306 289.512H61.7706L72.7146 315H68.6826L66.0906 308.736H53.9946L51.4386 315ZM55.2546 305.604H64.7946L60.0426 293.652L55.2546 305.604Z" fill="#B4B5B4"/>
<path d="M97.2076 311.04C96.1996 312.408 94.8916 313.524 93.2836 314.388C91.6756 315.228 89.7436 315.648 87.4876 315.648C85.5436 315.648 83.7436 315.324 82.0876 314.676C80.4556 314.004 79.0396 313.08 77.8396 311.904C76.6636 310.704 75.7396 309.288 75.0676 307.656C74.3956 306 74.0596 304.188 74.0596 302.22C74.0596 300.228 74.3956 298.416 75.0676 296.784C75.7636 295.128 76.7116 293.724 77.9116 292.572C79.1356 291.396 80.5756 290.484 82.2316 289.836C83.8876 289.188 85.6876 288.864 87.6316 288.864C88.4956 288.864 89.3716 288.948 90.2596 289.116C91.1476 289.284 91.9996 289.536 92.8156 289.872C93.6316 290.208 94.3756 290.628 95.0476 291.132C95.7196 291.612 96.2956 292.176 96.7756 292.824L93.9676 294.984C93.3436 294.12 92.4556 293.412 91.3036 292.86C90.1756 292.284 88.9516 291.996 87.6316 291.996C86.1436 291.996 84.7996 292.272 83.5996 292.824C82.4236 293.352 81.4156 294.084 80.5756 295.02C79.7356 295.956 79.0876 297.048 78.6316 298.296C78.1756 299.52 77.9476 300.828 77.9476 302.22C77.9476 303.66 78.1636 305.004 78.5956 306.252C79.0516 307.5 79.6876 308.592 80.5036 309.528C81.3436 310.44 82.3516 311.16 83.5276 311.688C84.7276 312.216 86.0596 312.48 87.5236 312.48C88.9636 312.48 90.2716 312.192 91.4476 311.616C92.6236 311.04 93.5956 310.2 94.3636 309.096L97.2076 311.04Z" fill="#B4B5B4"/>
<path d="M104.408 315H100.844V289.512H109.016C110.24 289.512 111.404 289.644 112.508 289.908C113.612 290.148 114.572 290.544 115.388 291.096C116.228 291.648 116.888 292.38 117.368 293.292C117.848 294.18 118.088 295.272 118.088 296.568C118.088 298.44 117.512 299.952 116.36 301.104C115.208 302.256 113.72 302.988 111.896 303.3L119.024 315H114.704L108.224 303.66H104.408V315ZM104.408 300.672H108.512C109.352 300.672 110.132 300.6 110.852 300.456C111.572 300.312 112.196 300.084 112.724 299.772C113.276 299.436 113.708 299.016 114.02 298.512C114.332 297.984 114.488 297.336 114.488 296.568C114.488 295.8 114.332 295.164 114.02 294.66C113.708 294.132 113.288 293.712 112.76 293.4C112.256 293.088 111.656 292.872 110.96 292.752C110.264 292.608 109.532 292.536 108.764 292.536H104.408V300.672Z" fill="#B4B5B4"/>
<path d="M126.521 311.832H139.841V315H122.957V289.512H139.301V292.644H126.521V300.276H138.545V303.336H126.521V311.832Z" fill="#B4B5B4"/>
<path d="M144.578 289.512H153.326C154.958 289.512 156.59 289.752 158.222 290.232C159.854 290.712 161.33 291.468 162.65 292.5C163.97 293.532 165.038 294.852 165.854 296.46C166.67 298.068 167.078 300 167.078 302.256C167.078 304.44 166.67 306.336 165.854 307.944C165.038 309.528 163.97 310.848 162.65 311.904C161.33 312.936 159.854 313.716 158.222 314.244C156.59 314.748 154.958 315 153.326 315H144.578V289.512ZM148.142 311.868H152.606C154.142 311.868 155.558 311.652 156.854 311.22C158.174 310.788 159.302 310.164 160.238 309.348C161.198 308.532 161.942 307.524 162.47 306.324C162.998 305.124 163.262 303.768 163.262 302.256C163.262 300.672 162.998 299.28 162.47 298.08C161.942 296.88 161.198 295.884 160.238 295.092C159.302 294.276 158.174 293.664 156.854 293.256C155.558 292.824 154.142 292.608 152.606 292.608H148.142V311.868Z" fill="#B4B5B4"/>
<path d="M194.141 309.096H194.213L201.737 289.512H207.281V315H203.717V293.688H203.645L195.185 315H192.917L184.493 293.688H184.421V315H180.965V289.512H186.509L194.141 309.096Z" fill="#B4B5B4"/>
<path d="M214.528 315H210.568L221.62 289.512H224.86L235.804 315H231.772L229.18 308.736H217.084L214.528 315ZM218.344 305.604H227.884L223.132 293.652L218.344 305.604Z" fill="#B4B5B4"/>
<path d="M242.642 315H239.078V289.512H247.25C248.474 289.512 249.638 289.644 250.742 289.908C251.846 290.148 252.806 290.544 253.622 291.096C254.462 291.648 255.122 292.38 255.602 293.292C256.082 294.18 256.322 295.272 256.322 296.568C256.322 298.44 255.746 299.952 254.594 301.104C253.442 302.256 251.954 302.988 250.13 303.3L257.258 315H252.938L246.458 303.66H242.642V315ZM242.642 300.672H246.746C247.586 300.672 248.366 300.6 249.086 300.456C249.806 300.312 250.43 300.084 250.958 299.772C251.51 299.436 251.942 299.016 252.254 298.512C252.566 297.984 252.722 297.336 252.722 296.568C252.722 295.8 252.566 295.164 252.254 294.66C251.942 294.132 251.522 293.712 250.994 293.4C250.49 293.088 249.89 292.872 249.194 292.752C248.498 292.608 247.766 292.536 246.998 292.536H242.642V300.672Z" fill="#B4B5B4"/>
<path d="M264.755 300.744H264.827L276.203 289.512H281.135L268.751 301.176L281.891 315H276.779L264.827 301.824H264.755V315H261.191V289.512H264.755V300.744Z" fill="#B4B5B4"/>
<path d="M288.486 315H284.922V289.512H288.486V315Z" fill="#B4B5B4"/>
<path d="M312.659 309.888H312.731V289.512H316.295V315H311.795L298.331 294.192H298.259V315H294.695V289.512H299.339L312.659 309.888Z" fill="#B4B5B4"/>
<path d="M341.728 294.768C340.96 293.928 339.976 293.256 338.776 292.752C337.6 292.248 336.28 291.996 334.816 291.996C333.328 291.996 331.984 292.272 330.784 292.824C329.584 293.352 328.564 294.084 327.724 295.02C326.884 295.956 326.236 297.048 325.78 298.296C325.324 299.52 325.096 300.828 325.096 302.22C325.096 303.636 325.324 304.968 325.78 306.216C326.236 307.464 326.884 308.556 327.724 309.492C328.564 310.404 329.596 311.124 330.82 311.652C332.044 312.18 333.412 312.444 334.924 312.444C336.124 312.444 337.228 312.336 338.236 312.12C339.244 311.904 340.12 311.592 340.864 311.184V304.092H335.212V301.068H344.392V313.416C343.048 314.136 341.584 314.688 340 315.072C338.416 315.456 336.688 315.648 334.816 315.648C332.824 315.648 330.988 315.324 329.308 314.676C327.652 314.004 326.224 313.08 325.024 311.904C323.824 310.704 322.888 309.288 322.216 307.656C321.544 306 321.208 304.188 321.208 302.22C321.208 300.228 321.544 298.416 322.216 296.784C322.912 295.128 323.86 293.724 325.06 292.572C326.284 291.396 327.724 290.484 329.38 289.836C331.036 289.188 332.836 288.864 334.78 288.864C336.82 288.864 338.632 289.164 340.216 289.764C341.824 290.364 343.156 291.168 344.212 292.176L341.728 294.768Z" fill="#B4B5B4"/>
<path d="M363.196 294.228C362.692 293.532 362.008 292.968 361.144 292.536C360.28 292.08 359.308 291.852 358.228 291.852C357.652 291.852 357.064 291.936 356.464 292.104C355.888 292.248 355.36 292.5 354.88 292.86C354.4 293.196 354.004 293.628 353.692 294.156C353.404 294.66 353.26 295.272 353.26 295.992C353.26 296.688 353.392 297.276 353.656 297.756C353.944 298.212 354.316 298.608 354.772 298.944C355.252 299.256 355.804 299.532 356.428 299.772C357.076 299.988 357.76 300.216 358.48 300.456C359.344 300.72 360.22 301.02 361.108 301.356C361.996 301.692 362.8 302.136 363.52 302.688C364.24 303.24 364.828 303.936 365.284 304.776C365.74 305.592 365.968 306.636 365.968 307.908C365.968 309.228 365.716 310.38 365.212 311.364C364.732 312.324 364.084 313.128 363.268 313.776C362.452 314.4 361.504 314.868 360.424 315.18C359.368 315.492 358.276 315.648 357.148 315.648C355.54 315.648 353.98 315.336 352.468 314.712C350.98 314.088 349.744 313.164 348.76 311.94L351.532 309.6C352.132 310.488 352.936 311.208 353.944 311.76C354.952 312.312 356.044 312.588 357.22 312.588C357.82 312.588 358.42 312.504 359.02 312.336C359.62 312.168 360.16 311.904 360.64 311.544C361.144 311.184 361.552 310.74 361.864 310.212C362.176 309.66 362.332 309 362.332 308.232C362.332 307.464 362.164 306.828 361.828 306.324C361.516 305.796 361.084 305.352 360.532 304.992C359.98 304.632 359.332 304.332 358.588 304.092C357.868 303.828 357.1 303.564 356.284 303.3C355.468 303.06 354.664 302.772 353.872 302.436C353.08 302.076 352.372 301.632 351.748 301.104C351.124 300.552 350.62 299.88 350.236 299.088C349.852 298.296 349.66 297.312 349.66 296.136C349.66 294.864 349.912 293.772 350.416 292.86C350.944 291.948 351.616 291.192 352.432 290.592C353.272 289.992 354.208 289.56 355.24 289.296C356.296 289.008 357.352 288.864 358.408 288.864C359.896 288.864 361.288 289.128 362.584 289.656C363.88 290.184 364.924 290.892 365.716 291.78L363.196 294.228Z" fill="#B4B5B4"/>
<circle cx="331.336" cy="121.827" r="26.0188" stroke="#B3B4B3"/>
<path d="M310.934 144.599C311.045 144.424 311.095 144.239 311.086 144.043C311.076 143.847 310.994 143.674 310.842 143.525C310.72 143.406 310.598 143.332 310.477 143.303C310.352 143.271 310.23 143.27 310.109 143.302C309.985 143.337 309.863 143.397 309.744 143.482C309.62 143.57 309.501 143.673 309.385 143.791L306.663 146.579L306.097 146.025L308.841 143.215C308.979 143.074 309.14 142.94 309.323 142.813C309.506 142.687 309.705 142.598 309.919 142.546C310.134 142.494 310.36 142.499 310.598 142.561C310.833 142.618 311.068 142.762 311.305 142.993C311.614 143.295 311.788 143.621 311.826 143.972C311.864 144.322 311.791 144.653 311.606 144.964L310.934 144.599Z" fill="#B3B4B3"/>
<path d="M303.573 137.959C303.929 137.706 304.302 137.535 304.692 137.448C305.074 137.36 305.451 137.347 305.823 137.409C306.19 137.475 306.542 137.614 306.877 137.828C307.207 138.044 307.498 138.328 307.748 138.68C307.999 139.032 308.172 139.4 308.268 139.783C308.357 140.165 308.372 140.541 308.314 140.909C308.251 141.281 308.115 141.633 307.906 141.965C307.693 142.3 307.408 142.595 307.052 142.848C306.691 143.105 306.32 143.277 305.938 143.366C305.551 143.458 305.176 143.469 304.813 143.4C304.446 143.334 304.098 143.196 303.771 142.984C303.44 142.767 303.149 142.483 302.899 142.131C302.648 141.779 302.475 141.411 302.379 141.028C302.283 140.645 302.264 140.269 302.323 139.9C302.376 139.534 302.51 139.184 302.723 138.849C302.929 138.513 303.212 138.216 303.573 137.959ZM304.069 138.657C303.817 138.836 303.61 139.046 303.447 139.286C303.28 139.53 303.166 139.788 303.104 140.06C303.043 140.333 303.042 140.612 303.101 140.897C303.153 141.181 303.274 141.458 303.466 141.728C303.655 141.993 303.876 142.198 304.131 142.344C304.378 142.489 304.64 142.577 304.918 142.609C305.192 142.636 305.472 142.611 305.757 142.532C306.037 142.457 306.303 142.33 306.555 142.151C306.812 141.968 307.024 141.755 307.191 141.512C307.358 141.269 307.472 141.011 307.534 140.738C307.59 140.468 307.591 140.193 307.535 139.912C307.479 139.631 307.357 139.358 307.168 139.093C306.98 138.828 306.76 138.621 306.51 138.472C306.26 138.322 305.998 138.23 305.725 138.196C305.447 138.164 305.166 138.188 304.881 138.266C304.596 138.344 304.326 138.474 304.069 138.657Z" fill="#B3B4B3"/>
<path d="M304.685 133.333C304.832 133.676 304.903 134 304.899 134.303C304.89 134.608 304.826 134.885 304.706 135.133C304.585 135.382 304.421 135.6 304.211 135.788C303.994 135.973 303.753 136.123 303.489 136.236L300.207 137.636L299.896 136.908L303.134 135.526C303.31 135.451 303.477 135.353 303.635 135.234C303.788 135.116 303.912 134.979 304.007 134.823C304.101 134.661 304.155 134.481 304.169 134.284C304.181 134.082 304.135 133.858 304.03 133.612C303.928 133.372 303.799 133.186 303.645 133.055C303.49 132.924 303.323 132.839 303.144 132.799C302.963 132.755 302.777 132.747 302.586 132.776C302.391 132.808 302.205 132.861 302.028 132.936L298.791 134.318L298.48 133.59L301.761 132.189C302.026 132.076 302.301 132.008 302.587 131.984C302.866 131.958 303.137 131.988 303.399 132.073C303.662 132.158 303.906 132.303 304.133 132.508C304.354 132.714 304.539 132.99 304.685 133.333Z" fill="#B3B4B3"/>
<path d="M303.112 129.336L303.287 130.109L297.763 131.359L297.362 129.588C297.302 129.322 297.273 129.063 297.276 128.811C297.274 128.56 297.313 128.333 297.393 128.129C297.471 127.92 297.597 127.741 297.772 127.592C297.94 127.444 298.165 127.339 298.446 127.275C298.852 127.183 299.208 127.234 299.514 127.427C299.82 127.62 300.052 127.907 300.209 128.287L302.395 126.168L302.607 127.105L300.467 129.065L300.654 129.892L303.112 129.336ZM300.007 130.039L299.805 129.149C299.764 128.967 299.71 128.802 299.644 128.653C299.577 128.504 299.497 128.38 299.404 128.281C299.304 128.178 299.192 128.104 299.067 128.062C298.937 128.02 298.789 128.018 298.623 128.055C298.456 128.093 298.326 128.158 298.232 128.25C298.133 128.344 298.063 128.456 298.021 128.585C297.978 128.71 297.961 128.851 297.969 129.007C297.972 129.165 297.992 129.327 298.03 129.494L298.243 130.438L300.007 130.039Z" fill="#B3B4B3"/>
<path d="M301.059 121.356L301.059 121.34L296.533 121.496L296.506 120.704L302.167 120.509L302.201 121.508L297.683 124.658L297.684 124.674L302.305 124.515L302.332 125.306L296.672 125.502L296.636 124.47L301.059 121.356Z" fill="#B3B4B3"/>
<path d="M302.3 118.924L302.15 119.791L296.987 116.407L297.109 115.697L303.104 114.265L302.952 115.148L301.482 115.478L301.025 118.127L302.3 118.924ZM300.387 117.733L300.747 115.644L297.95 116.232L300.387 117.733Z" fill="#B3B4B3"/>
<path d="M302.918 112.609L303.731 110.215L304.398 110.441L303.331 113.585L297.967 111.764L298.222 111.014L302.918 112.609Z" fill="#B3B4B3"/>
<path d="M305.063 109.038L304.72 109.752L299.617 107.294L299.961 106.58L305.063 109.038Z" fill="#B3B4B3"/>
<path d="M306.981 103.879L306.99 103.866L303.204 101.382L303.639 100.719L308.374 103.827L307.826 104.663L302.318 104.628L302.31 104.641L306.176 107.178L305.741 107.84L301.006 104.733L301.572 103.87L306.981 103.879Z" fill="#B3B4B3"/>
<path d="M309.158 96.5763C308.905 96.5619 308.645 96.6077 308.375 96.7138C308.11 96.8161 307.861 96.9809 307.628 97.2081C307.392 97.439 307.221 97.6915 307.115 97.9655C307.007 98.2357 306.958 98.5104 306.97 98.7897C306.981 99.0689 307.048 99.3431 307.169 99.6124C307.286 99.8779 307.453 100.121 307.669 100.343C307.889 100.568 308.132 100.744 308.398 100.872C308.664 101 308.937 101.073 309.215 101.092C309.491 101.106 309.766 101.061 310.043 100.955C310.32 100.849 310.578 100.678 310.819 100.444C311.01 100.258 311.168 100.069 311.295 99.8782C311.422 99.6874 311.513 99.5019 311.568 99.3215L310.467 98.1935L309.568 99.0706L309.099 98.5896L310.559 97.165L312.476 99.129C312.374 99.4521 312.226 99.7671 312.034 100.074C311.842 100.381 311.597 100.68 311.299 100.97C310.982 101.279 310.64 101.513 310.272 101.67C309.904 101.82 309.534 101.895 309.16 101.894C308.783 101.89 308.415 101.81 308.054 101.654C307.691 101.495 307.356 101.259 307.05 100.946C306.741 100.629 306.514 100.289 306.367 99.925C306.221 99.5536 306.154 99.1832 306.166 98.8137C306.178 98.4367 306.266 98.0682 306.428 97.7081C306.591 97.348 306.827 97.0172 307.137 96.7155C307.461 96.3989 307.796 96.1654 308.141 96.015C308.49 95.8609 308.826 95.7821 309.151 95.7786L309.158 96.5763Z" fill="#B3B4B3"/>
<path d="M318.704 95.5441L317.999 95.9054L315.733 91.4845L314.116 92.3129L313.799 91.6935L317.736 89.6754L318.053 90.2948L316.437 91.1232L318.704 95.5441Z" fill="#B3B4B3"/>
<path d="M325.554 90.3358C325.672 90.7569 325.706 91.1655 325.657 91.5615C325.611 91.9511 325.496 92.3102 325.311 92.639C325.125 92.9626 324.875 93.246 324.561 93.4891C324.245 93.7271 323.879 93.9045 323.463 94.0211C323.047 94.1378 322.643 94.1764 322.25 94.1371C321.86 94.0913 321.502 93.9785 321.174 93.7989C320.846 93.6142 320.56 93.3673 320.319 93.0585C320.076 92.7444 319.895 92.3769 319.777 91.9558C319.657 91.5296 319.62 91.1217 319.666 90.7322C319.711 90.3375 319.827 89.981 320.014 89.6625C320.201 89.3388 320.449 89.0587 320.759 88.8222C321.075 88.5842 321.44 88.4068 321.856 88.2902C322.272 88.1735 322.677 88.1349 323.07 88.1742C323.463 88.2134 323.824 88.3229 324.151 88.5025C324.477 88.677 324.761 88.9213 325.004 89.2353C325.251 89.5427 325.434 89.9095 325.554 90.3358ZM324.73 90.5669C324.646 90.2691 324.519 90.0029 324.348 89.7683C324.176 89.5287 323.971 89.3339 323.735 89.184C323.5 89.0341 323.237 88.9387 322.949 88.8977C322.664 88.8502 322.363 88.8711 322.044 88.9603C321.731 89.0482 321.463 89.1872 321.239 89.3773C321.019 89.5608 320.847 89.7779 320.724 90.0286C320.605 90.2778 320.535 90.5496 320.512 90.844C320.488 91.1333 320.518 91.4268 320.601 91.7247C320.686 92.0277 320.815 92.299 320.987 92.5387C321.16 92.7783 321.364 92.9731 321.6 93.123C321.834 93.2677 322.093 93.3613 322.376 93.4037C322.66 93.4461 322.958 93.4234 323.271 93.3356C323.584 93.2477 323.854 93.1113 324.079 92.9263C324.304 92.7414 324.479 92.5261 324.604 92.2806C324.727 92.0299 324.8 91.7573 324.823 91.463C324.846 91.1686 324.815 90.8699 324.73 90.5669Z" fill="#B3B4B3"/>
<path d="M328.823 91.7463L328.839 91.7458L330.017 87.1923L330.889 87.1634L332.357 91.6292L332.373 91.6287L333.471 87.0779L334.311 87.05L332.835 92.766L332.012 92.7933L330.486 88.2894L330.47 88.2899L329.245 92.885L328.422 92.9123L326.571 87.3065L327.426 87.2781L328.823 91.7463Z" fill="#B3B4B3"/>
<path d="M335.362 92.8954L334.5 92.7201L338.035 87.6589L338.741 87.8023L339.996 93.8372L339.118 93.6587L338.83 92.1799L336.196 91.6445L335.362 92.8954ZM336.609 91.0182L338.687 91.4405L338.181 88.6274L336.609 91.0182Z" fill="#B3B4B3"/>
<path d="M341.398 94.402L340.664 94.1032L342.801 88.8577L344.483 89.5428C344.735 89.6454 344.963 89.7702 345.169 89.9171C345.376 90.059 345.54 90.221 345.662 90.403C345.788 90.587 345.863 90.793 345.885 91.0209C345.909 91.2439 345.867 91.4888 345.759 91.7555C345.602 92.1408 345.356 92.4036 345.023 92.5441C344.689 92.6847 344.321 92.7106 343.92 92.6219L344.406 95.6273L343.517 95.2651L343.134 92.3881L342.349 92.0682L341.398 94.402ZM342.599 91.4532L343.444 91.7973C343.617 91.8677 343.783 91.9183 343.943 91.949C344.104 91.9798 344.251 91.9851 344.386 91.9652C344.528 91.9423 344.652 91.8921 344.758 91.8145C344.867 91.732 344.953 91.6117 345.018 91.4537C345.082 91.2956 345.103 91.1517 345.081 91.0218C345.061 90.887 345.01 90.7653 344.928 90.6568C344.85 90.5504 344.745 90.4556 344.611 90.3726C344.48 90.2846 344.336 90.2084 344.178 90.144L343.281 89.7788L342.599 91.4532Z" fill="#B3B4B3"/>
<path d="M348.199 91.2905L349.838 92.3363C350.144 92.5314 350.421 92.7714 350.669 93.0565C350.917 93.3415 351.103 93.6595 351.227 94.0107C351.351 94.3618 351.393 94.7367 351.354 95.1355C351.315 95.5343 351.16 95.945 350.89 96.3676C350.629 96.7767 350.326 97.0831 349.981 97.2868C349.639 97.486 349.281 97.6056 348.908 97.6456C348.537 97.6811 348.167 97.6508 347.798 97.5546C347.432 97.4539 347.097 97.306 346.791 97.1109L345.152 96.0651L348.199 91.2905ZM346.194 95.9045L347.03 96.4381C347.318 96.6217 347.609 96.7506 347.904 96.8246C348.203 96.9014 348.488 96.9194 348.761 96.8784C349.039 96.8403 349.299 96.7404 349.541 96.5788C349.783 96.4171 349.995 96.1946 350.176 95.9114C350.365 95.6147 350.482 95.3224 350.526 95.0344C350.571 94.7465 350.551 94.471 350.466 94.2079C350.388 93.9431 350.25 93.6936 350.051 93.4594C349.86 93.2235 349.621 93.0138 349.333 92.8302L348.497 92.2965L346.194 95.9045Z" fill="#B3B4B3"/>
<path d="M358.426 101.446C358.474 101.261 358.475 101.064 358.427 100.855C358.384 100.642 358.286 100.443 358.134 100.257C358.053 100.158 357.956 100.069 357.842 99.9895C357.736 99.9108 357.619 99.8555 357.489 99.8238C357.364 99.7886 357.234 99.7814 357.099 99.8022C356.972 99.8237 356.846 99.8852 356.723 99.9866C356.603 100.085 356.521 100.19 356.475 100.303C356.437 100.417 356.422 100.537 356.428 100.662C356.442 100.789 356.473 100.923 356.519 101.064C356.573 101.205 356.631 101.355 356.691 101.513C356.767 101.698 356.839 101.891 356.906 102.091C356.974 102.291 357.011 102.492 357.017 102.693C357.024 102.895 356.987 103.094 356.907 103.291C356.831 103.484 356.684 103.67 356.465 103.849C356.238 104.035 356.005 104.154 355.765 104.206C355.532 104.259 355.303 104.261 355.076 104.212C354.854 104.16 354.64 104.063 354.434 103.921C354.232 103.784 354.051 103.618 353.892 103.424C353.666 103.148 353.5 102.836 353.394 102.488C353.291 102.144 353.276 101.802 353.348 101.46L354.141 101.607C354.072 101.835 354.062 102.075 354.109 102.326C354.156 102.577 354.263 102.803 354.428 103.005C354.513 103.108 354.612 103.2 354.725 103.279C354.839 103.359 354.96 103.414 355.09 103.446C355.223 103.482 355.356 103.489 355.491 103.469C355.63 103.444 355.765 103.378 355.897 103.27C356.029 103.162 356.115 103.043 356.154 102.915C356.201 102.787 356.216 102.65 356.2 102.504C356.185 102.359 356.145 102.205 356.081 102.043C356.025 101.882 355.962 101.713 355.893 101.536C355.819 101.362 355.755 101.183 355.701 101C355.652 100.813 355.628 100.629 355.631 100.447C355.638 100.262 355.682 100.081 355.764 99.9031C355.846 99.7255 355.989 99.5539 356.191 99.3882C356.409 99.209 356.632 99.0985 356.86 99.0566C357.091 99.0188 357.316 99.0278 357.534 99.0835C357.755 99.1433 357.962 99.2433 358.152 99.3835C358.351 99.5244 358.524 99.6856 358.673 99.8671C358.882 100.123 359.033 100.399 359.125 100.696C359.217 100.993 359.242 101.273 359.201 101.534L358.426 101.446Z" fill="#B3B4B3"/>
<path d="M356.867 106.113L358.342 108.679L357.732 109.03L355.862 105.777L360.772 102.954L362.582 106.102L361.979 106.449L360.563 103.987L359.093 104.833L360.425 107.149L359.835 107.488L358.503 105.172L356.867 106.113Z" fill="#B3B4B3"/>
<path d="M360.626 114.251C360.264 114.144 359.932 113.956 359.63 113.685C359.332 113.413 359.098 113.041 358.927 112.57C358.78 112.163 358.712 111.763 358.722 111.368C358.739 110.976 358.824 110.61 358.979 110.27C359.141 109.934 359.367 109.634 359.657 109.37C359.952 109.104 360.305 108.896 360.716 108.747C361.132 108.597 361.536 108.53 361.928 108.546C362.327 108.566 362.692 108.658 363.024 108.822C363.362 108.988 363.662 109.22 363.922 109.517C364.183 109.814 364.387 110.166 364.534 110.572C364.6 110.752 364.648 110.942 364.681 111.14C364.713 111.338 364.725 111.535 364.716 111.731C364.708 111.927 364.676 112.114 364.622 112.293C364.572 112.47 364.498 112.633 364.399 112.782L363.735 112.359C363.869 112.163 363.949 111.924 363.977 111.641C364.012 111.362 363.98 111.085 363.88 110.809C363.767 110.498 363.608 110.238 363.402 110.029C363.202 109.823 362.973 109.668 362.714 109.564C362.455 109.459 362.177 109.406 361.882 109.405C361.592 109.403 361.301 109.454 361.011 109.56C360.71 109.669 360.445 109.816 360.217 110C359.991 110.19 359.811 110.406 359.677 110.647C359.55 110.892 359.476 111.157 359.455 111.442C359.436 111.733 359.481 112.031 359.592 112.337C359.701 112.638 359.86 112.89 360.07 113.092C360.279 113.294 360.528 113.433 360.817 113.51L360.626 114.251Z" fill="#B3B4B3"/>
<path d="M363.511 120.504C363.078 120.565 362.668 120.544 362.282 120.443C361.902 120.346 361.561 120.184 361.26 119.957C360.964 119.729 360.716 119.444 360.517 119.1C360.323 118.756 360.196 118.37 360.135 117.942C360.075 117.515 360.09 117.109 360.181 116.724C360.278 116.344 360.438 116.004 360.659 115.703C360.886 115.402 361.168 115.152 361.507 114.953C361.85 114.754 362.238 114.624 362.671 114.562C363.11 114.501 363.519 114.518 363.899 114.615C364.284 114.712 364.622 114.874 364.913 115.102C365.209 115.33 365.454 115.613 365.647 115.952C365.841 116.296 365.968 116.682 366.029 117.11C366.089 117.538 366.074 117.944 365.983 118.328C365.892 118.713 365.735 119.055 365.514 119.356C365.298 119.656 365.018 119.905 364.674 120.105C364.337 120.309 363.949 120.442 363.511 120.504ZM363.391 119.656C363.697 119.613 363.978 119.522 364.233 119.383C364.493 119.244 364.714 119.068 364.893 118.854C365.073 118.64 365.203 118.393 365.282 118.112C365.366 117.836 365.386 117.535 365.34 117.207C365.294 116.885 365.192 116.601 365.033 116.354C364.88 116.111 364.688 115.912 364.456 115.757C364.225 115.606 363.965 115.5 363.676 115.439C363.392 115.376 363.097 115.367 362.791 115.41C362.479 115.454 362.193 115.546 361.933 115.685C361.673 115.824 361.452 116 361.273 116.214C361.098 116.428 360.971 116.672 360.891 116.947C360.812 117.222 360.795 117.521 360.84 117.843C360.886 118.165 360.985 118.45 361.139 118.698C361.292 118.945 361.482 119.147 361.709 119.304C361.941 119.459 362.202 119.568 362.49 119.63C362.779 119.691 363.079 119.7 363.391 119.656Z" fill="#B3B4B3"/>
<path d="M361.489 126.027L361.488 126.043L366 126.423L365.933 127.212L360.289 126.737L360.373 125.74L365.232 123.147L365.234 123.131L360.626 122.743L360.693 121.954L366.337 122.429L366.25 123.458L361.489 126.027Z" fill="#B3B4B3"/>
<path d="M365.463 129.693L364.907 131.556C364.803 131.903 364.649 132.235 364.443 132.552C364.237 132.869 363.982 133.136 363.678 133.351C363.375 133.567 363.026 133.71 362.631 133.782C362.237 133.853 361.8 133.817 361.319 133.674C360.854 133.535 360.477 133.328 360.186 133.052C359.901 132.777 359.687 132.466 359.546 132.118C359.411 131.771 359.338 131.407 359.33 131.026C359.326 130.647 359.376 130.283 359.48 129.936L360.036 128.073L365.463 129.693ZM360.476 129.031L360.192 129.981C360.095 130.309 360.051 130.624 360.06 130.927C360.069 131.236 360.13 131.516 360.244 131.767C360.357 132.023 360.524 132.246 360.746 132.434C360.968 132.623 361.24 132.765 361.562 132.861C361.899 132.962 362.212 132.994 362.502 132.958C362.791 132.922 363.05 132.827 363.28 132.673C363.513 132.525 363.715 132.324 363.886 132.069C364.06 131.82 364.196 131.533 364.294 131.205L364.577 130.255L360.476 129.031Z" fill="#B3B4B3"/>
<path d="M354.801 141.228L354.791 141.241L358.427 143.941L357.955 144.577L353.407 141.2L354.003 140.397L359.5 140.751L359.509 140.739L355.797 137.982L356.269 137.346L360.816 140.723L360.201 141.551L354.801 141.228Z" fill="#B3B4B3"/>
<path d="M352.324 142.363L352.975 141.77L354.976 147.61L354.444 148.095L348.83 145.548L349.492 144.944L350.856 145.585L352.842 143.774L352.324 142.363ZM353.104 144.477L351.538 145.905L354.108 147.156L353.104 144.477Z" fill="#B3B4B3"/>
<path d="M346.926 146.71L347.589 146.276L350.311 150.432L351.83 149.437L352.212 150.019L348.511 152.443L348.13 151.861L349.649 150.866L346.926 146.71Z" fill="#B3B4B3"/>
<path d="M342.675 148.712C343.019 148.567 343.343 148.497 343.646 148.502C343.951 148.513 344.228 148.579 344.476 148.7C344.724 148.821 344.941 148.987 345.128 149.198C345.312 149.416 345.46 149.657 345.572 149.923L346.956 153.211L346.226 153.518L344.861 150.274C344.786 150.097 344.689 149.929 344.571 149.771C344.454 149.618 344.318 149.493 344.161 149.397C344 149.302 343.821 149.248 343.624 149.232C343.421 149.219 343.197 149.264 342.951 149.368C342.711 149.469 342.524 149.597 342.392 149.751C342.26 149.905 342.174 150.071 342.134 150.25C342.088 150.431 342.08 150.617 342.108 150.808C342.138 151.003 342.191 151.19 342.265 151.367L343.631 154.611L342.901 154.918L341.517 151.63C341.405 151.364 341.338 151.088 341.316 150.803C341.291 150.524 341.322 150.253 341.408 149.991C341.495 149.729 341.641 149.485 341.847 149.26C342.055 149.039 342.331 148.856 342.675 148.712Z" fill="#B3B4B3"/>
<path d="M338.666 150.255L339.44 150.09L340.622 155.629L338.846 156.008C338.58 156.064 338.32 156.09 338.068 156.084C337.817 156.083 337.59 156.041 337.387 155.959C337.179 155.878 337.002 155.749 336.855 155.573C336.71 155.403 336.607 155.176 336.547 154.895C336.46 154.488 336.515 154.132 336.712 153.829C336.909 153.525 337.199 153.297 337.581 153.145L335.489 150.932L336.428 150.732L338.362 152.896L339.191 152.719L338.666 150.255ZM339.33 153.369L338.438 153.559C338.255 153.598 338.089 153.65 337.939 153.714C337.79 153.779 337.664 153.857 337.564 153.95C337.46 154.048 337.385 154.16 337.341 154.284C337.298 154.413 337.294 154.561 337.329 154.728C337.365 154.895 337.428 155.026 337.519 155.121C337.612 155.221 337.722 155.293 337.852 155.336C337.976 155.381 338.116 155.4 338.273 155.394C338.431 155.393 338.593 155.374 338.76 155.339L339.707 155.137L339.33 153.369Z" fill="#B3B4B3"/>
<path d="M333.872 151.749L330.916 151.903L330.879 151.2L334.626 151.005L334.92 156.662L331.292 156.85L331.256 156.155L334.093 156.008L334.005 154.314L331.336 154.452L331.301 153.773L333.969 153.635L333.872 151.749Z" fill="#B3B4B3"/>
<circle cx="333.917" cy="111.662" r="2.79515" fill="#B4B5B4"/>
<path d="M332.651 117.985L348.466 114.838L348.857 116.798L336.97 119.165L348.373 121.308L348.004 123.274L334.898 120.81L335.143 138.309L333.143 138.338L332.892 120.433L332.646 120.387L324.79 136.173L322.999 135.283L330.875 119.458L315.443 116.607L315.806 114.64L327.179 116.742L318.057 110.661L319.166 108.997L332.651 117.985Z" fill="#B4B5B4"/>
</svg>
