<?xml version="1.0" encoding="UTF-8"?>
<svg id="Layer_1" data-name="Layer 1" xmlns="http://www.w3.org/2000/svg" xmlns:xlink="http://www.w3.org/1999/xlink" viewBox="0 0 396 612">
  <defs>
    <clipPath id="clippath">
      <rect width="396" height="612" style="fill: none;"/>
    </clipPath>
  </defs>
  <rect width="396" height="198.72" style="fill: #00854a;"/>
  <rect y="198.72" width="396" height="413.28" style="fill: #4a5960;"/>
  <g>
    <path d="M52.96,343.82v-41.09h-14.51v-1.94h31.15v1.94h-14.58v41.09h-2.06Z" style="fill: #fff;"/>
    <path d="M109.14,343.82v-21.16h-29.35v21.16h-2.06v-43.02h2.06v19.93h29.35v-19.93h2.06v43.02h-2.06Z" style="fill: #fff;"/>
    <path d="M122.55,343.82v-43.02h26.32v1.94h-24.25v18h23.8v1.94h-23.8v19.22h24.25v1.93h-26.32Z" style="fill: #fff;"/>
  </g>
  <g>
    <path d="M41.68,421.21v-43.02h16.19c6.9,0,11.74,3.87,11.74,10.96,0,5.42-3.81,9.09-7.61,9.87,4.58.71,8.45,5.61,8.45,10.58,0,7.35-4.77,11.61-12.32,11.61h-16.45ZM43.74,398.12h14.13c6.32,0,9.48-4,9.48-8.96s-3.16-9.03-9.48-9.03h-14.13v18ZM43.74,419.28h14.38c6.32,0,10.06-3.74,10.06-9.61,0-4.9-3.35-9.61-10.06-9.61h-14.38v19.22Z" style="fill: #fff;"/>
    <path d="M80.37,421.21v-43.02h26.32v1.93h-24.25v18h23.8v1.94h-23.8v19.22h24.25v1.93h-26.32Z" style="fill: #fff;"/>
    <path d="M115.78,413.67c2.64,3.22,7.16,6.38,13.35,6.38,9.93,0,12.45-5.68,12.45-9.74,0-6.97-6.26-8.84-12.64-10.64-6.64-1.87-13.48-3.74-13.48-11.22,0-6.97,6.39-10.96,13.48-10.96,6.32,0,10.9,2.32,13.93,6.06l-1.61,1.48c-3.03-3.93-7.35-5.61-12.32-5.61-6.26,0-11.22,3.74-11.22,9.03,0,5.8,5.81,7.42,11.93,9.16,6.9,2,14.19,4.19,14.19,12.71,0,4.84-3.1,11.67-14.71,11.67-6.71,0-11.93-2.9-15.03-6.84l1.68-1.48Z" style="fill: #fff;"/>
    <path d="M164.73,421.21v-41.09h-14.51v-1.93h31.15v1.93h-14.58v41.09h-2.06Z" style="fill: #fff;"/>
  </g>
  <g>
    <path d="M41.68,498.61v-43.02h14.9c8,0,12.58,5.61,12.58,12.19s-4.71,12.19-12.58,12.19h-12.84v18.64h-2.06ZM56.51,457.52h-12.77v20.51h12.77c6.32,0,10.38-4.32,10.38-10.25s-4.06-10.26-10.38-10.26Z" style="fill: #fff;"/>
    <path d="M96.43,454.88c12.45,0,20.45,9.8,20.45,22.25s-8,22.25-20.45,22.25-20.45-9.8-20.45-22.25,7.93-22.25,20.45-22.25ZM96.43,456.81c-11.16,0-18.19,8.51-18.19,20.32s7.03,20.32,18.19,20.32,18.19-8.64,18.19-20.32-7.16-20.32-18.19-20.32Z" style="fill: #fff;"/>
    <path d="M126.16,491.06c2.64,3.22,7.16,6.38,13.35,6.38,9.93,0,12.45-5.68,12.45-9.74,0-6.97-6.26-8.84-12.64-10.64-6.64-1.87-13.48-3.74-13.48-11.22,0-6.97,6.39-10.96,13.48-10.96,6.32,0,10.9,2.32,13.93,6.06l-1.61,1.48c-3.03-3.93-7.35-5.61-12.32-5.61-6.26,0-11.22,3.74-11.22,9.03,0,5.8,5.81,7.42,11.93,9.16,6.9,2,14.19,4.19,14.19,12.71,0,4.84-3.1,11.67-14.71,11.67-6.71,0-11.93-2.9-15.03-6.84l1.68-1.48Z" style="fill: #fff;"/>
    <path d="M163.25,491.06c2.64,3.22,7.16,6.38,13.35,6.38,9.93,0,12.45-5.68,12.45-9.74,0-6.97-6.26-8.84-12.64-10.64-6.64-1.87-13.48-3.74-13.48-11.22,0-6.97,6.39-10.96,13.48-10.96,6.32,0,10.9,2.32,13.93,6.06l-1.61,1.48c-3.03-3.93-7.35-5.61-12.32-5.61-6.26,0-11.22,3.74-11.22,9.03,0,5.8,5.81,7.42,11.93,9.16,6.9,2,14.19,4.19,14.19,12.71,0,4.84-3.1,11.67-14.71,11.67-6.71,0-11.93-2.9-15.03-6.84l1.68-1.48Z" style="fill: #fff;"/>
    <path d="M200.91,498.61v-43.02h2.06v43.02h-2.06Z" style="fill: #fff;"/>
    <path d="M214.32,498.61v-43.02h16.19c6.9,0,11.74,3.87,11.74,10.96,0,5.42-3.8,9.09-7.61,9.87,4.58.71,8.45,5.61,8.45,10.58,0,7.35-4.77,11.61-12.32,11.61h-16.45ZM216.39,475.52h14.12c6.32,0,9.48-4,9.48-8.96s-3.16-9.03-9.48-9.03h-14.12v18ZM216.39,496.67h14.38c6.32,0,10.06-3.74,10.06-9.61,0-4.9-3.35-9.61-10.06-9.61h-14.38v19.22Z" style="fill: #fff;"/>
    <path d="M253.02,498.61v-43.02h2.06v41.09h21.61v1.93h-23.67Z" style="fill: #fff;"/>
    <path d="M285.2,498.61v-43.02h26.32v1.93h-24.25v18h23.8v1.94h-23.8v19.22h24.25v1.93h-26.32Z" style="fill: #fff;"/>
  </g>
  <g>
    <path d="M41.68,576v-43.02h2.06v41.09h21.61v1.93h-23.67Z" style="fill: #fff;"/>
    <path d="M73.86,576v-43.02h2.06v43.02h-2.06Z" style="fill: #fff;"/>
    <path d="M87.27,576v-43.02h26.32v1.93h-24.25v18h23.8v1.94h-23.8v21.16h-2.06Z" style="fill: #fff;"/>
    <path d="M121.65,576v-43.02h26.32v1.93h-24.25v18h23.8v1.94h-23.8v19.22h24.25v1.93h-26.32Z" style="fill: #fff;"/>
  </g>
  <rect x="38" y="42.89" width="320" height="113.31" style="fill: none; stroke: #4a5960; stroke-width: 4px;"/>
  <rect x="52.56" y="36" width="197.71" height="16.11" style="fill: #4a5960;"/>
  <g>
    <path d="M66.36,46.91l-.38-1.04h-2.68l-.38,1.04h-1.4l2.32-6h1.6l2.31,6h-1.4ZM64.64,42.01l-1,2.75h1.99l-.99-2.75Z" style="fill: #fff;"/>
    <path d="M75.49,46.91l-2.86-4.03v4.03h-1.28v-6h1.31l2.78,3.89v-3.89h1.28v6h-1.23Z" style="fill: #fff;"/>
    <path d="M82.66,46.91l-.38-1.04h-2.68l-.38,1.04h-1.4l2.32-6h1.6l2.31,6h-1.4ZM80.94,42.01l-1,2.75h1.99l-.99-2.75Z" style="fill: #fff;"/>
    <path d="M88.54,46.91l-1.18-2.15h-.94v2.15h-1.28v-6h2.81c1.25,0,2.02.82,2.02,1.94s-.67,1.63-1.31,1.78l1.35,2.29h-1.47ZM87.77,42h-1.34v1.66h1.34c.51,0,.9-.32.9-.83s-.39-.83-.9-.83Z" style="fill: #fff;"/>
    <path d="M94.87,46.91l-1.18-2.15h-.94v2.15h-1.28v-6h2.81c1.25,0,2.02.82,2.02,1.94s-.67,1.63-1.31,1.78l1.35,2.29h-1.47ZM94.1,42h-1.34v1.66h1.34c.51,0,.9-.32.9-.83s-.39-.83-.9-.83Z" style="fill: #fff;"/>
    <path d="M102.01,46.91l-.38-1.04h-2.68l-.38,1.04h-1.4l2.32-6h1.6l2.31,6h-1.4ZM100.29,42.01l-1,2.75h1.99l-.99-2.75Z" style="fill: #fff;"/>
    <path d="M105.32,46.91v-4.88h-1.76v-1.13h4.79v1.13h-1.75v4.88h-1.29Z" style="fill: #fff;"/>
    <path d="M109.71,46.91v-6h1.28v6h-1.28Z" style="fill: #fff;"/>
    <path d="M114.4,46.91l-2.32-6h1.46l1.67,4.62,1.66-4.62h1.46l-2.31,6h-1.6Z" style="fill: #fff;"/>
    <path d="M119.41,46.91v-6h4.25v1.1h-2.97v1.31h2.91v1.1h-2.91v1.4h2.97v1.11h-4.25Z" style="fill: #fff;"/>
    <path d="M127.71,45.45c.23.23.54.43.95.43.57,0,.94-.38.94-.96v-4.02h1.28v4.03c0,1.42-.88,2.08-2.12,2.08-.61,0-1.18-.16-1.61-.58l.56-.98Z" style="fill: #fff;"/>
    <path d="M135.44,40.81c1.82,0,3.14,1.3,3.14,3.11s-1.32,3.11-3.14,3.11-3.13-1.3-3.13-3.11,1.32-3.11,3.13-3.11ZM135.44,41.94c-1.11,0-1.82.85-1.82,1.97s.71,1.97,1.82,1.97,1.83-.85,1.83-1.97-.72-1.97-1.83-1.97Z" style="fill: #fff;"/>
    <path d="M140.02,40.91h1.3v3.56c0,.84.46,1.41,1.4,1.41s1.38-.58,1.38-1.41v-3.56h1.3v3.6c0,1.49-.86,2.51-2.67,2.51s-2.69-1.03-2.69-2.5v-3.61Z" style="fill: #fff;"/>
    <path d="M150.51,46.91l-1.18-2.15h-.94v2.15h-1.28v-6h2.81c1.25,0,2.02.82,2.02,1.94s-.67,1.63-1.31,1.78l1.35,2.29h-1.47ZM149.73,42h-1.34v1.66h1.34c.51,0,.9-.32.9-.83s-.39-.83-.9-.83Z" style="fill: #fff;"/>
    <path d="M157.58,46.91l-2.86-4.03v4.03h-1.28v-6h1.31l2.78,3.89v-3.89h1.28v6h-1.23Z" style="fill: #fff;"/>
    <path d="M160.54,46.91v-6h4.25v1.1h-2.97v1.31h2.91v1.1h-2.91v1.4h2.97v1.11h-4.25Z" style="fill: #fff;"/>
    <path d="M168,46.91v-2.46l-2.31-3.55h1.46l1.49,2.41,1.48-2.41h1.46l-2.3,3.55v2.46h-1.28Z" style="fill: #fff;"/>
    <path d="M178.02,40.81c1.82,0,3.14,1.3,3.14,3.11s-1.32,3.11-3.14,3.11-3.13-1.3-3.13-3.11,1.32-3.11,3.13-3.11ZM178.02,41.94c-1.11,0-1.82.85-1.82,1.97s.71,1.97,1.82,1.97,1.83-.85,1.83-1.97-.72-1.97-1.83-1.97Z" style="fill: #fff;"/>
    <path d="M182.59,46.91v-6h4.25v1.1h-2.97v1.31h2.91v1.1h-2.91v2.5h-1.28Z" style="fill: #fff;"/>
    <path d="M190.47,43.91c0-1.85,1.4-3.11,3.15-3.11,1.37,0,2.13.72,2.56,1.47l-1.1.54c-.25-.49-.79-.87-1.46-.87-1.04,0-1.84.84-1.84,1.97s.79,1.97,1.84,1.97c.67,0,1.21-.38,1.46-.87l1.1.53c-.43.75-1.19,1.48-2.56,1.48-1.76,0-3.15-1.26-3.15-3.11Z" style="fill: #fff;"/>
    <path d="M201.6,46.91v-2.52h-2.84v2.52h-1.28v-6h1.28v2.36h2.84v-2.36h1.29v6h-1.29Z" style="fill: #fff;"/>
    <path d="M208,46.91l-1.18-2.15h-.94v2.15h-1.28v-6h2.81c1.25,0,2.02.82,2.02,1.94s-.67,1.63-1.31,1.78l1.35,2.29h-1.47ZM207.22,42h-1.34v1.66h1.34c.51,0,.9-.32.9-.83s-.39-.83-.9-.83Z" style="fill: #fff;"/>
    <path d="M210.93,46.91v-6h1.28v6h-1.28Z" style="fill: #fff;"/>
    <path d="M214.22,45.09c.42.44,1.08.81,1.91.81.7,0,1.04-.33,1.04-.68,0-.45-.52-.6-1.21-.77-.98-.23-2.24-.5-2.24-1.84,0-1,.86-1.81,2.28-1.81.95,0,1.75.29,2.34.84l-.71.94c-.49-.45-1.13-.66-1.72-.66s-.88.25-.88.61c0,.41.5.53,1.2.69.99.22,2.25.52,2.25,1.85,0,1.1-.78,1.93-2.4,1.93-1.15,0-1.98-.39-2.55-.95l.7-.97Z" style="fill: #fff;"/>
    <path d="M221.15,46.91v-4.88h-1.76v-1.13h4.79v1.13h-1.75v4.88h-1.29Z" style="fill: #fff;"/>
    <path d="M225.54,46.91v-6h1.28v6h-1.28Z" style="fill: #fff;"/>
    <path d="M232.75,46.91l-.38-1.04h-2.68l-.38,1.04h-1.4l2.32-6h1.6l2.31,6h-1.4ZM231.03,42.01l-1,2.75h1.99l-.99-2.75Z" style="fill: #fff;"/>
    <path d="M239.38,46.91l-2.86-4.03v4.03h-1.28v-6h1.31l2.78,3.89v-3.89h1.28v6h-1.23Z" style="fill: #fff;"/>
  </g>
  <g>
    <path d="M58.14,126.6v-54.69h4.35v50.68h14.35v4.02h-18.7Z" style="fill: #fff;"/>
    <path d="M112.26,126.6v-54.69h4.35v54.69h-4.35Z" style="fill: #fff;"/>
    <path d="M161.37,126.6l-10.58-54.69h4.59l8.53,48.71,8.53-48.71h4.59l-10.58,54.69h-5.08Z" style="fill: #fff;"/>
    <path d="M211.23,126.6v-54.69h4.35v54.69h-4.35Z" style="fill: #fff;"/>
    <path d="M273.22,126.6l-14.35-43.71v43.71h-4.35v-54.69h4.35l14.19,42.89v-42.89h4.43v54.69h-4.26Z" style="fill: #fff;"/>
    <path d="M327.91,71.01c5.82,0,8.69,4.43,10.25,9.51l-3.77,1.39c-1.31-4.18-2.95-6.89-6.48-6.89-6.15,0-8.45,10.41-8.45,24.27s2.3,24.27,8.45,24.27c2.87,0,4.92-1.39,6.23-3.77v-16.24h-7.79v-4.02h11.89v21.81c-2.46,4.18-6.15,6.23-10.33,6.23-9.18,0-13.12-11.56-13.12-28.29s3.94-28.29,13.12-28.29Z" style="fill: #fff;"/>
  </g>
  <rect x="220.46" y="146.61" width="122.98" height="16.11" style="fill: #4a5960;"/>
  <g>
    <path d="M235.28,157.52v-4.32l-1.69,4.32h-.56l-1.69-4.32v4.32h-1.28v-6h1.79l1.46,3.75,1.46-3.75h1.8v6h-1.29Z" style="fill: #fff;"/>
    <path d="M242.4,157.52l-.38-1.04h-2.68l-.38,1.04h-1.4l2.32-6h1.6l2.31,6h-1.4ZM240.68,152.62l-1,2.75h1.99l-.99-2.75Z" style="fill: #fff;"/>
    <path d="M245.62,157.52v-4.88h-1.76v-1.13h4.79v1.13h-1.75v4.88h-1.29Z" style="fill: #fff;"/>
    <path d="M251.31,157.52v-4.88h-1.76v-1.13h4.79v1.13h-1.75v4.88h-1.29Z" style="fill: #fff;"/>
    <path d="M259.72,157.52v-2.52h-2.83v2.52h-1.28v-6h1.28v2.36h2.83v-2.36h1.29v6h-1.29Z" style="fill: #fff;"/>
    <path d="M262.64,157.52v-6h4.25v1.1h-2.97v1.31h2.91v1.1h-2.91v1.4h2.97v1.11h-4.25Z" style="fill: #fff;"/>
    <path d="M272.92,157.52l-1.05-4.12-1.04,4.12h-1.36l-1.72-6h1.43l1.05,4.34,1.14-4.34h1l1.13,4.34,1.04-4.34h1.44l-1.71,6h-1.36Z" style="fill: #fff;"/>
    <path d="M283.17,157.52l-1.18-2.15h-.94v2.15h-1.28v-6h2.81c1.25,0,2.02.82,2.02,1.94s-.67,1.63-1.31,1.78l1.35,2.29h-1.47ZM282.39,152.61h-1.34v1.66h1.34c.51,0,.9-.32.9-.83s-.39-.83-.9-.83Z" style="fill: #fff;"/>
    <path d="M286.57,156.16c.4,0,.73.33.73.73s-.33.73-.73.73-.73-.33-.73-.73.33-.73.73-.73Z" style="fill: #fff;"/>
    <path d="M291.5,157.52v-6h1.28v4.88h2.54v1.13h-3.82Z" style="fill: #fff;"/>
    <path d="M297.2,157.52v-2.46l-2.31-3.55h1.46l1.5,2.41,1.48-2.41h1.46l-2.3,3.55v2.46h-1.28Z" style="fill: #fff;"/>
    <path d="M305.92,157.52l-2.86-4.03v4.03h-1.28v-6h1.31l2.78,3.89v-3.89h1.28v6h-1.23Z" style="fill: #fff;"/>
    <path d="M309.08,155.7c.42.44,1.08.81,1.91.81.7,0,1.04-.33,1.04-.68,0-.45-.52-.6-1.21-.77-.98-.23-2.24-.5-2.24-1.84,0-1,.86-1.81,2.28-1.81.95,0,1.75.29,2.34.84l-.71.94c-.49-.45-1.13-.66-1.72-.66s-.88.25-.88.61c0,.41.5.53,1.2.69.99.22,2.25.52,2.25,1.85,0,1.1-.78,1.93-2.4,1.93-1.15,0-1.98-.39-2.55-.95l.7-.97Z" style="fill: #fff;"/>
    <path d="M318.21,157.52l-1.82-2.4-.47.56v1.85h-1.28v-6h1.28v2.68l2.12-2.68h1.58l-2.39,2.82,2.55,3.19h-1.58Z" style="fill: #fff;"/>
    <path d="M320.81,157.52v-6h4.25v1.1h-2.97v1.31h2.91v1.1h-2.91v1.4h2.97v1.11h-4.25Z" style="fill: #fff;"/>
    <path d="M328.18,157.52v-2.46l-2.31-3.55h1.46l1.5,2.41,1.48-2.41h1.46l-2.3,3.55v2.46h-1.28Z" style="fill: #fff;"/>
  </g>
  <g style="clip-path: url(#clippath);">
    <path d="M321.83,299.77c21.02,0,38.05-17.03,38.05-38.04s-17.03-38.04-38.05-38.04-38.03,17.03-38.03,38.04,17.03,38.04,38.03,38.04Z" style="fill: none; stroke: #00854a;"/>
    <path d="M314.55,262.68c0-1.38.44-2.66.78-3.97.29-1.12.56-2.24.86-3.35.18-.68.4-1.35.59-2.03.29-1.02.52-2.06.85-3.07.45-1.39.66-2.88,1.44-4.14.65-1.04,1.45-1.93,2.77-2.13,1.37-.21,2.49.29,3.28,1.37,1.02,1.4,1.9,2.89,2.86,4.33.97,1.47,1.94,2.94,2.92,4.4.2.3.52.41.89.41,2.29-.01,4.59-.01,6.89,0,.85,0,1.5.73,1.45,1.59-.04.63-.54,1.25-1.17,1.36-.79.14-1.59.23-2.39.33-1.67.21-3.36.31-5,.64-1.88.38-3.2-.35-4.29-1.79-.58-.76-1.18-1.49-1.77-2.25-.19-.25-.34-.25-.42.06-.17.63-.34,1.27-.48,1.92-.37,1.65-.72,3.31-1.08,4.97-.04.16-.1.32-.12.48-.07.39-.08.75.16,1.12,1.47,2.23,2.93,4.47,4.35,6.73.51.82.97,1.68,1.34,2.58.27.65.47,1.38.51,2.09.18,2.98.28,5.95.41,8.93.06,1.39.12,2.77.18,4.16.03.63-.03,1.25-.44,1.75-.54.65-1.27.89-2.08.76-.93-.16-1.58-.72-1.79-1.66-.17-.76-.24-1.54-.34-2.32-.29-2.24-.58-4.47-.86-6.71-.14-1.09-.27-2.18-.36-3.27-.07-.78-.43-1.41-.92-1.95-1.18-1.32-2.38-2.63-3.63-3.88-1.24-1.25-2.55-2.42-3.82-3.63-1.08-1.03-1.59-2.29-1.52-3.79" style="fill: #00854a;"/>
    <path d="M311.45,261.86c-1.01-.09-2.18,0-3.26-.5-1.06-.49-1.86-1.24-2.07-2.46-.23-1.34,0-2.66.3-3.96.35-1.5,1.01-2.84,1.92-4.06.22-.3.16-.46-.21-.58-.77-.25-.86-.54-.65-1.36.3-1.18.54-2.37.83-3.55.14-.6.3-1.19.5-1.77.16-.47.52-.75,1.04-.67,1.02.16,2.06.28,3.06.54,1.18.3,2.33.71,3.48,1.09.35.11.68.29,1.02.44.58.25.66.62.47,1.28-.41,1.42-.9,2.83-1.3,4.25-.42,1.47-.78,2.95-1.17,4.43-.31,1.14-.63,2.28-.95,3.42-.15.56-.33,1.12-.43,1.7-.21,1.19-.62,1.61-1.79,1.72-.22.02-.45.03-.79.05" style="fill: #00854a;"/>
    <path d="M303.56,287.68c.18-.47.32-.95.54-1.38,1.12-2.12,2.3-4.22,3.4-6.35.87-1.68,1.71-3.39,2.47-5.13.79-1.8,1.52-3.64,2.19-5.5.55-1.49.97-3.02,1.46-4.53.04-.11.13-.21.19-.31.07.1.16.19.2.3.35,1.13,1.09,1.98,1.92,2.76.89.84,1.79,1.67,2.69,2.49.29.27.34.52.14.87-1.21,2.09-2.38,4.21-3.61,6.29-1.28,2.15-2.61,4.28-3.93,6.41-1.11,1.8-2.24,3.59-3.36,5.39-.42.68-.98,1.1-1.82,1.05-.93-.05-1.6-.51-2.06-1.29-.18-.31-.28-.68-.43-1.07" style="fill: #00854a;"/>
    <path d="M331.56,238.67c.06,2.86-2.34,5.28-5.27,5.2-2.84-.07-5.13-2.35-5.07-5.34.05-2.7,2.19-5.12,5.25-5.11,2.85,0,5.22,2.53,5.09,5.25" style="fill: #00854a;"/>
    <path d="M337.58,258.88c-.21,3.89-.43,7.79-.63,11.68-.21,4.23-.39,8.45-.59,12.68-.09,1.97-.2,3.94-.31,5.91-.02.37-.11.73-.55.82-.56.1-.91-.2-.88-.82.07-1.65.14-3.31.22-4.96.1-1.93.21-3.85.3-5.78.17-3.37.34-6.73.51-10.11.13-2.6.25-5.2.38-7.8.03-.54.07-1.08.11-1.62.04-.45.94-.86,1.29-.57.13.11.15.36.22.55-.03,0-.05.02-.08.02" style="fill: #00854a;"/>
    <path d="M338,250.63c-.06.99-.12,1.87-.16,2.75-.01.27-.12.43-.39.45-.24.02-.49.06-.7-.01-.15-.05-.35-.27-.34-.4.04-1.32.1-2.64.17-3.96.02-.42.38-.74.76-.73.39.01.66.32.67.79,0,.41,0,.81,0,1.12" style="fill: #00854a;"/>
  </g>
</svg>