<?xml version="1.0" encoding="UTF-8"?>
<svg id="Layer_1" data-name="Layer 1" xmlns="http://www.w3.org/2000/svg" xmlns:xlink="http://www.w3.org/1999/xlink" viewBox="0 0 396 612">
  <defs>
    <clipPath id="clippath">
      <rect width="396" height="612" style="fill: none;"/>
    </clipPath>
  </defs>
  <rect width="396" height="198.72" style="fill: #df6d36;"/>
  <rect y="198.72" width="396" height="413.28" style="fill: #4a5960;"/>
  <g>
    <path d="M52.96,343.82v-41.09h-14.51v-1.94h31.15v1.94h-14.58v41.09h-2.06Z" style="fill: #fff;"/>
    <path d="M109.14,343.82v-21.16h-29.35v21.16h-2.06v-43.02h2.06v19.93h29.35v-19.93h2.06v43.02h-2.06Z" style="fill: #fff;"/>
    <path d="M122.55,343.82v-43.02h26.32v1.94h-24.25v18h23.8v1.94h-23.8v19.22h24.25v1.93h-26.32Z" style="fill: #fff;"/>
  </g>
  <g>
    <path d="M41.68,421.21v-43.02h16.19c6.9,0,11.74,3.87,11.74,10.96,0,5.42-3.81,9.09-7.61,9.87,4.58.71,8.45,5.61,8.45,10.58,0,7.35-4.77,11.61-12.32,11.61h-16.45ZM43.74,398.12h14.13c6.32,0,9.48-4,9.48-8.96s-3.16-9.03-9.48-9.03h-14.13v18ZM43.74,419.28h14.38c6.32,0,10.06-3.74,10.06-9.61,0-4.9-3.35-9.61-10.06-9.61h-14.38v19.22Z" style="fill: #fff;"/>
    <path d="M99.33,377.48c12.45,0,20.45,9.8,20.45,22.25s-8,22.25-20.45,22.25-20.45-9.8-20.45-22.25,7.93-22.25,20.45-22.25ZM99.33,379.42c-11.16,0-18.19,8.51-18.19,20.32s7.03,20.32,18.19,20.32,18.19-8.64,18.19-20.32-7.16-20.32-18.19-20.32Z" style="fill: #fff;"/>
    <path d="M160.73,421.21l-29.02-39.67v39.67h-2.06v-43.02h2.06l29.02,39.28v-39.28h2.06v43.02h-2.06Z" style="fill: #fff;"/>
    <path d="M174.14,421.21v-43.02h12.77c13.35,0,21.41,10.06,21.41,21.54s-8.06,21.48-21.41,21.48h-12.77ZM176.21,419.28h10.71c12.19,0,19.16-8.64,19.16-19.54s-6.97-19.61-19.16-19.61h-10.71v39.15Z" style="fill: #fff;"/>
  </g>
  <g>
    <path d="M41.68,498.61v-43.02h16.19c6.9,0,11.74,3.87,11.74,10.96,0,5.42-3.81,9.09-7.61,9.87,4.58.71,8.45,5.61,8.45,10.58,0,7.35-4.77,11.61-12.32,11.61h-16.45ZM43.74,475.52h14.13c6.32,0,9.48-4,9.48-8.96s-3.16-9.03-9.48-9.03h-14.13v18ZM43.74,496.67h14.38c6.32,0,10.06-3.74,10.06-9.61,0-4.9-3.35-9.61-10.06-9.61h-14.38v19.22Z" style="fill: #fff;"/>
    <path d="M80.37,498.61v-43.02h26.32v1.93h-24.25v18h23.8v1.94h-23.8v19.22h24.25v1.93h-26.32Z" style="fill: #fff;"/>
    <path d="M127.65,498.61v-41.09h-14.51v-1.93h31.15v1.93h-14.58v41.09h-2.06Z" style="fill: #fff;"/>
    <path d="M185.37,498.61l-11.16-39.15-11.16,39.15h-2.45l-12.25-43.02h2.26l11.22,39.92,11.29-39.92h2.19l11.29,39.92,11.22-39.92h2.26l-12.25,43.02h-2.45Z" style="fill: #fff;"/>
    <path d="M207.36,498.61v-43.02h26.32v1.93h-24.25v18h23.8v1.94h-23.8v19.22h24.25v1.93h-26.32Z" style="fill: #fff;"/>
    <path d="M243.35,498.61v-43.02h26.32v1.93h-24.25v18h23.8v1.94h-23.8v19.22h24.25v1.93h-26.32Z" style="fill: #fff;"/>
    <path d="M310.42,498.61l-29.02-39.67v39.67h-2.06v-43.02h2.06l29.02,39.28v-39.28h2.06v43.02h-2.06Z" style="fill: #fff;"/>
  </g>
  <g>
    <path d="M41.68,532.98h2.06v26.7c0,9.55,4.9,15.16,13.93,15.16s13.93-5.61,13.93-15.16v-26.7h2.06v26.7c0,10.64-5.55,17.09-16,17.09s-16-6.51-16-17.09v-26.7Z" style="fill: #fff;"/>
    <path d="M84.44,568.45c2.64,3.22,7.16,6.38,13.35,6.38,9.93,0,12.45-5.68,12.45-9.74,0-6.97-6.26-8.84-12.64-10.64-6.64-1.87-13.48-3.74-13.48-11.22,0-6.97,6.39-10.96,13.48-10.96,6.32,0,10.9,2.32,13.93,6.06l-1.61,1.48c-3.03-3.93-7.35-5.61-12.32-5.61-6.26,0-11.22,3.74-11.22,9.03,0,5.8,5.81,7.42,11.93,9.16,6.9,2,14.19,4.19,14.19,12.71,0,4.84-3.1,11.67-14.71,11.67-6.71,0-11.93-2.9-15.03-6.84l1.68-1.48Z" style="fill: #fff;"/>
  </g>
  <rect x="38" y="42.89" width="320" height="113.31" style="fill: none; stroke: #4a5960; stroke-width: 4px;"/>
  <rect x="52.56" y="36" width="197.71" height="16.11" style="fill: #4a5960;"/>
  <g>
    <path d="M66.36,46.91l-.38-1.04h-2.68l-.38,1.04h-1.4l2.32-6h1.6l2.31,6h-1.4ZM64.64,42.01l-1,2.75h1.99l-.99-2.75Z" style="fill: #fff;"/>
    <path d="M75.49,46.91l-2.86-4.03v4.03h-1.28v-6h1.31l2.78,3.89v-3.89h1.28v6h-1.23Z" style="fill: #fff;"/>
    <path d="M82.66,46.91l-.38-1.04h-2.68l-.38,1.04h-1.4l2.32-6h1.6l2.31,6h-1.4ZM80.94,42.01l-1,2.75h1.99l-.99-2.75Z" style="fill: #fff;"/>
    <path d="M88.54,46.91l-1.18-2.15h-.94v2.15h-1.28v-6h2.81c1.25,0,2.02.82,2.02,1.94s-.67,1.63-1.31,1.78l1.35,2.29h-1.47ZM87.77,42h-1.34v1.66h1.34c.51,0,.9-.32.9-.83s-.39-.83-.9-.83Z" style="fill: #fff;"/>
    <path d="M94.87,46.91l-1.18-2.15h-.94v2.15h-1.28v-6h2.81c1.25,0,2.02.82,2.02,1.94s-.67,1.63-1.31,1.78l1.35,2.29h-1.47ZM94.1,42h-1.34v1.66h1.34c.51,0,.9-.32.9-.83s-.39-.83-.9-.83Z" style="fill: #fff;"/>
    <path d="M102.01,46.91l-.38-1.04h-2.68l-.38,1.04h-1.4l2.32-6h1.6l2.31,6h-1.4ZM100.29,42.01l-1,2.75h1.99l-.99-2.75Z" style="fill: #fff;"/>
    <path d="M105.32,46.91v-4.88h-1.76v-1.13h4.79v1.13h-1.75v4.88h-1.29Z" style="fill: #fff;"/>
    <path d="M109.71,46.91v-6h1.28v6h-1.28Z" style="fill: #fff;"/>
    <path d="M114.4,46.91l-2.32-6h1.46l1.67,4.62,1.66-4.62h1.46l-2.31,6h-1.6Z" style="fill: #fff;"/>
    <path d="M119.41,46.91v-6h4.25v1.1h-2.97v1.31h2.91v1.1h-2.91v1.4h2.97v1.11h-4.25Z" style="fill: #fff;"/>
    <path d="M127.71,45.45c.23.23.54.43.95.43.57,0,.94-.38.94-.96v-4.02h1.28v4.03c0,1.42-.88,2.08-2.12,2.08-.61,0-1.18-.16-1.61-.58l.56-.98Z" style="fill: #fff;"/>
    <path d="M135.44,40.81c1.82,0,3.14,1.3,3.14,3.11s-1.32,3.11-3.14,3.11-3.13-1.3-3.13-3.11,1.32-3.11,3.13-3.11ZM135.44,41.94c-1.11,0-1.82.85-1.82,1.97s.71,1.97,1.82,1.97,1.83-.85,1.83-1.97-.72-1.97-1.83-1.97Z" style="fill: #fff;"/>
    <path d="M140.02,40.91h1.3v3.56c0,.84.46,1.41,1.4,1.41s1.38-.58,1.38-1.41v-3.56h1.3v3.6c0,1.49-.86,2.51-2.67,2.51s-2.69-1.03-2.69-2.5v-3.61Z" style="fill: #fff;"/>
    <path d="M150.51,46.91l-1.18-2.15h-.94v2.15h-1.28v-6h2.81c1.25,0,2.02.82,2.02,1.94s-.67,1.63-1.31,1.78l1.35,2.29h-1.47ZM149.73,42h-1.34v1.66h1.34c.51,0,.9-.32.9-.83s-.39-.83-.9-.83Z" style="fill: #fff;"/>
    <path d="M157.58,46.91l-2.86-4.03v4.03h-1.28v-6h1.31l2.78,3.89v-3.89h1.28v6h-1.23Z" style="fill: #fff;"/>
    <path d="M160.54,46.91v-6h4.25v1.1h-2.97v1.31h2.91v1.1h-2.91v1.4h2.97v1.11h-4.25Z" style="fill: #fff;"/>
    <path d="M168,46.91v-2.46l-2.31-3.55h1.46l1.49,2.41,1.48-2.41h1.46l-2.3,3.55v2.46h-1.28Z" style="fill: #fff;"/>
    <path d="M178.02,40.81c1.82,0,3.14,1.3,3.14,3.11s-1.32,3.11-3.14,3.11-3.13-1.3-3.13-3.11,1.32-3.11,3.13-3.11ZM178.02,41.94c-1.11,0-1.82.85-1.82,1.97s.71,1.97,1.82,1.97,1.83-.85,1.83-1.97-.72-1.97-1.83-1.97Z" style="fill: #fff;"/>
    <path d="M182.59,46.91v-6h4.25v1.1h-2.97v1.31h2.91v1.1h-2.91v2.5h-1.28Z" style="fill: #fff;"/>
    <path d="M190.47,43.91c0-1.85,1.4-3.11,3.15-3.11,1.37,0,2.13.72,2.56,1.47l-1.1.54c-.25-.49-.79-.87-1.46-.87-1.04,0-1.84.84-1.84,1.97s.79,1.97,1.84,1.97c.67,0,1.21-.38,1.46-.87l1.1.53c-.43.75-1.19,1.48-2.56,1.48-1.76,0-3.15-1.26-3.15-3.11Z" style="fill: #fff;"/>
    <path d="M201.6,46.91v-2.52h-2.84v2.52h-1.28v-6h1.28v2.36h2.84v-2.36h1.29v6h-1.29Z" style="fill: #fff;"/>
    <path d="M208,46.91l-1.18-2.15h-.94v2.15h-1.28v-6h2.81c1.25,0,2.02.82,2.02,1.94s-.67,1.63-1.31,1.78l1.35,2.29h-1.47ZM207.22,42h-1.34v1.66h1.34c.51,0,.9-.32.9-.83s-.39-.83-.9-.83Z" style="fill: #fff;"/>
    <path d="M210.93,46.91v-6h1.28v6h-1.28Z" style="fill: #fff;"/>
    <path d="M214.22,45.09c.42.44,1.08.81,1.91.81.7,0,1.04-.33,1.04-.68,0-.45-.52-.6-1.21-.77-.98-.23-2.24-.5-2.24-1.84,0-1,.86-1.81,2.28-1.81.95,0,1.75.29,2.34.84l-.71.94c-.49-.45-1.13-.66-1.72-.66s-.88.25-.88.61c0,.41.5.53,1.2.69.99.22,2.25.52,2.25,1.85,0,1.1-.78,1.93-2.4,1.93-1.15,0-1.98-.39-2.55-.95l.7-.97Z" style="fill: #fff;"/>
    <path d="M221.15,46.91v-4.88h-1.76v-1.13h4.79v1.13h-1.75v4.88h-1.29Z" style="fill: #fff;"/>
    <path d="M225.54,46.91v-6h1.28v6h-1.28Z" style="fill: #fff;"/>
    <path d="M232.75,46.91l-.38-1.04h-2.68l-.38,1.04h-1.4l2.32-6h1.6l2.31,6h-1.4ZM231.03,42.01l-1,2.75h1.99l-.99-2.75Z" style="fill: #fff;"/>
    <path d="M239.38,46.91l-2.86-4.03v4.03h-1.28v-6h1.31l2.78,3.89v-3.89h1.28v6h-1.23Z" style="fill: #fff;"/>
  </g>
  <g>
    <path d="M56.5,99.3c0-15.74,3.53-28.29,13.12-28.29,6.15,0,8.69,4.67,10.25,9.51l-3.77,1.39c-1.39-4.18-2.95-6.89-6.48-6.89-6.15,0-8.45,10.66-8.45,24.27s2.3,24.27,8.45,24.27c4.02,0,5.58-3.69,6.64-8.45l3.85,1.48c-1.39,5.74-4.18,10.99-10.5,10.99-9.59,0-13.12-12.55-13.12-28.29Z" style="fill: #fff;"/>
    <path d="M100.2,71.01c9.76,0,13.12,12.96,13.12,28.29s-3.36,28.29-13.12,28.29-13.04-12.87-13.04-28.29,3.36-28.29,13.04-28.29ZM100.2,75.02c-6.23,0-8.36,11.23-8.36,24.27s2.13,24.27,8.36,24.27,8.45-11.4,8.45-24.27-2.13-24.27-8.45-24.27Z" style="fill: #fff;"/>
    <path d="M151.04,126.6v-46.41l-10.99,46.41h-1.89l-10.99-46.41v46.41h-4.35v-54.69h6.23l10.09,42.15,10.09-42.15h6.23v54.69h-4.43Z" style="fill: #fff;"/>
    <path d="M194.75,126.6v-46.41l-10.99,46.41h-1.89l-10.99-46.41v46.41h-4.35v-54.69h6.23l10.09,42.15,10.09-42.15h6.23v54.69h-4.43Z" style="fill: #fff;"/>
    <path d="M210.24,71.91h4.35v41.41c0,7.63,2.87,10.25,7.13,10.25s7.13-2.62,7.13-10.25v-41.41h4.43v41.33c0,10-4.67,14.35-11.56,14.35s-11.48-4.35-11.48-14.35v-41.33Z" style="fill: #fff;"/>
    <path d="M263.05,126.6l-14.35-43.71v43.71h-4.35v-54.69h4.35l14.19,42.89v-42.89h4.43v54.69h-4.26Z" style="fill: #fff;"/>
    <path d="M278.38,126.6v-54.69h4.35v54.69h-4.35Z" style="fill: #fff;"/>
    <path d="M298.55,126.6v-50.68h-8.77v-4.02h22.06v4.02h-8.86v50.68h-4.43Z" style="fill: #fff;"/>
    <path d="M325.37,126.6v-23.45l-11.97-31.24h4.76l9.43,26.49,9.51-26.49h4.59l-11.97,31.24v23.45h-4.35Z" style="fill: #fff;"/>
  </g>
  <rect x="220.46" y="146.61" width="122.98" height="16.11" style="fill: #4a5960;"/>
  <g>
    <path d="M235.28,157.52v-4.32l-1.69,4.32h-.56l-1.69-4.32v4.32h-1.28v-6h1.79l1.46,3.75,1.46-3.75h1.8v6h-1.29Z" style="fill: #fff;"/>
    <path d="M242.4,157.52l-.38-1.04h-2.68l-.38,1.04h-1.4l2.32-6h1.6l2.31,6h-1.4ZM240.68,152.62l-1,2.75h1.99l-.99-2.75Z" style="fill: #fff;"/>
    <path d="M245.62,157.52v-4.88h-1.76v-1.13h4.79v1.13h-1.75v4.88h-1.29Z" style="fill: #fff;"/>
    <path d="M251.31,157.52v-4.88h-1.76v-1.13h4.79v1.13h-1.75v4.88h-1.29Z" style="fill: #fff;"/>
    <path d="M259.72,157.52v-2.52h-2.83v2.52h-1.28v-6h1.28v2.36h2.83v-2.36h1.29v6h-1.29Z" style="fill: #fff;"/>
    <path d="M262.64,157.52v-6h4.25v1.1h-2.97v1.31h2.91v1.1h-2.91v1.4h2.97v1.11h-4.25Z" style="fill: #fff;"/>
    <path d="M272.92,157.52l-1.05-4.12-1.04,4.12h-1.36l-1.72-6h1.43l1.05,4.34,1.14-4.34h1l1.13,4.34,1.04-4.34h1.44l-1.71,6h-1.36Z" style="fill: #fff;"/>
    <path d="M283.17,157.52l-1.18-2.15h-.94v2.15h-1.28v-6h2.81c1.25,0,2.02.82,2.02,1.94s-.67,1.63-1.31,1.78l1.35,2.29h-1.47ZM282.39,152.61h-1.34v1.66h1.34c.51,0,.9-.32.9-.83s-.39-.83-.9-.83Z" style="fill: #fff;"/>
    <path d="M286.57,156.16c.4,0,.73.33.73.73s-.33.73-.73.73-.73-.33-.73-.73.33-.73.73-.73Z" style="fill: #fff;"/>
    <path d="M291.5,157.52v-6h1.28v4.88h2.54v1.13h-3.82Z" style="fill: #fff;"/>
    <path d="M297.2,157.52v-2.46l-2.31-3.55h1.46l1.5,2.41,1.48-2.41h1.46l-2.3,3.55v2.46h-1.28Z" style="fill: #fff;"/>
    <path d="M305.92,157.52l-2.86-4.03v4.03h-1.28v-6h1.31l2.78,3.89v-3.89h1.28v6h-1.23Z" style="fill: #fff;"/>
    <path d="M309.08,155.7c.42.44,1.08.81,1.91.81.7,0,1.04-.33,1.04-.68,0-.45-.52-.6-1.21-.77-.98-.23-2.24-.5-2.24-1.84,0-1,.86-1.81,2.28-1.81.95,0,1.75.29,2.34.84l-.71.94c-.49-.45-1.13-.66-1.72-.66s-.88.25-.88.61c0,.41.5.53,1.2.69.99.22,2.25.52,2.25,1.85,0,1.1-.78,1.93-2.4,1.93-1.15,0-1.98-.39-2.55-.95l.7-.97Z" style="fill: #fff;"/>
    <path d="M318.21,157.52l-1.82-2.4-.47.56v1.85h-1.28v-6h1.28v2.68l2.12-2.68h1.58l-2.39,2.82,2.55,3.19h-1.58Z" style="fill: #fff;"/>
    <path d="M320.81,157.52v-6h4.25v1.1h-2.97v1.31h2.91v1.1h-2.91v1.4h2.97v1.11h-4.25Z" style="fill: #fff;"/>
    <path d="M328.18,157.52v-2.46l-2.31-3.55h1.46l1.5,2.41,1.48-2.41h1.46l-2.3,3.55v2.46h-1.28Z" style="fill: #fff;"/>
  </g>
  <g style="clip-path: url(#clippath);">
    <path d="M345.38,264.09l-4.74-2.98c.82-.98,1.28-2.22,1.28-3.52,0-1.02-.28-2.01-.81-2.87-.51-.84-1.24-1.52-2.11-1.98-.79-.42-1.68-.64-2.57-.64-3.03,0-5.49,2.46-5.49,5.49,0,1.3.46,2.54,1.28,3.52l-4.74,2.98c-1.26.79-2,2.14-2,3.62v.15l-3.69-6.4,7.32-12.67h14.65l7.33,12.69-3.7,6.41v-.18c0-1.48-.75-2.83-2-3.62M332.2,257.6c0-2.33,1.9-4.23,4.23-4.23.69,0,1.38.17,1.98.49.67.35,1.23.88,1.62,1.53.41.66.62,1.42.62,2.21,0,1.22-.52,2.37-1.43,3.17-1.64,1.35-3.85,1.36-5.6,0h0c-.9-.8-1.42-1.95-1.42-3.17M346.12,270.08l-2.36,4.09h-14.63l-2.38-4.12v-2.33c0-1.04.53-2,1.41-2.55l5.01-3.15c2.1,1.4,4.47,1.46,6.53,0l5.01,3.15c.88.55,1.41,1.51,1.41,2.55v2.36ZM324.33,281.21v-.18c0-1.48-.75-2.83-2-3.62l-4.74-2.97c.82-.98,1.28-2.22,1.28-3.52,0-1.01-.28-2.01-.81-2.87-.51-.84-1.24-1.52-2.11-1.98-.79-.42-1.68-.64-2.57-.64-3.03,0-5.49,2.46-5.49,5.49,0,1.3.46,2.54,1.28,3.52l-4.74,2.97c-1.25.79-2,2.14-2,3.62v.18l-3.7-6.41,7.33-12.69h14.63l7.33,12.7-3.69,6.39ZM309.15,270.92c0-2.33,1.89-4.23,4.23-4.23.69,0,1.38.17,1.98.49.67.36,1.23.88,1.62,1.53.41.66.62,1.43.62,2.21,0,1.22-.52,2.37-1.43,3.17-1.15,1.02-2.86,1.28-4.29.77-.48-.17-.92-.43-1.31-.77h0c-.9-.8-1.42-1.95-1.42-3.17M323.07,283.39l-2.36,4.09h-14.65l-2.36-4.09v-2.37c0-1.04.53-2,1.41-2.55l5.01-3.15c2.04,1.45,4.59,1.44,6.53,0l5.01,3.15c.88.55,1.41,1.51,1.41,2.55v2.36ZM303.69,256.52v-2.36c0-1.04.53-2,1.41-2.55l5.01-3.15c2.2,1.49,4.5,1.36,6.53,0l5.01,3.15c.88.55,1.41,1.51,1.41,2.55v2.36l-2.36,4.09h-14.65l-2.36-4.09ZM316.18,247.21c-1.15,1.02-2.86,1.28-4.29.77-.48-.17-.92-.43-1.31-.77h0c-.9-.8-1.42-1.95-1.42-3.17,0-2.33,1.89-4.23,4.23-4.23.69,0,1.38.17,1.98.49.67.36,1.23.88,1.62,1.53.41.66.62,1.43.62,2.21,0,1.22-.52,2.37-1.43,3.17M302.43,254.15v.18l-3.7-6.41,7.33-12.69h14.65l7.33,12.69-3.7,6.41v-.18c0-1.48-.75-2.83-2-3.62l-4.74-2.98c.82-.98,1.28-2.22,1.28-3.52,0-1.01-.28-2.01-.81-2.87-.51-.84-1.24-1.52-2.11-1.98-.79-.42-1.68-.64-2.57-.64-3.03,0-5.49,2.46-5.49,5.49,0,1.3.46,2.54,1.28,3.52l-4.74,2.98c-1.25.79-2,2.14-2,3.62M344.48,247.53h-15.22l-7.83-13.56h-16.11l-8.05,13.95,7.76,13.44-7.76,13.44,8.05,13.95h16.11l7.69-13.32h15.36l8.05-13.95-8.05-13.95Z" style="fill: #df6d36;"/>
    <path d="M321.49,299.39c21.02,0,38.05-17.03,38.05-38.04s-17.03-38.04-38.05-38.04-38.03,17.03-38.03,38.04,17.03,38.04,38.03,38.04Z" style="fill: none; stroke: #df6d36;"/>
  </g>
</svg>