<?xml version="1.0" encoding="UTF-8"?>
<svg id="Layer_1" data-name="Layer 1" xmlns="http://www.w3.org/2000/svg" xmlns:xlink="http://www.w3.org/1999/xlink" viewBox="0 0 396 612">
  <defs>
    <clipPath id="clippath">
      <rect width="396" height="612" style="fill: none;"/>
    </clipPath>
  </defs>
  <rect width="396" height="198.72" style="fill: #a74e56;"/>
  <rect y="198.72" width="396" height="413.28" style="fill: #4a5960;"/>
  <g>
    <path d="M52.96,343.82v-41.09h-14.51v-1.94h31.15v1.94h-14.58v41.09h-2.06Z" style="fill: #fff;"/>
    <path d="M109.14,343.82v-21.16h-29.35v21.16h-2.06v-43.02h2.06v19.93h29.35v-19.93h2.06v43.02h-2.06Z" style="fill: #fff;"/>
    <path d="M122.55,343.82v-43.02h26.32v1.94h-24.25v18h23.8v1.94h-23.8v19.22h24.25v1.93h-26.32Z" style="fill: #fff;"/>
  </g>
  <g>
    <path d="M41.1,413.67c2.64,3.22,7.16,6.38,13.35,6.38,9.93,0,12.45-5.68,12.45-9.74,0-6.97-6.26-8.84-12.64-10.64-6.64-1.87-13.48-3.74-13.48-11.22,0-6.97,6.39-10.96,13.48-10.96,6.32,0,10.9,2.32,13.93,6.06l-1.61,1.48c-3.03-3.93-7.35-5.61-12.32-5.61-6.26,0-11.22,3.74-11.22,9.03,0,5.8,5.81,7.42,11.93,9.16,6.9,2,14.19,4.19,14.19,12.71,0,4.84-3.1,11.67-14.71,11.67-6.71,0-11.93-2.9-15.03-6.84l1.68-1.48Z" style="fill: #fff;"/>
    <path d="M90.05,421.21v-41.09h-14.51v-1.93h31.15v1.93h-14.58v41.09h-2.06Z" style="fill: #fff;"/>
    <path d="M131.9,377.48c12.45,0,20.45,9.8,20.45,22.25s-8,22.25-20.45,22.25-20.45-9.8-20.45-22.25,7.93-22.25,20.45-22.25ZM131.9,379.42c-11.16,0-18.19,8.51-18.19,20.32s7.03,20.32,18.19,20.32,18.19-8.64,18.19-20.32-7.16-20.32-18.19-20.32Z" style="fill: #fff;"/>
    <path d="M187.69,421.21l-13.09-18.58h-10.32v18.58h-2.06v-43.02h14.83c6.97,0,12.71,4.32,12.71,12.19s-5.74,12.25-12.71,12.25l13.29,18.58h-2.64ZM177.05,380.13h-12.77v20.58h12.77c6.32,0,10.45-4.39,10.45-10.32s-4.13-10.26-10.45-10.26Z" style="fill: #fff;"/>
    <path d="M211.68,421.21v-18.64l-17.29-24.38h2.64l15.67,22.32,15.67-22.32h2.64l-17.29,24.38v18.64h-2.06Z" style="fill: #fff;"/>
  </g>
  <g>
    <path d="M41.68,498.61v-43.02h16.19c6.9,0,11.74,3.87,11.74,10.96,0,5.42-3.81,9.09-7.61,9.87,4.58.71,8.45,5.61,8.45,10.58,0,7.35-4.77,11.61-12.32,11.61h-16.45ZM43.74,475.52h14.13c6.32,0,9.48-4,9.48-8.96s-3.16-9.03-9.48-9.03h-14.13v18ZM43.74,496.67h14.38c6.32,0,10.06-3.74,10.06-9.61,0-4.9-3.35-9.61-10.06-9.61h-14.38v19.22Z" style="fill: #fff;"/>
    <path d="M80.37,498.61v-43.02h26.32v1.93h-24.25v18h23.8v1.94h-23.8v19.22h24.25v1.93h-26.32Z" style="fill: #fff;"/>
    <path d="M147.77,498.61v-21.16h-29.35v21.16h-2.06v-43.02h2.06v19.93h29.35v-19.93h2.06v43.02h-2.06Z" style="fill: #fff;"/>
    <path d="M161.18,498.61v-43.02h2.06v43.02h-2.06Z" style="fill: #fff;"/>
    <path d="M205.68,498.61l-29.02-39.67v39.67h-2.06v-43.02h2.06l29.02,39.28v-39.28h2.06v43.02h-2.06Z" style="fill: #fff;"/>
    <path d="M219.1,498.61v-43.02h12.77c13.35,0,21.41,10.06,21.41,21.54s-8.06,21.48-21.41,21.48h-12.77ZM221.16,496.67h10.71c12.19,0,19.16-8.64,19.16-19.54s-6.97-19.61-19.16-19.61h-10.71v39.15Z" style="fill: #fff;"/>
  </g>
  <g>
    <path d="M41.68,576v-43.02h2.06v43.02h-2.06Z" style="fill: #fff;"/>
    <path d="M66.38,576v-41.09h-14.51v-1.93h31.15v1.93h-14.58v41.09h-2.06Z" style="fill: #fff;"/>
    <path d="M139.51,576l-4.77-11.54h-23.99l-4.77,11.54h-2.39l17.93-43.02h2.45l17.93,43.02h-2.39ZM122.74,535.37l-11.22,27.15h22.45l-11.22-27.15Z" style="fill: #fff;"/>
    <path d="M148.93,576v-43.02h2.06v41.09h21.61v1.93h-23.67Z" style="fill: #fff;"/>
    <path d="M181.11,576v-43.02h2.06v41.09h21.61v1.93h-23.67Z" style="fill: #fff;"/>
  </g>
  <rect x="38" y="42.89" width="320" height="113.31" style="fill: none; stroke: #4a5960; stroke-width: 4px;"/>
  <rect x="52.56" y="36" width="197.71" height="16.11" style="fill: #4a5960;"/>
  <g>
    <path d="M66.36,46.91l-.38-1.04h-2.68l-.38,1.04h-1.4l2.32-6h1.6l2.31,6h-1.4ZM64.64,42.01l-1,2.75h1.99l-.99-2.75Z" style="fill: #fff;"/>
    <path d="M75.49,46.91l-2.86-4.03v4.03h-1.28v-6h1.31l2.78,3.89v-3.89h1.28v6h-1.23Z" style="fill: #fff;"/>
    <path d="M82.66,46.91l-.38-1.04h-2.68l-.38,1.04h-1.4l2.32-6h1.6l2.31,6h-1.4ZM80.94,42.01l-1,2.75h1.99l-.99-2.75Z" style="fill: #fff;"/>
    <path d="M88.54,46.91l-1.18-2.15h-.94v2.15h-1.28v-6h2.81c1.25,0,2.02.82,2.02,1.94s-.67,1.63-1.31,1.78l1.35,2.29h-1.47ZM87.77,42h-1.34v1.66h1.34c.51,0,.9-.32.9-.83s-.39-.83-.9-.83Z" style="fill: #fff;"/>
    <path d="M94.87,46.91l-1.18-2.15h-.94v2.15h-1.28v-6h2.81c1.25,0,2.02.82,2.02,1.94s-.67,1.63-1.31,1.78l1.35,2.29h-1.47ZM94.1,42h-1.34v1.66h1.34c.51,0,.9-.32.9-.83s-.39-.83-.9-.83Z" style="fill: #fff;"/>
    <path d="M102.01,46.91l-.38-1.04h-2.68l-.38,1.04h-1.4l2.32-6h1.6l2.31,6h-1.4ZM100.29,42.01l-1,2.75h1.99l-.99-2.75Z" style="fill: #fff;"/>
    <path d="M105.32,46.91v-4.88h-1.76v-1.13h4.79v1.13h-1.75v4.88h-1.29Z" style="fill: #fff;"/>
    <path d="M109.71,46.91v-6h1.28v6h-1.28Z" style="fill: #fff;"/>
    <path d="M114.4,46.91l-2.32-6h1.46l1.67,4.62,1.66-4.62h1.46l-2.31,6h-1.6Z" style="fill: #fff;"/>
    <path d="M119.41,46.91v-6h4.25v1.1h-2.97v1.31h2.91v1.1h-2.91v1.4h2.97v1.11h-4.25Z" style="fill: #fff;"/>
    <path d="M127.71,45.45c.23.23.54.43.95.43.57,0,.94-.38.94-.96v-4.02h1.28v4.03c0,1.42-.88,2.08-2.12,2.08-.61,0-1.18-.16-1.61-.58l.56-.98Z" style="fill: #fff;"/>
    <path d="M135.44,40.81c1.82,0,3.14,1.3,3.14,3.11s-1.32,3.11-3.14,3.11-3.13-1.3-3.13-3.11,1.32-3.11,3.13-3.11ZM135.44,41.94c-1.11,0-1.82.85-1.82,1.97s.71,1.97,1.82,1.97,1.83-.85,1.83-1.97-.72-1.97-1.83-1.97Z" style="fill: #fff;"/>
    <path d="M140.02,40.91h1.3v3.56c0,.84.46,1.41,1.4,1.41s1.38-.58,1.38-1.41v-3.56h1.3v3.6c0,1.49-.86,2.51-2.67,2.51s-2.69-1.03-2.69-2.5v-3.61Z" style="fill: #fff;"/>
    <path d="M150.51,46.91l-1.18-2.15h-.94v2.15h-1.28v-6h2.81c1.25,0,2.02.82,2.02,1.94s-.67,1.63-1.31,1.78l1.35,2.29h-1.47ZM149.73,42h-1.34v1.66h1.34c.51,0,.9-.32.9-.83s-.39-.83-.9-.83Z" style="fill: #fff;"/>
    <path d="M157.58,46.91l-2.86-4.03v4.03h-1.28v-6h1.31l2.78,3.89v-3.89h1.28v6h-1.23Z" style="fill: #fff;"/>
    <path d="M160.54,46.91v-6h4.25v1.1h-2.97v1.31h2.91v1.1h-2.91v1.4h2.97v1.11h-4.25Z" style="fill: #fff;"/>
    <path d="M168,46.91v-2.46l-2.31-3.55h1.46l1.49,2.41,1.48-2.41h1.46l-2.3,3.55v2.46h-1.28Z" style="fill: #fff;"/>
    <path d="M178.02,40.81c1.82,0,3.14,1.3,3.14,3.11s-1.32,3.11-3.14,3.11-3.13-1.3-3.13-3.11,1.32-3.11,3.13-3.11ZM178.02,41.94c-1.11,0-1.82.85-1.82,1.97s.71,1.97,1.82,1.97,1.83-.85,1.83-1.97-.72-1.97-1.83-1.97Z" style="fill: #fff;"/>
    <path d="M182.59,46.91v-6h4.25v1.1h-2.97v1.31h2.91v1.1h-2.91v2.5h-1.28Z" style="fill: #fff;"/>
    <path d="M190.47,43.91c0-1.85,1.4-3.11,3.15-3.11,1.37,0,2.13.72,2.56,1.47l-1.1.54c-.25-.49-.79-.87-1.46-.87-1.04,0-1.84.84-1.84,1.97s.79,1.97,1.84,1.97c.67,0,1.21-.38,1.46-.87l1.1.53c-.43.75-1.19,1.48-2.56,1.48-1.76,0-3.15-1.26-3.15-3.11Z" style="fill: #fff;"/>
    <path d="M201.6,46.91v-2.52h-2.84v2.52h-1.28v-6h1.28v2.36h2.84v-2.36h1.29v6h-1.29Z" style="fill: #fff;"/>
    <path d="M208,46.91l-1.18-2.15h-.94v2.15h-1.28v-6h2.81c1.25,0,2.02.82,2.02,1.94s-.67,1.63-1.31,1.78l1.35,2.29h-1.47ZM207.22,42h-1.34v1.66h1.34c.51,0,.9-.32.9-.83s-.39-.83-.9-.83Z" style="fill: #fff;"/>
    <path d="M210.93,46.91v-6h1.28v6h-1.28Z" style="fill: #fff;"/>
    <path d="M214.22,45.09c.42.44,1.08.81,1.91.81.7,0,1.04-.33,1.04-.68,0-.45-.52-.6-1.21-.77-.98-.23-2.24-.5-2.24-1.84,0-1,.86-1.81,2.28-1.81.95,0,1.75.29,2.34.84l-.71.94c-.49-.45-1.13-.66-1.72-.66s-.88.25-.88.61c0,.41.5.53,1.2.69.99.22,2.25.52,2.25,1.85,0,1.1-.78,1.93-2.4,1.93-1.15,0-1.98-.39-2.55-.95l.7-.97Z" style="fill: #fff;"/>
    <path d="M221.15,46.91v-4.88h-1.76v-1.13h4.79v1.13h-1.75v4.88h-1.29Z" style="fill: #fff;"/>
    <path d="M225.54,46.91v-6h1.28v6h-1.28Z" style="fill: #fff;"/>
    <path d="M232.75,46.91l-.38-1.04h-2.68l-.38,1.04h-1.4l2.32-6h1.6l2.31,6h-1.4ZM231.03,42.01l-1,2.75h1.99l-.99-2.75Z" style="fill: #fff;"/>
    <path d="M239.38,46.91l-2.86-4.03v4.03h-1.28v-6h1.31l2.78,3.89v-3.89h1.28v6h-1.23Z" style="fill: #fff;"/>
  </g>
  <g>
    <path d="M58.14,126.6v-54.69h9.84c6.97,0,11.15,5.25,11.15,13.94,0,6.89-2.46,10.91-6.72,12.55,4.51.74,7.46,7.05,7.46,13.45,0,9.1-3.61,14.76-11.56,14.76h-10.17ZM62.48,96.59h4.84c5.49,0,7.22-4.59,7.22-10.33s-1.72-10.33-7.22-10.33h-4.84v20.66ZM62.48,122.58h5.17c5.58,0,7.63-4.18,7.63-10.99,0-5.74-2.05-11.07-7.63-11.07h-5.17v22.06Z" style="fill: #fff;"/>
    <path d="M116.19,126.6v-54.69h18.7v4.02h-14.35v20.66h13.78v3.94h-13.78v22.06h14.35v4.02h-18.7Z" style="fill: #fff;"/>
    <path d="M170.97,126.6v-54.69h4.35v50.68h14.35v4.02h-18.7Z" style="fill: #fff;"/>
    <path d="M224.02,126.6v-54.69h4.35v54.69h-4.35Z" style="fill: #fff;"/>
    <path d="M266.33,126.6v-54.69h18.7v4.02h-14.35v20.66h13.78v3.94h-13.78v22.06h14.35v4.02h-18.7Z" style="fill: #fff;"/>
    <path d="M321.11,126.6v-54.69h18.7v4.02h-14.35v20.66h13.78v3.94h-13.78v26.08h-4.35Z" style="fill: #fff;"/>
  </g>
  <rect x="220.46" y="146.61" width="122.98" height="16.11" style="fill: #4a5960;"/>
  <g>
    <path d="M235.28,157.52v-4.32l-1.69,4.32h-.56l-1.69-4.32v4.32h-1.28v-6h1.79l1.46,3.75,1.46-3.75h1.8v6h-1.29Z" style="fill: #fff;"/>
    <path d="M242.4,157.52l-.38-1.04h-2.68l-.38,1.04h-1.4l2.32-6h1.6l2.31,6h-1.4ZM240.68,152.62l-1,2.75h1.99l-.99-2.75Z" style="fill: #fff;"/>
    <path d="M245.62,157.52v-4.88h-1.76v-1.13h4.79v1.13h-1.75v4.88h-1.29Z" style="fill: #fff;"/>
    <path d="M251.31,157.52v-4.88h-1.76v-1.13h4.79v1.13h-1.75v4.88h-1.29Z" style="fill: #fff;"/>
    <path d="M259.72,157.52v-2.52h-2.83v2.52h-1.28v-6h1.28v2.36h2.83v-2.36h1.29v6h-1.29Z" style="fill: #fff;"/>
    <path d="M262.64,157.52v-6h4.25v1.1h-2.97v1.31h2.91v1.1h-2.91v1.4h2.97v1.11h-4.25Z" style="fill: #fff;"/>
    <path d="M272.92,157.52l-1.05-4.12-1.04,4.12h-1.36l-1.72-6h1.43l1.05,4.34,1.14-4.34h1l1.13,4.34,1.04-4.34h1.44l-1.71,6h-1.36Z" style="fill: #fff;"/>
    <path d="M283.17,157.52l-1.18-2.15h-.94v2.15h-1.28v-6h2.81c1.25,0,2.02.82,2.02,1.94s-.67,1.63-1.31,1.78l1.35,2.29h-1.47ZM282.39,152.61h-1.34v1.66h1.34c.51,0,.9-.32.9-.83s-.39-.83-.9-.83Z" style="fill: #fff;"/>
    <path d="M286.57,156.16c.4,0,.73.33.73.73s-.33.73-.73.73-.73-.33-.73-.73.33-.73.73-.73Z" style="fill: #fff;"/>
    <path d="M291.5,157.52v-6h1.28v4.88h2.54v1.13h-3.82Z" style="fill: #fff;"/>
    <path d="M297.2,157.52v-2.46l-2.31-3.55h1.46l1.5,2.41,1.48-2.41h1.46l-2.3,3.55v2.46h-1.28Z" style="fill: #fff;"/>
    <path d="M305.92,157.52l-2.86-4.03v4.03h-1.28v-6h1.31l2.78,3.89v-3.89h1.28v6h-1.23Z" style="fill: #fff;"/>
    <path d="M309.08,155.7c.42.44,1.08.81,1.91.81.7,0,1.04-.33,1.04-.68,0-.45-.52-.6-1.21-.77-.98-.23-2.24-.5-2.24-1.84,0-1,.86-1.81,2.28-1.81.95,0,1.75.29,2.34.84l-.71.94c-.49-.45-1.13-.66-1.72-.66s-.88.25-.88.61c0,.41.5.53,1.2.69.99.22,2.25.52,2.25,1.85,0,1.1-.78,1.93-2.4,1.93-1.15,0-1.98-.39-2.55-.95l.7-.97Z" style="fill: #fff;"/>
    <path d="M318.21,157.52l-1.82-2.4-.47.56v1.85h-1.28v-6h1.28v2.68l2.12-2.68h1.58l-2.39,2.82,2.55,3.19h-1.58Z" style="fill: #fff;"/>
    <path d="M320.81,157.52v-6h4.25v1.1h-2.97v1.31h2.91v1.1h-2.91v1.4h2.97v1.11h-4.25Z" style="fill: #fff;"/>
    <path d="M328.18,157.52v-2.46l-2.31-3.55h1.46l1.5,2.41,1.48-2.41h1.46l-2.3,3.55v2.46h-1.28Z" style="fill: #fff;"/>
  </g>
  <g style="clip-path: url(#clippath);">
    <path d="M335.17,280.85c-.94,0-1.9-.05-2.84-.15-5.15-.56-9.79-2.51-13.78-5.8-4.05-3.34-6.87-7.59-8.4-12.65.87-.6,1.76-1.13,2.67-1.57.22.79.46,1.6.78,2.39,3.19,7.8,8.95,12.64,17.15,14.36,1.47.31,2.97.47,4.45.47,2.63,0,5.31-.49,7.96-1.46.83-.3,1.2-.95,1.05-1.83-.87-4.95-3.15-9.25-6.77-12.78-.21-.2-.42-.39-.64-.58-.09-.08-.19-.16-.28-.24.23-1.11.41-2.24.52-3.44.04.03.08.06.12.09,5.26,4.05,8.57,9.35,9.86,15.76.22,1.1.31,2.22.41,3.41.03.31.05.61.08.92-2.66,1.36-5.17,2.24-7.66,2.69-1.56.28-3.14.42-4.69.42" style="fill: #a74e56;"/>
    <path d="M326.76,272.74c-.99-.47-1.88-.98-2.7-1.53,5.22-5.32,7.46-11.71,6.67-19.03-.66-6.11-3.53-11.29-8.52-15.39l-.71-.58-.72.57c-1.49,1.19-2.76,2.47-3.88,3.92-2.27,2.94-3.76,6.25-4.43,9.85-1.07.33-2.14.75-3.21,1.24,1.09-8.23,5.1-14.52,12.2-19.18,2.99,1.9,5.4,4.12,7.34,6.76,2.64,3.59,4.25,7.52,4.8,11.66,1.09,8.3-1.21,15.6-6.84,21.71" style="fill: #a74e56;"/>
    <path d="M307.88,280.86c-.58,0-1.16-.02-1.75-.05-3.58-.22-7.09-1.21-10.41-2.93,0,0-.24-.13-.29-.15.12-1.68.28-3.44.69-5.16,1.16-4.92,3.56-9.2,7.14-12.7,3.56-3.49,7.84-5.81,12.72-6.87,1.8-.39,3.61-.59,5.39-.59,1,0,2.01.06,3.01.19.76.09,1.51.24,2.3.4.28.05.55.11.83.16v.29c.02.92.04,1.85.05,2.77-.32-.08-.64-.16-.96-.23-1.82-.38-3.62-.57-5.35-.57-5.25,0-10.09,1.77-14.39,5.26-4.24,3.44-6.95,8.02-8.04,13.59-.26,1.3.06,1.86,1.31,2.29,2.57.88,5.16,1.33,7.72,1.33s5.1-.44,7.61-1.31c.83.76,1.71,1.47,2.67,2.15-.7.29-1.42.57-2.12.82-2.55.88-5.28,1.32-8.12,1.32" style="fill: #a74e56;"/>
    <path d="M321.47,299.02c21.02,0,38.04-17.03,38.04-38.03s-17.03-38.04-38.04-38.04-38.03,17.03-38.03,38.04,17.03,38.03,38.03,38.03Z" style="fill: none; stroke: #a74e56;"/>
  </g>
</svg>
