<?xml version="1.0" encoding="UTF-8"?>
<svg id="Layer_1" data-name="Layer 1" xmlns="http://www.w3.org/2000/svg" xmlns:xlink="http://www.w3.org/1999/xlink" viewBox="0 0 396 612">
  <defs>
    <clipPath id="clippath">
      <rect width="396" height="612" style="fill: none;"/>
    </clipPath>
  </defs>
  <rect width="396" height="198.72" style="fill: #874487;"/>
  <rect y="198.72" width="396" height="413.28" style="fill: #4a5960;"/>
  <g>
    <path d="M52.96,343.82v-41.09h-14.51v-1.94h31.15v1.94h-14.58v41.09h-2.06Z" style="fill: #fff;"/>
    <path d="M109.14,343.82v-21.16h-29.35v21.16h-2.06v-43.02h2.06v19.93h29.35v-19.93h2.06v43.02h-2.06Z" style="fill: #fff;"/>
    <path d="M122.55,343.82v-43.02h26.32v1.94h-24.25v18h23.8v1.94h-23.8v19.22h24.25v1.93h-26.32Z" style="fill: #fff;"/>
  </g>
  <g>
    <path d="M41.68,421.21v-43.02h26.32v1.93h-24.25v18h23.8v1.94h-23.8v19.22h24.25v1.93h-26.32Z" style="fill: #fff;"/>
    <path d="M108.75,421.21l-29.02-39.67v39.67h-2.06v-43.02h2.06l29.02,39.28v-39.28h2.06v43.02h-2.06Z" style="fill: #fff;"/>
    <path d="M122.16,421.21v-43.02h12.77c13.35,0,21.41,10.06,21.41,21.54s-8.06,21.48-21.41,21.48h-12.77ZM124.23,419.28h10.71c12.19,0,19.16-8.64,19.16-19.54s-6.97-19.61-19.16-19.61h-10.71v39.15Z" style="fill: #fff;"/>
    <path d="M165.7,413.67c2.64,3.22,7.16,6.38,13.35,6.38,9.93,0,12.45-5.68,12.45-9.74,0-6.97-6.26-8.84-12.64-10.64-6.64-1.87-13.48-3.74-13.48-11.22,0-6.97,6.39-10.96,13.48-10.96,6.32,0,10.9,2.32,13.93,6.06l-1.61,1.48c-3.03-3.93-7.35-5.61-12.32-5.61-6.26,0-11.22,3.74-11.22,9.03,0,5.8,5.81,7.42,11.93,9.16,6.9,2,14.19,4.19,14.19,12.71,0,4.84-3.1,11.67-14.71,11.67-6.71,0-11.93-2.9-15.03-6.84l1.68-1.48Z" style="fill: #fff;"/>
  </g>
  <g>
    <path d="M60.64,454.88c12.45,0,20.45,9.8,20.45,22.25s-8,22.25-20.45,22.25-20.45-9.8-20.45-22.25,7.93-22.25,20.45-22.25ZM60.64,456.81c-11.16,0-18.19,8.51-18.19,20.32s7.03,20.32,18.19,20.32,18.19-8.64,18.19-20.32-7.16-20.32-18.19-20.32Z" style="fill: #fff;"/>
    <path d="M90.95,498.61v-43.02h26.32v1.93h-24.25v18h23.8v1.94h-23.8v21.16h-2.06Z" style="fill: #fff;"/>
    <path d="M153.38,498.61v-41.09h-14.51v-1.93h31.15v1.93h-14.58v41.09h-2.06Z" style="fill: #fff;"/>
    <path d="M209.55,498.61v-21.16h-29.35v21.16h-2.06v-43.02h2.06v19.93h29.35v-19.93h2.06v43.02h-2.06Z" style="fill: #fff;"/>
    <path d="M222.96,498.61v-43.02h26.32v1.93h-24.25v18h23.8v1.94h-23.8v19.22h24.25v1.93h-26.32Z" style="fill: #fff;"/>
  </g>
  <g>
    <path d="M41.68,576v-43.02h26.32v1.93h-24.25v18h23.8v1.94h-23.8v19.22h24.25v1.93h-26.32Z" style="fill: #fff;"/>
    <path d="M109.27,576l-4.77-11.54h-23.99l-4.77,11.54h-2.39l17.93-43.02h2.45l17.93,43.02h-2.39ZM92.5,535.37l-11.22,27.15h22.45l-11.22-27.15Z" style="fill: #fff;"/>
    <path d="M144.16,576l-13.09-18.58h-10.32v18.58h-2.06v-43.02h14.83c6.97,0,12.71,4.32,12.71,12.19s-5.74,12.25-12.71,12.25l13.29,18.58h-2.64ZM133.52,534.91h-12.77v20.58h12.77c6.32,0,10.45-4.39,10.45-10.32s-4.13-10.26-10.45-10.26Z" style="fill: #fff;"/>
    <path d="M166.73,576v-41.09h-14.51v-1.93h31.15v1.93h-14.58v41.09h-2.06Z" style="fill: #fff;"/>
    <path d="M222.9,576v-21.16h-29.35v21.16h-2.06v-43.02h2.06v19.93h29.35v-19.93h2.06v43.02h-2.06Z" style="fill: #fff;"/>
  </g>
  <rect x="38" y="42.89" width="320" height="113.31" style="fill: none; stroke: #4a5960; stroke-width: 4px;"/>
  <rect x="52.56" y="36" width="197.71" height="16.11" style="fill: #4a5960;"/>
  <g>
    <path d="M66.36,46.91l-.38-1.04h-2.68l-.38,1.04h-1.4l2.32-6h1.6l2.31,6h-1.4ZM64.64,42.01l-1,2.75h1.99l-.99-2.75Z" style="fill: #fff;"/>
    <path d="M75.49,46.91l-2.86-4.03v4.03h-1.28v-6h1.31l2.78,3.89v-3.89h1.28v6h-1.23Z" style="fill: #fff;"/>
    <path d="M82.66,46.91l-.38-1.04h-2.68l-.38,1.04h-1.4l2.32-6h1.6l2.31,6h-1.4ZM80.94,42.01l-1,2.75h1.99l-.99-2.75Z" style="fill: #fff;"/>
    <path d="M88.54,46.91l-1.18-2.15h-.94v2.15h-1.28v-6h2.81c1.25,0,2.02.82,2.02,1.94s-.67,1.63-1.31,1.78l1.35,2.29h-1.47ZM87.77,42h-1.34v1.66h1.34c.51,0,.9-.32.9-.83s-.39-.83-.9-.83Z" style="fill: #fff;"/>
    <path d="M94.87,46.91l-1.18-2.15h-.94v2.15h-1.28v-6h2.81c1.25,0,2.02.82,2.02,1.94s-.67,1.63-1.31,1.78l1.35,2.29h-1.47ZM94.1,42h-1.34v1.66h1.34c.51,0,.9-.32.9-.83s-.39-.83-.9-.83Z" style="fill: #fff;"/>
    <path d="M102.01,46.91l-.38-1.04h-2.68l-.38,1.04h-1.4l2.32-6h1.6l2.31,6h-1.4ZM100.29,42.01l-1,2.75h1.99l-.99-2.75Z" style="fill: #fff;"/>
    <path d="M105.32,46.91v-4.88h-1.76v-1.13h4.79v1.13h-1.75v4.88h-1.29Z" style="fill: #fff;"/>
    <path d="M109.71,46.91v-6h1.28v6h-1.28Z" style="fill: #fff;"/>
    <path d="M114.4,46.91l-2.32-6h1.46l1.67,4.62,1.66-4.62h1.46l-2.31,6h-1.6Z" style="fill: #fff;"/>
    <path d="M119.41,46.91v-6h4.25v1.1h-2.97v1.31h2.91v1.1h-2.91v1.4h2.97v1.11h-4.25Z" style="fill: #fff;"/>
    <path d="M127.71,45.45c.23.23.54.43.95.43.57,0,.94-.38.94-.96v-4.02h1.28v4.03c0,1.42-.88,2.08-2.12,2.08-.61,0-1.18-.16-1.61-.58l.56-.98Z" style="fill: #fff;"/>
    <path d="M135.44,40.81c1.82,0,3.14,1.3,3.14,3.11s-1.32,3.11-3.14,3.11-3.13-1.3-3.13-3.11,1.32-3.11,3.13-3.11ZM135.44,41.94c-1.11,0-1.82.85-1.82,1.97s.71,1.97,1.82,1.97,1.83-.85,1.83-1.97-.72-1.97-1.83-1.97Z" style="fill: #fff;"/>
    <path d="M140.02,40.91h1.3v3.56c0,.84.46,1.41,1.4,1.41s1.38-.58,1.38-1.41v-3.56h1.3v3.6c0,1.49-.86,2.51-2.67,2.51s-2.69-1.03-2.69-2.5v-3.61Z" style="fill: #fff;"/>
    <path d="M150.51,46.91l-1.18-2.15h-.94v2.15h-1.28v-6h2.81c1.25,0,2.02.82,2.02,1.94s-.67,1.63-1.31,1.78l1.35,2.29h-1.47ZM149.73,42h-1.34v1.66h1.34c.51,0,.9-.32.9-.83s-.39-.83-.9-.83Z" style="fill: #fff;"/>
    <path d="M157.58,46.91l-2.86-4.03v4.03h-1.28v-6h1.31l2.78,3.89v-3.89h1.28v6h-1.23Z" style="fill: #fff;"/>
    <path d="M160.54,46.91v-6h4.25v1.1h-2.97v1.31h2.91v1.1h-2.91v1.4h2.97v1.11h-4.25Z" style="fill: #fff;"/>
    <path d="M168,46.91v-2.46l-2.31-3.55h1.46l1.49,2.41,1.48-2.41h1.46l-2.3,3.55v2.46h-1.28Z" style="fill: #fff;"/>
    <path d="M178.02,40.81c1.82,0,3.14,1.3,3.14,3.11s-1.32,3.11-3.14,3.11-3.13-1.3-3.13-3.11,1.32-3.11,3.13-3.11ZM178.02,41.94c-1.11,0-1.82.85-1.82,1.97s.71,1.97,1.82,1.97,1.83-.85,1.83-1.97-.72-1.97-1.83-1.97Z" style="fill: #fff;"/>
    <path d="M182.59,46.91v-6h4.25v1.1h-2.97v1.31h2.91v1.1h-2.91v2.5h-1.28Z" style="fill: #fff;"/>
    <path d="M190.47,43.91c0-1.85,1.4-3.11,3.15-3.11,1.37,0,2.13.72,2.56,1.47l-1.1.54c-.25-.49-.79-.87-1.46-.87-1.04,0-1.84.84-1.84,1.97s.79,1.97,1.84,1.97c.67,0,1.21-.38,1.46-.87l1.1.53c-.43.75-1.19,1.48-2.56,1.48-1.76,0-3.15-1.26-3.15-3.11Z" style="fill: #fff;"/>
    <path d="M201.6,46.91v-2.52h-2.84v2.52h-1.28v-6h1.28v2.36h2.84v-2.36h1.29v6h-1.29Z" style="fill: #fff;"/>
    <path d="M208,46.91l-1.18-2.15h-.94v2.15h-1.28v-6h2.81c1.25,0,2.02.82,2.02,1.94s-.67,1.63-1.31,1.78l1.35,2.29h-1.47ZM207.22,42h-1.34v1.66h1.34c.51,0,.9-.32.9-.83s-.39-.83-.9-.83Z" style="fill: #fff;"/>
    <path d="M210.93,46.91v-6h1.28v6h-1.28Z" style="fill: #fff;"/>
    <path d="M214.22,45.09c.42.44,1.08.81,1.91.81.7,0,1.04-.33,1.04-.68,0-.45-.52-.6-1.21-.77-.98-.23-2.24-.5-2.24-1.84,0-1,.86-1.81,2.28-1.81.95,0,1.75.29,2.34.84l-.71.94c-.49-.45-1.13-.66-1.72-.66s-.88.25-.88.61c0,.41.5.53,1.2.69.99.22,2.25.52,2.25,1.85,0,1.1-.78,1.93-2.4,1.93-1.15,0-1.98-.39-2.55-.95l.7-.97Z" style="fill: #fff;"/>
    <path d="M221.15,46.91v-4.88h-1.76v-1.13h4.79v1.13h-1.75v4.88h-1.29Z" style="fill: #fff;"/>
    <path d="M225.54,46.91v-6h1.28v6h-1.28Z" style="fill: #fff;"/>
    <path d="M232.75,46.91l-.38-1.04h-2.68l-.38,1.04h-1.4l2.32-6h1.6l2.31,6h-1.4ZM231.03,42.01l-1,2.75h1.99l-.99-2.75Z" style="fill: #fff;"/>
    <path d="M239.38,46.91l-2.86-4.03v4.03h-1.28v-6h1.31l2.78,3.89v-3.89h1.28v6h-1.23Z" style="fill: #fff;"/>
  </g>
  <g>
    <path d="M86.34,126.6v-46.41l-10.99,46.41h-1.89l-10.99-46.41v46.41h-4.35v-54.69h6.23l10.09,42.15,10.09-42.15h6.23v54.69h-4.43Z" style="fill: #fff;"/>
    <path d="M117.34,126.6v-54.69h4.35v54.69h-4.35Z" style="fill: #fff;"/>
    <path d="M147.27,119.22c1.8,2.71,5,4.35,7.95,4.35,4.26,0,7.79-3.69,7.79-9.51,0-6.64-3.94-10.41-8.04-14.19-4.26-4.02-8.77-8.2-8.77-16.15s5.08-12.71,11.4-12.71c3.44,0,6.56,1.15,8.86,3.61l-2.13,3.36c-1.8-1.97-4.02-2.95-6.64-2.95-3.77,0-7.05,3.28-7.05,8.61s3.53,8.86,7.38,12.55c4.51,4.26,9.43,8.94,9.43,17.71,0,7.79-4.76,13.69-12.05,13.69-4.26,0-8.04-1.72-10.66-4.84l2.54-3.53Z" style="fill: #fff;"/>
    <path d="M190.4,119.22c1.8,2.71,5,4.35,7.95,4.35,4.26,0,7.79-3.69,7.79-9.51,0-6.64-3.94-10.41-8.04-14.19-4.26-4.02-8.77-8.2-8.77-16.15s5.08-12.71,11.4-12.71c3.44,0,6.56,1.15,8.86,3.61l-2.13,3.36c-1.8-1.97-4.02-2.95-6.64-2.95-3.77,0-7.05,3.28-7.05,8.61s3.53,8.86,7.38,12.55c4.51,4.26,9.43,8.94,9.43,17.71,0,7.79-4.76,13.69-12.05,13.69-4.26,0-8.04-1.72-10.66-4.84l2.54-3.53Z" style="fill: #fff;"/>
    <path d="M234.6,126.6v-54.69h4.35v54.69h-4.35Z" style="fill: #fff;"/>
    <path d="M276.99,71.01c9.76,0,13.12,12.96,13.12,28.29s-3.36,28.29-13.12,28.29-13.04-12.87-13.04-28.29,3.36-28.29,13.04-28.29ZM276.99,75.02c-6.23,0-8.36,11.23-8.36,24.27s2.13,24.27,8.36,24.27,8.45-11.4,8.45-24.27-2.13-24.27-8.45-24.27Z" style="fill: #fff;"/>
    <path d="M333.82,126.6l-14.35-43.71v43.71h-4.35v-54.69h4.35l14.19,42.89v-42.89h4.43v54.69h-4.26Z" style="fill: #fff;"/>
  </g>
  <rect x="220.46" y="146.61" width="122.98" height="16.11" style="fill: #4a5960;"/>
  <g>
    <path d="M235.28,157.52v-4.32l-1.69,4.32h-.56l-1.69-4.32v4.32h-1.28v-6h1.79l1.46,3.75,1.46-3.75h1.8v6h-1.29Z" style="fill: #fff;"/>
    <path d="M242.4,157.52l-.38-1.04h-2.68l-.38,1.04h-1.4l2.32-6h1.6l2.31,6h-1.4ZM240.68,152.62l-1,2.75h1.99l-.99-2.75Z" style="fill: #fff;"/>
    <path d="M245.62,157.52v-4.88h-1.76v-1.13h4.79v1.13h-1.75v4.88h-1.29Z" style="fill: #fff;"/>
    <path d="M251.31,157.52v-4.88h-1.76v-1.13h4.79v1.13h-1.75v4.88h-1.29Z" style="fill: #fff;"/>
    <path d="M259.72,157.52v-2.52h-2.83v2.52h-1.28v-6h1.28v2.36h2.83v-2.36h1.29v6h-1.29Z" style="fill: #fff;"/>
    <path d="M262.64,157.52v-6h4.25v1.1h-2.97v1.31h2.91v1.1h-2.91v1.4h2.97v1.11h-4.25Z" style="fill: #fff;"/>
    <path d="M272.92,157.52l-1.05-4.12-1.04,4.12h-1.36l-1.72-6h1.43l1.05,4.34,1.14-4.34h1l1.13,4.34,1.04-4.34h1.44l-1.71,6h-1.36Z" style="fill: #fff;"/>
    <path d="M283.17,157.52l-1.18-2.15h-.94v2.15h-1.28v-6h2.81c1.25,0,2.02.82,2.02,1.94s-.67,1.63-1.31,1.78l1.35,2.29h-1.47ZM282.39,152.61h-1.34v1.66h1.34c.51,0,.9-.32.9-.83s-.39-.83-.9-.83Z" style="fill: #fff;"/>
    <path d="M286.57,156.16c.4,0,.73.33.73.73s-.33.73-.73.73-.73-.33-.73-.73.33-.73.73-.73Z" style="fill: #fff;"/>
    <path d="M291.5,157.52v-6h1.28v4.88h2.54v1.13h-3.82Z" style="fill: #fff;"/>
    <path d="M297.2,157.52v-2.46l-2.31-3.55h1.46l1.5,2.41,1.48-2.41h1.46l-2.3,3.55v2.46h-1.28Z" style="fill: #fff;"/>
    <path d="M305.92,157.52l-2.86-4.03v4.03h-1.28v-6h1.31l2.78,3.89v-3.89h1.28v6h-1.23Z" style="fill: #fff;"/>
    <path d="M309.08,155.7c.42.44,1.08.81,1.91.81.7,0,1.04-.33,1.04-.68,0-.45-.52-.6-1.21-.77-.98-.23-2.24-.5-2.24-1.84,0-1,.86-1.81,2.28-1.81.95,0,1.75.29,2.34.84l-.71.94c-.49-.45-1.13-.66-1.72-.66s-.88.25-.88.61c0,.41.5.53,1.2.69.99.22,2.25.52,2.25,1.85,0,1.1-.78,1.93-2.4,1.93-1.15,0-1.98-.39-2.55-.95l.7-.97Z" style="fill: #fff;"/>
    <path d="M318.21,157.52l-1.82-2.4-.47.56v1.85h-1.28v-6h1.28v2.68l2.12-2.68h1.58l-2.39,2.82,2.55,3.19h-1.58Z" style="fill: #fff;"/>
    <path d="M320.81,157.52v-6h4.25v1.1h-2.97v1.31h2.91v1.1h-2.91v1.4h2.97v1.11h-4.25Z" style="fill: #fff;"/>
    <path d="M328.18,157.52v-2.46l-2.31-3.55h1.46l1.5,2.41,1.48-2.41h1.46l-2.3,3.55v2.46h-1.28Z" style="fill: #fff;"/>
  </g>
  <g style="clip-path: url(#clippath);">
    <path d="M321.89,299.95c21.02,0,38.05-17.03,38.05-38.04s-17.03-38.04-38.05-38.04-38.03,17.03-38.03,38.04,17.03,38.04,38.03,38.04Z" style="fill: none; stroke: #874487;"/>
    <path d="M325.9,283.61c-1.5-.14-3.24-.35-5.08-.71-1.21-.23-2.38-.65-3.56-1.01-.38-.11-.58-.03-.8.3-.48.72-1,1.41-1.54,2.08-.6.76-1.22,1.51-1.88,2.21-1.18,1.27-2.5,2.36-4.06,3.15-.54.28-2.1.76-2.34.74.15-.16,2.06-1.73,2.82-2.41.73-.66,1.46-1.35,2.07-2.12,1.1-1.38,2.1-2.83,3.16-4.24.33-.44.21-.71-.25-.92-1.96-.9-3.77-2.05-5.4-3.44-1.21-1.02-3.49-3.68-3.54-3.86.18.03,2.56,1.64,3.64,2.28,1.98,1.15,4.01,2.23,6.04,3.29,1.07.56.87.39,1.51-.56.92-1.36,1.81-2.74,2.77-4.07.69-.95,1.44-1.86,2.24-2.71.81-.86,1.65-1.72,2.61-2.4,1.22-.87,2.52-1.66,3.87-2.31,1.54-.75,3.23-1.14,4.95-1.24,2.44-.14,4.85.15,7.2.82.44.13.88.3,1.31.46.05.02.09.09.14.14-.05.04-.11.12-.17.12-.23,0-.46,0-.68-.03-1.8-.18-3.59-.5-5.39-.52-2.27-.02-4.45.51-6.52,1.5-1.79.86-3.42,1.96-4.74,3.41-1.48,1.62-2.79,3.4-4.13,5.14-.7.91-1.32,1.88-1.99,2.82-.32.46-.01.61.34.69,1.36.31,2.73.62,4.1.89,1.86.37,3.75.43,5.63.18,2.13-.28,4.17-.85,6.08-1.89,2.09-1.14,3.79-2.71,5.21-4.6,1.58-2.08,2.64-4.41,3.45-6.88.81-2.5,1.25-5.05,1.56-7.65.13-1.11.66-2.07,1.27-3,.78-1.18,1.75-2.18,2.86-3.04.17-.13.31-.28.47-.42-.18-.09-.36-.21-.55-.26-1.62-.4-3.26-.68-4.94-.56-1.2.08-2.22.61-3.17,1.31-1.54,1.13-2.69,2.62-3.96,4.01-1.47,1.61-3.11,3.05-5.37,3.42-1.42.23-2.76-.18-3.99-.89-1.21-.7-2.4-1.43-3.56-2.22-1.41-.96-2.75-2.01-4.14-3.01-1.87-1.34-3.88-2.39-6.15-2.9-2.17-.49-4.35-.96-6.49-1.57-1.46-.41-2.86-1-4.26-1.58-.51-.21-.93-.62-1.4-.93-.1-.06-.21-.1-.32-.15-.02.12-.08.25-.05.35.49,1.83.92,3.69,1.5,5.49.59,1.85,1.8,3.33,3.19,4.65,1.35,1.29,2.76,2.51,4.11,3.79,2.08,1.98,4.13,4,5.55,6.54.63,1.13,1.51,3.93,1.48,4.11-1.55-2.05-2.9-4.9-4.88-6.63-1.06-.92-2.18-1.78-3.27-2.66-1.54-1.24-3.15-2.41-4.6-3.75-1.01-.93-1.92-2.01-2.68-3.15-.84-1.26-1.52-2.65-2.14-4.04-.45-1.01-.74-2.11-1.01-3.19-.45-1.81-.84-3.63-1.22-5.45-.16-.75-.23-1.52-.31-2.28-.02-.15.12-.32.19-.48.17.08.4.12.51.25,1.22,1.6,2.61,3.06,4.35,4.07,1.31.77,2.72,1.4,4.15,1.9,2.36.82,4.78,1.45,7.15,2.22,1.96.64,3.95,1.25,5.81,2.12,1.38.65,2.58,1.69,3.84,2.58,1.77,1.25,3.44,2.66,5.3,3.75,2.05,1.21,4.37,1.32,6.52-.41,1.1-.88,2.02-1.99,2.99-3.02,1.69-1.79,3.5-3.41,6.05-3.78,1.58-.23,3.11.12,4.55.8.63.3,1.26.6,1.84.97.5.32.39.73.01,1.13-.74.76-1.53,1.5-2.18,2.34-.45.57-.78,1.27-1.02,1.96-.79,2.3-.96,4.73-1.33,7.11-.28,1.75-.77,3.47-1.27,5.18-.57,1.94-1.52,3.73-2.65,5.39-1.21,1.76-2.69,3.26-4.5,4.44-2.21,1.45-4.65,2.24-7.24,2.6-1.05.14-1.98.23-3.69.21" style="fill: #874487;"/>
    <path d="M316.77,238.54c.12.18,1.3,2.91,2.01,3.92.89,1.28,2.07,2.33,3.42,3.17,1.24.77,2.51,1.55,3.58,2.52.72.65,1.17,1.63,1.66,2.51.46.81.86,1.66,1.2,2.53.53,1.33,1.47,4.3,1.46,4.43-.12-.06-1.3-1.95-1.78-2.83-.55-1.01-1.14-2.01-1.65-3.03-.74-1.48-2.14-2.29-3.34-3.29-.76-.63-1.67-1.07-2.48-1.62-1.27-.87-2.5-1.78-3.3-3.15-.22-.38-.55-.33-.7.09-.3.89-1.16,3.26-1.31,3.53-.1-.27.13-7.78,1.21-8.78" style="fill: #874487;"/>
  </g>
</svg>