<?xml version="1.0" encoding="UTF-8"?>
<svg id="Layer_1" data-name="Layer 1" xmlns="http://www.w3.org/2000/svg" xmlns:xlink="http://www.w3.org/1999/xlink" viewBox="0 0 396 612">
  <defs>
    <clipPath id="clippath">
      <rect width="396" height="612" style="fill: none;"/>
    </clipPath>
  </defs>
  <rect width="396" height="198.72" style="fill: #8a543d;"/>
  <rect y="198.72" width="396" height="413.28" style="fill: #4a5960;"/>
  <g>
    <path d="M52.96,343.82v-41.09h-14.51v-1.94h31.15v1.94h-14.58v41.09h-2.06Z" style="fill: #fff;"/>
    <path d="M109.14,343.82v-21.16h-29.35v21.16h-2.06v-43.02h2.06v19.93h29.35v-19.93h2.06v43.02h-2.06Z" style="fill: #fff;"/>
    <path d="M122.55,343.82v-43.02h26.32v1.94h-24.25v18h23.8v1.94h-23.8v19.22h24.25v1.93h-26.32Z" style="fill: #fff;"/>
  </g>
  <g>
    <path d="M77.92,421.21v-40.57l-16.77,40.57h-.65l-16.77-40.57v40.57h-2.06v-43.02h3.29l15.87,38.51,15.87-38.51h3.29v43.02h-2.06Z" style="fill: #fff;"/>
    <path d="M122.94,421.21l-4.77-11.54h-23.99l-4.77,11.54h-2.39l17.93-43.02h2.45l17.93,43.02h-2.39ZM106.17,380.58l-11.22,27.15h22.45l-11.22-27.15Z" style="fill: #fff;"/>
    <path d="M158.73,421.21l-19.16-21.16-5.16,5.61v15.54h-2.06v-43.02h2.06v24.83l22.38-24.83h2.77l-18.7,20.58,20.64,22.45h-2.77Z" style="fill: #fff;"/>
    <path d="M169.18,421.21v-43.02h2.06v43.02h-2.06Z" style="fill: #fff;"/>
    <path d="M213.68,421.21l-29.02-39.67v39.67h-2.06v-43.02h2.06l29.02,39.28v-39.28h2.06v43.02h-2.06Z" style="fill: #fff;"/>
    <path d="M247.09,377.48c6.51,0,11.54,2.32,15.74,6.64l-1.35,1.42c-3.35-3.81-8.64-6.13-14.38-6.13-10.77,0-19.22,8.19-19.22,20.32s8.45,20.38,19.22,20.38c6.32,0,11.16-3.16,13.67-5.8v-11.8h-17.74v-1.93h19.8v14.58c-3.68,4.13-9.29,6.9-15.74,6.9-11.93,0-21.48-9.09-21.48-22.32s9.55-22.25,21.48-22.25Z" style="fill: #fff;"/>
  </g>
  <g>
    <path d="M60.64,454.88c12.45,0,20.45,9.8,20.45,22.25s-8,22.25-20.45,22.25-20.45-9.8-20.45-22.25,7.93-22.25,20.45-22.25ZM60.64,456.81c-11.16,0-18.19,8.51-18.19,20.32s7.03,20.32,18.19,20.32,18.19-8.64,18.19-20.32-7.16-20.32-18.19-20.32Z" style="fill: #fff;"/>
    <path d="M90.95,498.61v-43.02h26.32v1.93h-24.25v18h23.8v1.94h-23.8v21.16h-2.06Z" style="fill: #fff;"/>
    <path d="M173.7,498.61l-4.77-11.54h-23.99l-4.77,11.54h-2.39l17.93-43.02h2.45l17.93,43.02h-2.39ZM156.93,457.97l-11.22,27.15h22.45l-11.22-27.15Z" style="fill: #fff;"/>
  </g>
  <g>
    <path d="M41.1,568.45c2.64,3.22,7.16,6.38,13.35,6.38,9.93,0,12.45-5.68,12.45-9.74,0-6.97-6.26-8.84-12.64-10.64-6.64-1.87-13.48-3.74-13.48-11.22,0-6.97,6.39-10.96,13.48-10.96,6.32,0,10.9,2.32,13.93,6.06l-1.61,1.48c-3.03-3.93-7.35-5.61-12.32-5.61-6.26,0-11.22,3.74-11.22,9.03,0,5.8,5.81,7.42,11.93,9.16,6.9,2,14.19,4.19,14.19,12.71,0,4.84-3.1,11.67-14.71,11.67-6.71,0-11.93-2.9-15.03-6.84l1.68-1.48Z" style="fill: #fff;"/>
    <path d="M110.17,576v-21.16h-29.35v21.16h-2.06v-43.02h2.06v19.93h29.35v-19.93h2.06v43.02h-2.06Z" style="fill: #fff;"/>
    <path d="M123.58,576v-43.02h26.32v1.93h-24.25v18h23.8v1.94h-23.8v19.22h24.25v1.93h-26.32Z" style="fill: #fff;"/>
    <path d="M159.57,576v-43.02h14.9c8,0,12.58,5.61,12.58,12.19s-4.71,12.19-12.58,12.19h-12.84v18.64h-2.06ZM174.4,534.91h-12.77v20.51h12.77c6.32,0,10.38-4.32,10.38-10.25s-4.06-10.26-10.38-10.26Z" style="fill: #fff;"/>
    <path d="M195.36,576v-43.02h26.32v1.93h-24.25v18h23.8v1.94h-23.8v19.22h24.25v1.93h-26.32Z" style="fill: #fff;"/>
    <path d="M256.83,576l-13.09-18.58h-10.32v18.58h-2.06v-43.02h14.83c6.97,0,12.71,4.32,12.71,12.19s-5.74,12.25-12.71,12.25l13.29,18.58h-2.64ZM246.19,534.91h-12.77v20.58h12.77c6.32,0,10.45-4.39,10.45-10.32s-4.13-10.26-10.45-10.26Z" style="fill: #fff;"/>
    <path d="M268.69,576v-43.02h12.77c13.35,0,21.41,10.06,21.41,21.54s-8.06,21.48-21.41,21.48h-12.77ZM270.76,574.07h10.71c12.19,0,19.16-8.64,19.16-19.54s-6.97-19.61-19.16-19.61h-10.71v39.15Z" style="fill: #fff;"/>
  </g>
  <rect x="38" y="42.89" width="320" height="113.31" style="fill: none; stroke: #4a5960; stroke-width: 4px;"/>
  <rect x="52.56" y="36" width="197.71" height="16.11" style="fill: #4a5960;"/>
  <g>
    <path d="M66.36,46.91l-.38-1.04h-2.68l-.38,1.04h-1.4l2.32-6h1.6l2.31,6h-1.4ZM64.64,42.01l-1,2.75h1.99l-.99-2.75Z" style="fill: #fff;"/>
    <path d="M75.49,46.91l-2.86-4.03v4.03h-1.28v-6h1.31l2.78,3.89v-3.89h1.28v6h-1.23Z" style="fill: #fff;"/>
    <path d="M82.66,46.91l-.38-1.04h-2.68l-.38,1.04h-1.4l2.32-6h1.6l2.31,6h-1.4ZM80.94,42.01l-1,2.75h1.99l-.99-2.75Z" style="fill: #fff;"/>
    <path d="M88.54,46.91l-1.18-2.15h-.94v2.15h-1.28v-6h2.81c1.25,0,2.02.82,2.02,1.94s-.67,1.63-1.31,1.78l1.35,2.29h-1.47ZM87.77,42h-1.34v1.66h1.34c.51,0,.9-.32.9-.83s-.39-.83-.9-.83Z" style="fill: #fff;"/>
    <path d="M94.87,46.91l-1.18-2.15h-.94v2.15h-1.28v-6h2.81c1.25,0,2.02.82,2.02,1.94s-.67,1.63-1.31,1.78l1.35,2.29h-1.47ZM94.1,42h-1.34v1.66h1.34c.51,0,.9-.32.9-.83s-.39-.83-.9-.83Z" style="fill: #fff;"/>
    <path d="M102.01,46.91l-.38-1.04h-2.68l-.38,1.04h-1.4l2.32-6h1.6l2.31,6h-1.4ZM100.29,42.01l-1,2.75h1.99l-.99-2.75Z" style="fill: #fff;"/>
    <path d="M105.32,46.91v-4.88h-1.76v-1.13h4.79v1.13h-1.75v4.88h-1.29Z" style="fill: #fff;"/>
    <path d="M109.71,46.91v-6h1.28v6h-1.28Z" style="fill: #fff;"/>
    <path d="M114.4,46.91l-2.32-6h1.46l1.67,4.62,1.66-4.62h1.46l-2.31,6h-1.6Z" style="fill: #fff;"/>
    <path d="M119.41,46.91v-6h4.25v1.1h-2.97v1.31h2.91v1.1h-2.91v1.4h2.97v1.11h-4.25Z" style="fill: #fff;"/>
    <path d="M127.71,45.45c.23.23.54.43.95.43.57,0,.94-.38.94-.96v-4.02h1.28v4.03c0,1.42-.88,2.08-2.12,2.08-.61,0-1.18-.16-1.61-.58l.56-.98Z" style="fill: #fff;"/>
    <path d="M135.44,40.81c1.82,0,3.14,1.3,3.14,3.11s-1.32,3.11-3.14,3.11-3.13-1.3-3.13-3.11,1.32-3.11,3.13-3.11ZM135.44,41.94c-1.11,0-1.82.85-1.82,1.97s.71,1.97,1.82,1.97,1.83-.85,1.83-1.97-.72-1.97-1.83-1.97Z" style="fill: #fff;"/>
    <path d="M140.02,40.91h1.3v3.56c0,.84.46,1.41,1.4,1.41s1.38-.58,1.38-1.41v-3.56h1.3v3.6c0,1.49-.86,2.51-2.67,2.51s-2.69-1.03-2.69-2.5v-3.61Z" style="fill: #fff;"/>
    <path d="M150.51,46.91l-1.18-2.15h-.94v2.15h-1.28v-6h2.81c1.25,0,2.02.82,2.02,1.94s-.67,1.63-1.31,1.78l1.35,2.29h-1.47ZM149.73,42h-1.34v1.66h1.34c.51,0,.9-.32.9-.83s-.39-.83-.9-.83Z" style="fill: #fff;"/>
    <path d="M157.58,46.91l-2.86-4.03v4.03h-1.28v-6h1.31l2.78,3.89v-3.89h1.28v6h-1.23Z" style="fill: #fff;"/>
    <path d="M160.54,46.91v-6h4.25v1.1h-2.97v1.31h2.91v1.1h-2.91v1.4h2.97v1.11h-4.25Z" style="fill: #fff;"/>
    <path d="M168,46.91v-2.46l-2.31-3.55h1.46l1.49,2.41,1.48-2.41h1.46l-2.3,3.55v2.46h-1.28Z" style="fill: #fff;"/>
    <path d="M178.02,40.81c1.82,0,3.14,1.3,3.14,3.11s-1.32,3.11-3.14,3.11-3.13-1.3-3.13-3.11,1.32-3.11,3.13-3.11ZM178.02,41.94c-1.11,0-1.82.85-1.82,1.97s.71,1.97,1.82,1.97,1.83-.85,1.83-1.97-.72-1.97-1.83-1.97Z" style="fill: #fff;"/>
    <path d="M182.59,46.91v-6h4.25v1.1h-2.97v1.31h2.91v1.1h-2.91v2.5h-1.28Z" style="fill: #fff;"/>
    <path d="M190.47,43.91c0-1.85,1.4-3.11,3.15-3.11,1.37,0,2.13.72,2.56,1.47l-1.1.54c-.25-.49-.79-.87-1.46-.87-1.04,0-1.84.84-1.84,1.97s.79,1.97,1.84,1.97c.67,0,1.21-.38,1.46-.87l1.1.53c-.43.75-1.19,1.48-2.56,1.48-1.76,0-3.15-1.26-3.15-3.11Z" style="fill: #fff;"/>
    <path d="M201.6,46.91v-2.52h-2.84v2.52h-1.28v-6h1.28v2.36h2.84v-2.36h1.29v6h-1.29Z" style="fill: #fff;"/>
    <path d="M208,46.91l-1.18-2.15h-.94v2.15h-1.28v-6h2.81c1.25,0,2.02.82,2.02,1.94s-.67,1.63-1.31,1.78l1.35,2.29h-1.47ZM207.22,42h-1.34v1.66h1.34c.51,0,.9-.32.9-.83s-.39-.83-.9-.83Z" style="fill: #fff;"/>
    <path d="M210.93,46.91v-6h1.28v6h-1.28Z" style="fill: #fff;"/>
    <path d="M214.22,45.09c.42.44,1.08.81,1.91.81.7,0,1.04-.33,1.04-.68,0-.45-.52-.6-1.21-.77-.98-.23-2.24-.5-2.24-1.84,0-1,.86-1.81,2.28-1.81.95,0,1.75.29,2.34.84l-.71.94c-.49-.45-1.13-.66-1.72-.66s-.88.25-.88.61c0,.41.5.53,1.2.69.99.22,2.25.52,2.25,1.85,0,1.1-.78,1.93-2.4,1.93-1.15,0-1.98-.39-2.55-.95l.7-.97Z" style="fill: #fff;"/>
    <path d="M221.15,46.91v-4.88h-1.76v-1.13h4.79v1.13h-1.75v4.88h-1.29Z" style="fill: #fff;"/>
    <path d="M225.54,46.91v-6h1.28v6h-1.28Z" style="fill: #fff;"/>
    <path d="M232.75,46.91l-.38-1.04h-2.68l-.38,1.04h-1.4l2.32-6h1.6l2.31,6h-1.4ZM231.03,42.01l-1,2.75h1.99l-.99-2.75Z" style="fill: #fff;"/>
    <path d="M239.38,46.91l-2.86-4.03v4.03h-1.28v-6h1.31l2.78,3.89v-3.89h1.28v6h-1.23Z" style="fill: #fff;"/>
  </g>
  <g>
    <path d="M58.14,126.6v-54.69h4.35v50.68h14.35v4.02h-18.7Z" style="fill: #fff;"/>
    <path d="M85.2,126.6v-54.69h18.7v4.02h-14.35v20.66h13.78v3.94h-13.78v22.06h14.35v4.02h-18.7Z" style="fill: #fff;"/>
    <path d="M130.95,126.6l-2.38-13.61h-12.63l-2.38,13.61h-4.43l10.58-54.69h5.08l10.58,54.69h-4.43ZM122.26,77.07l-5.74,31.9h11.4l-5.66-31.9Z" style="fill: #fff;"/>
    <path d="M142.43,126.6v-54.69h8.94c10.66,0,14.92,11.56,14.92,27.39s-4.26,27.31-14.84,27.31h-9.02ZM146.78,122.58h4.59c7.63,0,10.25-9.92,10.25-23.29s-2.71-23.37-10.25-23.37h-4.59v46.66Z" style="fill: #fff;"/>
    <path d="M176.62,126.6v-54.69h18.7v4.02h-14.35v20.66h13.78v3.94h-13.78v22.06h14.35v4.02h-18.7Z" style="fill: #fff;"/>
    <path d="M222.79,126.6l-7.63-22.88h-5.41v22.88h-4.35v-54.69h9.76c6.97,0,11.97,5.82,11.97,15.83s-4.35,13.94-7.79,15.09l8.28,23.78h-4.84ZM214.75,75.93h-5v23.86h5c5.33,0,7.79-5,7.79-11.97s-2.46-11.89-7.79-11.89Z" style="fill: #fff;"/>
    <path d="M236.97,119.22c1.8,2.71,5,4.35,7.95,4.35,4.26,0,7.79-3.69,7.79-9.51,0-6.64-3.94-10.41-8.04-14.19-4.26-4.02-8.77-8.2-8.77-16.15s5.08-12.71,11.4-12.71c3.44,0,6.56,1.15,8.86,3.61l-2.13,3.36c-1.8-1.97-4.02-2.95-6.64-2.95-3.77,0-7.05,3.28-7.05,8.61s3.53,8.86,7.38,12.55c4.51,4.26,9.43,8.94,9.43,17.71,0,7.79-4.76,13.69-12.05,13.69-4.26,0-8.04-1.72-10.66-4.84l2.54-3.53Z" style="fill: #fff;"/>
    <path d="M285.03,126.6v-26.16h-14.19v26.16h-4.35v-54.69h4.35v24.6h14.19v-24.6h4.43v54.69h-4.43Z" style="fill: #fff;"/>
    <path d="M301.34,126.6v-54.69h4.35v54.69h-4.35Z" style="fill: #fff;"/>
    <path d="M317.66,126.6v-54.69h9.68c8.36,0,12.05,7.38,12.05,15.91s-3.69,15.91-12.05,15.91h-5.33v22.88h-4.35ZM327.01,75.93h-5v23.86h5c5.33,0,7.79-5,7.79-11.97s-2.46-11.89-7.79-11.89Z" style="fill: #fff;"/>
  </g>
  <rect x="220.46" y="146.61" width="122.98" height="16.11" style="fill: #4a5960;"/>
  <g>
    <path d="M235.28,157.52v-4.32l-1.69,4.32h-.56l-1.69-4.32v4.32h-1.28v-6h1.79l1.46,3.75,1.46-3.75h1.8v6h-1.29Z" style="fill: #fff;"/>
    <path d="M242.4,157.52l-.38-1.04h-2.68l-.38,1.04h-1.4l2.32-6h1.6l2.31,6h-1.4ZM240.68,152.62l-1,2.75h1.99l-.99-2.75Z" style="fill: #fff;"/>
    <path d="M245.62,157.52v-4.88h-1.76v-1.13h4.79v1.13h-1.75v4.88h-1.29Z" style="fill: #fff;"/>
    <path d="M251.31,157.52v-4.88h-1.76v-1.13h4.79v1.13h-1.75v4.88h-1.29Z" style="fill: #fff;"/>
    <path d="M259.72,157.52v-2.52h-2.83v2.52h-1.28v-6h1.28v2.36h2.83v-2.36h1.29v6h-1.29Z" style="fill: #fff;"/>
    <path d="M262.64,157.52v-6h4.25v1.1h-2.97v1.31h2.91v1.1h-2.91v1.4h2.97v1.11h-4.25Z" style="fill: #fff;"/>
    <path d="M272.92,157.52l-1.05-4.12-1.04,4.12h-1.36l-1.72-6h1.43l1.05,4.34,1.14-4.34h1l1.13,4.34,1.04-4.34h1.44l-1.71,6h-1.36Z" style="fill: #fff;"/>
    <path d="M283.17,157.52l-1.18-2.15h-.94v2.15h-1.28v-6h2.81c1.25,0,2.02.82,2.02,1.94s-.67,1.63-1.31,1.78l1.35,2.29h-1.47ZM282.39,152.61h-1.34v1.66h1.34c.51,0,.9-.32.9-.83s-.39-.83-.9-.83Z" style="fill: #fff;"/>
    <path d="M286.57,156.16c.4,0,.73.33.73.73s-.33.73-.73.73-.73-.33-.73-.73.33-.73.73-.73Z" style="fill: #fff;"/>
    <path d="M291.5,157.52v-6h1.28v4.88h2.54v1.13h-3.82Z" style="fill: #fff;"/>
    <path d="M297.2,157.52v-2.46l-2.31-3.55h1.46l1.5,2.41,1.48-2.41h1.46l-2.3,3.55v2.46h-1.28Z" style="fill: #fff;"/>
    <path d="M305.92,157.52l-2.86-4.03v4.03h-1.28v-6h1.31l2.78,3.89v-3.89h1.28v6h-1.23Z" style="fill: #fff;"/>
    <path d="M309.08,155.7c.42.44,1.08.81,1.91.81.7,0,1.04-.33,1.04-.68,0-.45-.52-.6-1.21-.77-.98-.23-2.24-.5-2.24-1.84,0-1,.86-1.81,2.28-1.81.95,0,1.75.29,2.34.84l-.71.94c-.49-.45-1.13-.66-1.72-.66s-.88.25-.88.61c0,.41.5.53,1.2.69.99.22,2.25.52,2.25,1.85,0,1.1-.78,1.93-2.4,1.93-1.15,0-1.98-.39-2.55-.95l.7-.97Z" style="fill: #fff;"/>
    <path d="M318.21,157.52l-1.82-2.4-.47.56v1.85h-1.28v-6h1.28v2.68l2.12-2.68h1.58l-2.39,2.82,2.55,3.19h-1.58Z" style="fill: #fff;"/>
    <path d="M320.81,157.52v-6h4.25v1.1h-2.97v1.31h2.91v1.1h-2.91v1.4h2.97v1.11h-4.25Z" style="fill: #fff;"/>
    <path d="M328.18,157.52v-2.46l-2.31-3.55h1.46l1.5,2.41,1.48-2.41h1.46l-2.3,3.55v2.46h-1.28Z" style="fill: #fff;"/>
  </g>
  <g style="clip-path: url(#clippath);">
    <path d="M324.65,271.57c3.29-6.1,6.36-11.51,8.41-14.23,2.77-3.68,7.04-6.52,7.96-10.11,2.91-11.43-18.08-15.11-23.53-9.44-6.52,6.79.15,15.01-3.28,19.58-1.37,1.82-3.87.33-4.5,2.78,4.08,2.67,6.35,1.74,8.13-.99,2.95-4.54-2.01-8.95.86-15.55,2.88-6.6,11.12-6.33,15.57-3.18,6.73,4.75-.74,9.35-4.15,13.96-2.26,3.06-5.77,9.06-9.46,15.7" style="fill: #8a543d;"/>
    <path d="M322.35,276.13c.54-1.03,1.09-2.06,1.63-3.08l-3.91-1.76c-.54.99-1.89,3.52-1.89,3.52l4.16,1.32Z" style="fill: #8a543d;"/>
    <path d="M317.25,276.58c-3.73,7.03-8.67,16.44-10.08,19.16l3.81,1.5c2.09-3.31,6.07-11.01,10.28-19.02.37-.7-4-1.64-4-1.64" style="fill: #8a543d;"/>
    <path d="M321.47,299.39c21.01,0,38.03-17.03,38.03-38.03s-17.03-38.04-38.03-38.04-38.03,17.03-38.03,38.04,17.03,38.03,38.03,38.03Z" style="fill: none; stroke: #8a543d;"/>
  </g>
</svg>